<svg width="25" height="25" viewBox="0 0 25 25" fill="none" xmlns="http://www.w3.org/2000/svg">
<mask id="mask0_331_1019" style="mask-type:alpha" maskUnits="userSpaceOnUse" x="0" y="0" width="25" height="25">
<rect x="0.692383" y="0.862305" width="24" height="24" fill="#DCDCDC"/>
</mask>
<g mask="url(#mask0_331_1019)">
<path d="M8.86904 3.78177C8.86904 3.25387 9.29698 2.82593 9.82488 2.82593H15.5599C16.0878 2.82593 16.5157 3.25387 16.5157 3.78177C16.5157 4.30966 16.0878 4.73761 15.5599 4.73761H9.82488C9.29698 4.73761 8.86904 4.30966 8.86904 3.78177Z" fill="black"/>
<path d="M4.08984 6.64928C4.08984 6.12139 4.51779 5.69344 5.04568 5.69344H20.3391C20.867 5.69344 21.2949 6.12139 21.2949 6.64928C21.2949 7.17718 20.867 7.60512 20.3391 7.60512H5.04568C4.51779 7.60512 4.08984 7.17718 4.08984 6.64928Z" fill="black"/>
<path d="M10.1048 12.6643C10.4781 12.291 11.0833 12.291 11.4566 12.6643L12.6924 13.9001L13.9282 12.6643C14.3015 12.291 14.9067 12.291 15.28 12.6643C15.6532 13.0376 15.6532 13.6428 15.28 14.016L14.0442 15.2518L15.28 16.4876C15.6532 16.8609 15.6532 17.4661 15.28 17.8394C14.9067 18.2127 14.3015 18.2127 13.9282 17.8394L12.6924 16.6036L11.4566 17.8394C11.0833 18.2127 10.4781 18.2127 10.1048 17.8394C9.73156 17.4661 9.73156 16.8609 10.1048 16.4876L11.3406 15.2518L10.1048 14.016C9.73156 13.6428 9.73156 13.0376 10.1048 12.6643Z" fill="black"/>
<path fill-rule="evenodd" clip-rule="evenodd" d="M6.95736 8.56096C6.42947 8.56096 6.00152 8.9889 6.00152 9.5168V20.5089C6.00152 21.8287 7.07136 22.8985 8.39112 22.8985H16.9937C18.3134 22.8985 19.3833 21.8287 19.3833 20.5089V9.5168C19.3833 8.9889 18.9553 8.56096 18.4274 8.56096H6.95736ZM7.9132 20.5089V10.4726H17.4716V20.5089C17.4716 20.7729 17.2576 20.9869 16.9937 20.9869H8.39112C8.12715 20.9869 7.9132 20.7729 7.9132 20.5089Z" fill="black"/>
</g>
</svg>
