<svg width="25" height="25" viewBox="0 0 25 25" fill="none" xmlns="http://www.w3.org/2000/svg">
<mask id="mask0_331_1028" style="mask-type:alpha" maskUnits="userSpaceOnUse" x="0" y="0" width="25" height="25">
<rect x="0.874146" y="0.862305" width="24" height="24" fill="#DCDCDC"/>
</mask>
<g mask="url(#mask0_331_1028)">
<path fill-rule="evenodd" clip-rule="evenodd" d="M5.69061 2.34814C4.63482 2.34814 3.77893 3.20403 3.77893 4.25982V21.4649C3.77893 22.5207 4.63483 23.3766 5.69061 23.3766H11.4256C11.9535 23.3766 12.3815 22.9487 12.3815 22.4208C12.3815 21.8929 11.9535 21.4649 11.4256 21.4649H5.69061V4.25982H14.2932V8.08318C14.2932 8.61107 14.7211 9.03902 15.249 9.03902H19.0724V12.3845C19.0724 12.9123 19.5003 13.3403 20.0282 13.3403C20.5561 13.3403 20.984 12.9123 20.984 12.3845V8.08318C20.984 7.83598 20.8902 7.6107 20.7362 7.44102L16.4374 2.66456C16.2561 2.46315 15.9979 2.34814 15.7269 2.34814H5.69061ZM16.2048 7.12734V5.26384L17.882 7.12734H16.2048Z" fill="black"/>
<path d="M19.6361 15.9675C19.3128 15.6442 18.7886 15.6442 18.4653 15.9675C18.142 16.2908 18.142 16.815 18.4653 17.1383L19.1357 17.8087H12.2555C11.7982 17.8087 11.4276 18.1794 11.4276 18.6366C11.4276 19.0938 11.7982 19.4645 12.2555 19.4645H19.1431L18.4652 20.1424C18.1419 20.4657 18.1419 20.9899 18.4652 21.3132C18.7885 21.6365 19.3127 21.6365 19.636 21.3132L21.6607 19.2885C21.6835 19.2701 21.7056 19.2502 21.7268 19.229C21.8878 19.0681 21.9686 18.8573 21.9693 18.6463L21.9693 18.6366C21.9693 18.3751 21.8481 18.1419 21.6588 17.9902L19.6361 15.9675Z" fill="black"/>
</g>
</svg>
