<svg width="25" height="25" viewBox="0 0 25 25" fill="none" xmlns="http://www.w3.org/2000/svg">
<mask id="mask0_331_1031" style="mask-type:alpha" maskUnits="userSpaceOnUse" x="0" y="0" width="25" height="25">
<rect x="0.146973" y="0.862305" width="24" height="24" fill="#DCDCDC"/>
</mask>
<g mask="url(#mask0_331_1031)">
<path d="M6.9334 7.12746H5.73465C7.31063 5.36644 9.59994 4.25982 12.147 4.25982C16.898 4.25982 20.7495 8.11131 20.7495 12.8624C20.7495 17.6134 16.898 21.4649 12.147 21.4649C7.39592 21.4649 3.54443 17.6134 3.54443 12.8624C3.54443 12.3345 3.11649 11.9065 2.58859 11.9065C2.0607 11.9065 1.63275 12.3345 1.63275 12.8624C1.63275 18.6692 6.34013 23.3766 12.147 23.3766C17.9538 23.3766 22.6612 18.6692 22.6612 12.8624C22.6612 7.05552 17.9538 2.34814 12.147 2.34814C9.08752 2.34814 6.334 3.65519 4.41346 5.73915V4.60753C4.41346 4.07963 3.98551 3.65169 3.45762 3.65169C2.92972 3.65169 2.50178 4.07963 2.50178 4.60753V8.0833C2.50178 8.61119 2.92972 9.03913 3.45762 9.03913H6.9334C7.4613 9.03913 7.88924 8.61119 7.88924 8.0833C7.88924 7.5554 7.4613 7.12746 6.9334 7.12746Z" fill="black"/>
<path d="M13.1053 7.12743C13.1053 6.59954 12.6774 6.17155 12.1495 6.1715C11.6216 6.17145 11.1936 6.59935 11.1936 7.12724L11.193 12.8665C11.193 13.12 11.2937 13.3632 11.473 13.5425L15.5254 17.5949C15.8987 17.9682 16.5039 17.9682 16.8772 17.5949C17.2505 17.2216 17.2505 16.6164 16.8772 16.2432L13.1047 12.4707L13.1053 7.12743Z" fill="black"/>
</g>
</svg>
