<svg width="29" height="29" viewBox="0 0 29 29" fill="none" xmlns="http://www.w3.org/2000/svg">
<mask id="mask0_331_965" style="mask-type:alpha" maskUnits="userSpaceOnUse" x="0" y="0" width="29" height="29">
<rect x="0.521973" y="0.862305" width="28" height="28" fill="#DCDCDC"/>
</mask>
<g mask="url(#mask0_331_965)">
<path fill-rule="evenodd" clip-rule="evenodd" d="M1.52197 4.93186C1.52197 4.25231 2.07286 3.70142 2.75242 3.70142H26.2914C26.9709 3.70142 27.5218 4.25231 27.5218 4.93186C27.5218 5.61142 26.9709 6.16231 26.2914 6.16231H2.75242C2.07286 6.16231 1.52197 5.61142 1.52197 4.93186Z" fill="black"/>
<path fill-rule="evenodd" clip-rule="evenodd" d="M13.2916 11.5522C13.2916 10.8726 13.8425 10.3217 14.522 10.3217H26.2915C26.9711 10.3217 27.522 10.8726 27.522 11.5522C27.522 12.2317 26.9711 12.7826 26.2915 12.7826H14.522C13.8425 12.7826 13.2916 12.2317 13.2916 11.5522Z" fill="black"/>
<path fill-rule="evenodd" clip-rule="evenodd" d="M13.2916 18.1726C13.2916 17.493 13.8425 16.9421 14.522 16.9421H26.2915C26.9711 16.9421 27.522 17.493 27.522 18.1726C27.522 18.8521 26.9711 19.403 26.2915 19.403H14.522C13.8425 19.403 13.2916 18.8521 13.2916 18.1726Z" fill="black"/>
<path fill-rule="evenodd" clip-rule="evenodd" d="M1.52197 24.7929C1.52197 24.1133 2.07286 23.5624 2.75242 23.5624H26.2914C26.9709 23.5624 27.5218 24.1133 27.5218 24.7929C27.5218 25.4724 26.9709 26.0233 26.2914 26.0233H2.75242C2.07286 26.0233 1.52197 25.4724 1.52197 24.7929Z" fill="black"/>
<path fill-rule="evenodd" clip-rule="evenodd" d="M9.23364 10.1082C9.62487 10.325 9.86761 10.7371 9.86761 11.1844V18.5403C9.86761 18.9876 9.62487 19.3997 9.23364 19.6165C8.84242 19.8334 8.36434 19.8208 7.98503 19.5837L2.10028 15.9058C1.74052 15.6809 1.52197 15.2866 1.52197 14.8624C1.52197 14.4381 1.74052 14.0438 2.10028 13.8189L7.98503 10.141C8.36434 9.90391 8.84242 9.89135 9.23364 10.1082ZM5.07402 14.8624L7.40672 16.3203V13.4044L5.07402 14.8624Z" fill="black"/>
</g>
</svg>
