<svg width="25" height="25" viewBox="0 0 25 25" fill="none" xmlns="http://www.w3.org/2000/svg">
<mask id="mask0_331_1043" style="mask-type:alpha" maskUnits="userSpaceOnUse" x="0" y="0" width="25" height="25">
<rect x="0.510498" y="0.862305" width="24" height="24" fill="#DCDCDC"/>
</mask>
<g mask="url(#mask0_331_1043)">
<path d="M12.5105 3.30396C9.81018 3.30396 7.37001 4.42499 5.63288 6.22449C5.26624 6.6043 5.27691 7.20941 5.65672 7.57604C6.03652 7.94268 6.64163 7.93201 7.00827 7.55221C8.40007 6.11043 10.35 5.21563 12.5105 5.21563C16.7337 5.21563 20.1572 8.63919 20.1572 12.8623C20.1572 13.3902 20.5852 13.8182 21.1131 13.8182C21.641 13.8182 22.0689 13.3902 22.0689 12.8623V5.21563C22.0689 4.68774 21.641 4.25979 21.1131 4.25979C20.5852 4.25979 20.1572 4.68774 20.1572 5.21563V7.12639C18.4134 4.80528 15.6373 3.30396 12.5105 3.30396Z" fill="black"/>
<path d="M4.86383 12.8623C4.86383 12.3344 4.43588 11.9065 3.90799 11.9065C3.38009 11.9065 2.95215 12.3344 2.95215 12.8623V20.5091C2.95215 21.0369 3.38009 21.4649 3.90799 21.4649C4.43588 21.4649 4.86383 21.0369 4.86383 20.5091V18.5983C6.60772 20.9194 9.3838 22.4207 12.5105 22.4207C15.0886 22.4207 17.43 21.3988 19.1484 19.74C19.5282 19.3734 19.5389 18.7683 19.1722 18.3885C18.8056 18.0087 18.2005 17.998 17.8207 18.3646C16.4443 19.6933 14.5737 20.5091 12.5105 20.5091C8.28739 20.5091 4.86383 17.0855 4.86383 12.8623Z" fill="black"/>
</g>
</svg>
