<svg width="25" height="25" viewBox="0 0 25 25" fill="none" xmlns="http://www.w3.org/2000/svg">
<mask id="mask0_331_1034" style="mask-type:alpha" maskUnits="userSpaceOnUse" x="0" y="0" width="25" height="25">
<rect x="0.237793" y="0.862305" width="24" height="24" fill="#DCDCDC"/>
</mask>
<g mask="url(#mask0_331_1034)">
<path d="M6.5028 13.8182C6.5028 13.2903 6.93074 12.8623 7.45864 12.8623H17.017C17.5449 12.8623 17.9729 13.2903 17.9729 13.8182C17.9729 14.3461 17.5449 14.774 17.017 14.774H7.45864C6.93074 14.774 6.5028 14.3461 6.5028 13.8182Z" fill="black"/>
<path d="M7.45864 16.6857C6.93074 16.6857 6.5028 17.1136 6.5028 17.6415C6.5028 18.1694 6.93074 18.5974 7.45864 18.5974H12.2418C12.7697 18.5974 13.1976 18.1694 13.1976 17.6415C13.1976 17.1136 12.7697 16.6857 12.2418 16.6857H7.45864Z" fill="black"/>
<path fill-rule="evenodd" clip-rule="evenodd" d="M17.8056 3.56276L21.4927 7.00526C21.6863 7.18603 21.7962 7.43904 21.7962 7.70392V20.0311C21.7962 21.3509 20.7264 22.4207 19.4066 22.4207H5.06904C3.74931 22.4207 2.67944 21.3509 2.67944 20.0311V5.69355C2.67944 4.37382 3.7493 3.30396 5.06904 3.30396H17.1515C17.4045 3.30396 17.6346 3.40226 17.8056 3.56276ZM5.06904 5.21563C4.80509 5.21563 4.59112 5.42961 4.59112 5.69355V20.0311C4.59112 20.2951 4.80508 20.5091 5.06904 20.5091H19.4066C19.6706 20.5091 19.8845 20.2951 19.8845 20.0311V8.11918L16.7747 5.21563H13.1976V8.08315C13.1976 8.61104 12.7697 9.03899 12.2418 9.03899H7.4626C6.93471 9.03899 6.50677 8.61104 6.50677 8.08315V5.21563H5.06904ZM8.41844 5.21563V7.12731H11.286V5.21563H8.41844Z" fill="black"/>
</g>
</svg>
