<svg width="17" height="17" viewBox="0 0 17 17" fill="none" xmlns="http://www.w3.org/2000/svg">
<mask id="mask0_102_1171" style="mask-type:alpha" maskUnits="userSpaceOnUse" x="0" y="0" width="17" height="17">
<rect x="0.615967" y="0.64502" width="16" height="16" fill="#D9D9D9"/>
</mask>
<g mask="url(#mask0_102_1171)">
<path d="M2.59619 14.348C2.59619 14.698 2.87989 14.9817 3.22984 14.9817C3.5798 14.9817 3.86349 14.698 3.86349 14.348L3.86349 2.94232C3.86349 2.59237 3.5798 2.30867 3.22984 2.30867C2.87989 2.30867 2.59619 2.59237 2.59619 2.94232L2.59619 14.348Z" fill="black"/>
<path d="M13.3683 14.348C13.3683 14.698 13.652 14.9817 14.0019 14.9817C14.3519 14.9817 14.6356 14.698 14.6356 14.348L14.6356 2.94232C14.6356 2.59237 14.3519 2.30867 14.0019 2.30867C13.652 2.30867 13.3683 2.59237 13.3683 2.94232L13.3683 14.348Z" fill="black"/>
<path fill-rule="evenodd" clip-rule="evenodd" d="M8.03784 4.9009L4.87092 11.8681C4.7261 12.1867 4.86698 12.5624 5.18556 12.7072C5.50415 12.852 5.87981 12.7111 6.02463 12.3925L6.86387 10.5462H10.3682L11.2074 12.3925C11.3522 12.7111 11.7279 12.852 12.0465 12.7072C12.3651 12.5624 12.5059 12.1867 12.3611 11.8681L9.19422 4.90091C9.18371 4.87746 9.17178 4.85463 9.15849 4.83257C9.10633 4.74604 9.03309 4.67122 8.942 4.61673C8.91721 4.6019 8.89148 4.58879 8.86499 4.57748C8.78385 4.54277 8.6993 4.52632 8.61603 4.52637C8.50078 4.52644 8.38798 4.55811 8.29005 4.61673C8.20335 4.66863 8.12831 4.74166 8.07357 4.83257C8.06027 4.85463 8.04834 4.87746 8.03784 4.9009ZM9.79214 9.2789L8.61603 6.69146L7.43991 9.2789H9.79214Z" fill="#E5E5E5"/>
</g>
</svg>
