<svg width="17" height="17" viewBox="0 0 17 17" fill="none" xmlns="http://www.w3.org/2000/svg">
<path fill-rule="evenodd" clip-rule="evenodd" d="M1.52295 3.53353C1.52295 2.79715 2.1199 2.2002 2.85628 2.2002H6.18962C6.92601 2.2002 7.52295 2.79716 7.52295 3.53353V6.86686C7.52295 7.60325 6.92601 8.2002 6.18962 8.2002H2.85628C2.11991 8.2002 1.52295 7.60326 1.52295 6.86686V3.53353ZM6.18962 3.53353H2.85628V6.86686H6.18962V3.53353Z" fill="black"/>
<path fill-rule="evenodd" clip-rule="evenodd" d="M1.52295 10.8669C1.52295 10.1305 2.11991 9.53357 2.85628 9.53357H6.18962C6.92601 9.53357 7.52295 10.1305 7.52295 10.8669V14.2002C7.52295 14.9366 6.92601 15.5336 6.18962 15.5336H2.85628C2.11991 15.5336 1.52295 14.9366 1.52295 14.2002V10.8669ZM6.18962 10.8669H2.85628V14.2002H6.18962V10.8669Z" fill="black"/>
<path fill-rule="evenodd" clip-rule="evenodd" d="M10.1897 2.2002C9.45326 2.2002 8.85632 2.79716 8.85632 3.53353V6.86686C8.85632 7.60325 9.45327 8.2002 10.1897 8.2002H13.523C14.2594 8.2002 14.8563 7.60325 14.8563 6.86686V3.53353C14.8563 2.79716 14.2594 2.2002 13.523 2.2002H10.1897ZM10.1897 3.53353H13.523V6.86686H10.1897V3.53353Z" fill="black"/>
<path d="M11.1912 13.1796V14.8423C11.1912 15.2096 11.4889 15.5073 11.8562 15.5073Lnan nanLnan nanL11.8562 15.5073C12.2234 15.5073 12.5212 15.2096 12.5212 14.8423L12.5212 13.1796H14.184C14.5513 13.1796 14.849 12.8819 14.849 12.5146Lnan nanLnan nanL14.849 12.5146C14.849 12.1473 14.5513 11.8496 14.184 11.8496H12.5212L12.5212 10.1869C12.5212 9.81958 12.2234 9.52185 11.8562 9.52185Lnan nanLnan nanL11.8562 9.52185C11.4889 9.52185 11.1912 9.81958 11.1912 10.1869V11.8496H9.52853C9.16126 11.8496 8.86353 12.1473 8.86353 12.5146Lnan nanLnan nanL8.86353 12.5146C8.86353 12.8819 9.16126 13.1796 9.52853 13.1796H11.1912Z" fill="#E5E5E5"/>
</svg>
