<svg width="17" height="17" viewBox="0 0 17 17" fill="none" xmlns="http://www.w3.org/2000/svg">
<path d="M7.9025 15.0347C6.83052 15.0346 5.77576 14.7651 4.83516 14.2509C3.89457 13.7366 3.09834 12.9942 2.51965 12.0918C1.94097 11.1895 1.59841 10.1561 1.52346 9.08676C1.44852 8.01741 1.64358 6.94636 2.09074 5.9721C2.53789 4.99783 3.22278 4.1516 4.08245 3.5112C4.94212 2.8708 5.94898 2.45678 7.01047 2.3072C8.07196 2.15761 9.15403 2.27727 10.1572 2.65516C11.1604 3.03305 12.0524 3.65705 12.7514 4.46981C12.8014 4.52784 12.8394 4.59514 12.8633 4.66787C12.8873 4.7406 12.8966 4.81733 12.8909 4.89368C12.8852 4.97003 12.8645 5.04451 12.83 5.11286C12.7955 5.18121 12.7479 5.2421 12.6898 5.29205C12.6318 5.34199 12.5645 5.38002 12.4918 5.40396C12.4191 5.42789 12.3423 5.43727 12.266 5.43155C12.1896 5.42584 12.1151 5.40514 12.0468 5.37064C11.9784 5.33614 11.9175 5.28851 11.8676 5.23048C11.1599 4.40765 10.2138 3.82542 9.16031 3.56454C8.10685 3.30367 6.99831 3.37707 5.98845 3.77457C4.97859 4.17208 4.11744 4.87398 3.52446 5.78294C2.93147 6.69189 2.63602 7.76285 2.6791 8.84728C2.72217 9.9317 3.10163 10.9758 3.76485 11.8349C4.42807 12.694 5.34217 13.3253 6.38038 13.6415C7.41859 13.9577 8.52945 13.9429 9.5589 13.5993C10.5884 13.2557 11.4854 12.6002 12.1255 11.7239C12.1697 11.6596 12.2263 11.6048 12.292 11.5629C12.3577 11.5209 12.4312 11.4925 12.5081 11.4794C12.5849 11.4663 12.6637 11.4688 12.7396 11.4867C12.8155 11.5045 12.887 11.5375 12.9499 11.5835C13.0129 11.6295 13.066 11.6877 13.106 11.7546C13.1461 11.8215 13.1723 11.8958 13.1831 11.973C13.194 12.0502 13.1892 12.1289 13.1691 12.2042C13.149 12.2795 13.114 12.3501 13.0662 12.4117C12.4712 13.2229 11.6939 13.8829 10.7969 14.3386C9.89999 14.7942 8.90853 15.0326 7.9025 15.0347Z" fill="black"/>
<path d="M8.55019 11.8569C8.46289 11.8569 8.37666 11.8377 8.29754 11.8008C8.21843 11.7639 8.14837 11.7101 8.09228 11.6432L6.68716 9.96842C6.59713 9.86022 6.54819 9.72372 6.54896 9.58297L6.56539 6.01899C6.56539 5.8605 6.62835 5.70849 6.74043 5.59642C6.8525 5.48435 7.0045 5.42139 7.163 5.42139C7.32149 5.42139 7.4735 5.48435 7.58557 5.59642C7.69764 5.70849 7.76061 5.8605 7.76061 6.01899L7.74417 9.37082L9.00886 10.876C9.08216 10.9632 9.12904 11.0694 9.14399 11.1823C9.15893 11.2952 9.1413 11.41 9.09319 11.5132C9.04508 11.6165 8.96848 11.7038 8.87242 11.7649C8.77635 11.826 8.66481 11.8585 8.55094 11.8584L8.55019 11.8569ZM14.2073 8.06281H10.1682C10.0097 8.06278 9.85776 7.99981 9.7457 7.88774C9.63365 7.77567 9.5707 7.62368 9.5707 7.4652C9.5707 7.30672 9.63365 7.15473 9.7457 7.04266C9.85776 6.93059 10.0097 6.86762 10.1682 6.86759H14.2073C14.3658 6.86762 14.5177 6.93059 14.6298 7.04266C14.7418 7.15473 14.8048 7.30672 14.8048 7.4652C14.8048 7.62368 14.7418 7.77567 14.6298 7.88774C14.5177 7.99981 14.3658 8.06278 14.2073 8.06281ZM12.8985 10.7371H10.3094C10.1509 10.7371 9.9989 10.6741 9.88683 10.5621C9.77475 10.45 9.71179 10.298 9.71179 10.1395C9.71179 9.98099 9.77475 9.82899 9.88683 9.71692C9.9989 9.60484 10.1509 9.54188 10.3094 9.54188H12.8985C13.057 9.54188 13.209 9.60484 13.3211 9.71692C13.4332 9.82899 13.4961 9.98099 13.4961 10.1395C13.4961 10.298 13.4332 10.45 13.3211 10.5621C13.209 10.6741 13.057 10.7371 12.8985 10.7371Z" fill="#E5E5E5"/>
</svg>
