<svg width="17" height="17" viewBox="0 0 17 17" fill="none" xmlns="http://www.w3.org/2000/svg">
<mask id="mask0_102_1161" style="mask-type:alpha" maskUnits="userSpaceOnUse" x="0" y="0" width="17" height="17">
<rect x="0.0782471" y="0.64502" width="16" height="16" fill="#D9D9D9"/>
</mask>
<g mask="url(#mask0_102_1161)">
<path d="M5.44653 3.86626C5.44653 2.58975 6.48135 1.55493 7.75786 1.55493C9.03438 1.55493 10.0692 2.58975 10.0692 3.86626V7.39231H8.80471V3.86626C8.80471 3.2881 8.33602 2.81941 7.75786 2.81941C7.17971 2.81941 6.71102 3.2881 6.71102 3.86626V7.39231H5.44653V3.86626Z" fill="#E5E5E5"/>
<path fill-rule="evenodd" clip-rule="evenodd" d="M5.07906 6.11768C3.41459 6.11768 2.02805 7.39367 1.89008 9.05241L1.62244 12.2699C1.46726 14.1354 2.93949 15.7352 4.81143 15.7352H13.7449C14.2531 15.7352 14.6325 15.2674 14.5276 14.77L13.1044 8.02234C12.8702 6.91219 11.8906 6.11768 10.756 6.11768H5.07906ZM10.756 7.39768H5.07906C4.08038 7.39768 3.24846 8.16327 3.16567 9.15852L2.89803 12.376C2.80493 13.4953 3.68826 14.4552 4.81143 14.4552H5.84765C5.34177 13.6999 5.134 12.6973 5.3904 11.6915C5.48677 11.3134 5.84058 11.0938 6.18065 11.201C6.52072 11.3081 6.71827 11.7014 6.6219 12.0795C6.35333 13.133 7.00714 14.3184 7.95731 14.4552H9.09227C8.5864 13.6999 8.37862 12.6973 8.63502 11.6915C8.73139 11.3134 9.0852 11.0938 9.42527 11.201C9.76534 11.3081 9.9629 11.7014 9.86652 12.0795C9.59795 13.133 10.2518 14.3184 11.2019 14.4552H13.1531L11.8519 8.28652C11.7426 7.76845 11.2855 7.39768 10.756 7.39768Z" fill="black"/>
</g>
</svg>
