<svg width="17" height="17" viewBox="0 0 17 17" fill="none" xmlns="http://www.w3.org/2000/svg">
<mask id="mask0_102_1166" style="mask-type:alpha" maskUnits="userSpaceOnUse" x="0" y="0" width="17" height="17">
<rect x="0.153564" y="0.64502" width="16" height="16" fill="#D9D9D9"/>
</mask>
<g mask="url(#mask0_102_1166)">
<path d="M5.92929 8.04266L6.70764 7.26372C6.94279 7.02839 6.94264 6.647 6.70732 6.41186C6.47199 6.17672 6.0906 6.17686 5.85546 6.41219L4.07342 8.19559C3.94989 8.3059 3.87212 8.46638 3.87212 8.64502C3.87193 8.79935 3.93068 8.95438 4.04838 9.07217L5.85265 10.8779C6.0878 11.1132 6.46919 11.1133 6.70451 10.8782C6.93984 10.643 6.93999 10.2617 6.70485 10.0263L5.92651 9.24738L10.3779 9.24738L9.59953 10.0263C9.36439 10.2616 9.36453 10.643 9.59986 10.8782C9.83519 11.1133 10.2166 11.1132 10.4517 10.8779L12.2338 9.09446C12.3573 8.98415 12.4351 8.82367 12.4351 8.64502L12.4351 8.64409C12.4352 8.48985 12.3764 8.33558 12.2588 8.21787L10.4545 6.41219C10.2194 6.17686 9.83799 6.17671 9.60266 6.41186C9.36734 6.647 9.36719 7.02839 9.60233 7.26372L10.3807 8.04266L5.92929 8.04266Z" fill="#E5E5E5"/>
<path d="M3.40033 2.94124C3.40033 2.59123 3.11659 2.30748 2.76657 2.30748C2.41656 2.30748 2.13281 2.59123 2.13281 2.94124L2.13281 14.3489C2.13281 14.6989 2.41656 14.9827 2.76657 14.9827C3.11659 14.9827 3.40033 14.6989 3.40033 14.3489L3.40033 2.94124Z" fill="black"/>
<path d="M14.1742 2.94124C14.1742 2.59123 13.8905 2.30748 13.5405 2.30748C13.1905 2.30748 12.9067 2.59123 12.9067 2.94124L12.9067 14.3489C12.9067 14.6989 13.1905 14.9827 13.5405 14.9827C13.8905 14.9827 14.1742 14.6989 14.1742 14.3489L14.1742 2.94124Z" fill="black"/>
</g>
</svg>
