<svg width="17" height="17" viewBox="0 0 17 17" fill="none" xmlns="http://www.w3.org/2000/svg">
<mask id="mask0_102_1006" style="mask-type:alpha" maskUnits="userSpaceOnUse" x="0" y="0" width="17" height="17">
<path d="M16.4933 0.64502H0.493286V16.645H16.4933V0.64502Z" fill="#D9D9D9"/>
</mask>
<g mask="url(#mask0_102_1006)">
<path fill-rule="evenodd" clip-rule="evenodd" d="M2.09338 4.64492C2.09338 3.76127 2.80973 3.04492 3.69338 3.04492H13.2934C14.177 3.04492 14.8934 3.76127 14.8934 4.64492V12.6449C14.8934 13.5286 14.177 14.2449 13.2934 14.2449H3.69338C2.80973 14.2449 2.09338 13.5286 2.09338 12.6449V4.64492ZM3.69338 4.32492H13.2934C13.4701 4.32492 13.6134 4.46819 13.6134 4.64492V5.68281H3.37338V4.64492C3.37338 4.46819 3.51665 4.32492 3.69338 4.32492ZM3.37338 6.96281V12.6449C3.37338 12.8217 3.51665 12.9649 3.69338 12.9649H13.2934C13.4701 12.9649 13.6134 12.8217 13.6134 12.6449V6.96281H3.37338Z" fill="black"/>
<path d="M11.1578 9.64561C10.9323 9.87111 10.5667 9.87111 10.3412 9.64561L10.109 9.41338L10.109 11.9139C10.109 12.2328 9.85045 12.4913 9.53154 12.4913C9.21263 12.4913 8.95411 12.2328 8.95411 11.9139V8.01938L8.95418 8.01043C8.95519 7.94376 8.9675 7.87983 8.98928 7.82047C9.01725 7.74405 9.0619 7.67235 9.12323 7.61102C9.34874 7.38552 9.71435 7.38552 9.93985 7.61102L11.1578 8.82899C11.3833 9.05449 11.3833 9.42011 11.1578 9.64561Z" fill="#E5E5E5"/>
<path d="M7.4552 7.44189C7.7741 7.44189 8.03263 7.70042 8.03263 8.01933V11.9138C8.03263 12.0002 8.01365 12.0822 7.97964 12.1558C7.95948 12.1995 7.93357 12.2412 7.9019 12.2797C7.87545 12.312 7.84557 12.3413 7.81283 12.3672C7.7842 12.3898 7.75393 12.4094 7.72246 12.4258C7.64254 12.4676 7.55163 12.4912 7.4552 12.4912C7.35876 12.4912 7.26785 12.4676 7.18794 12.4258C7.15646 12.4094 7.12619 12.3898 7.09756 12.3672C7.07828 12.352 7.06 12.3355 7.04282 12.318L5.82892 11.1041C5.60341 10.8786 5.60341 10.513 5.82892 10.2875C6.05442 10.062 6.42003 10.062 6.64553 10.2875L6.87776 10.5197V8.01933C6.87776 7.70042 7.13629 7.44189 7.4552 7.44189Z" fill="#E5E5E5"/>
</g>
</svg>
