<svg width="17" height="17" viewBox="0 0 17 17" fill="none" xmlns="http://www.w3.org/2000/svg">
<mask id="mask0_102_1006" style="mask-type:alpha" maskUnits="userSpaceOnUse" x="0" y="0" width="17" height="17">
<path d="M16.2317 0.64502H0.231689V16.645H16.2317V0.64502Z" fill="#D9D9D9"/>
</mask>
<g mask="url(#mask0_102_1006)">
<path fill-rule="evenodd" clip-rule="evenodd" d="M1.83179 4.64492C1.83179 3.76127 2.54813 3.04492 3.43179 3.04492H13.0318C13.9154 3.04492 14.6318 3.76127 14.6318 4.64492V12.6449C14.6318 13.5286 13.9154 14.2449 13.0318 14.2449H3.43179C2.54813 14.2449 1.83179 13.5286 1.83179 12.6449V4.64492ZM3.43179 4.32492H13.0318C13.2085 4.32492 13.3518 4.46819 13.3518 4.64492V5.68281H3.11179V4.64492C3.11179 4.46819 3.25506 4.32492 3.43179 4.32492ZM3.11179 6.96281V12.6449C3.11179 12.8217 3.25506 12.9649 3.43179 12.9649H13.0318C13.2085 12.9649 13.3518 12.8217 13.3518 12.6449V6.96281H3.11179Z" fill="black"/>
<path d="M10.8962 9.64561C10.6707 9.87111 10.3051 9.87111 10.0796 9.64561L9.84738 9.41338L9.84738 11.9139C9.84738 12.2328 9.58885 12.4913 9.26994 12.4913C8.95104 12.4913 8.69251 12.2328 8.69251 11.9139V8.01938L8.69258 8.01043C8.69359 7.94376 8.7059 7.87983 8.72768 7.82047C8.75565 7.74405 8.8003 7.67235 8.86164 7.61102C9.08714 7.38552 9.45275 7.38552 9.67825 7.61102L10.8962 8.82899C11.1217 9.05449 11.1217 9.42011 10.8962 9.64561Z" fill="#E5E5E5"/>
<path d="M7.1936 7.44189C7.51251 7.44189 7.77103 7.70042 7.77103 8.01933V11.9138C7.77103 12.0002 7.75206 12.0822 7.71805 12.1558C7.69788 12.1995 7.67197 12.2412 7.6403 12.2797C7.61385 12.312 7.58397 12.3413 7.55123 12.3672C7.5226 12.3898 7.49233 12.4094 7.46086 12.4258C7.38095 12.4676 7.29003 12.4912 7.1936 12.4912C7.09717 12.4912 7.00625 12.4676 6.92634 12.4258C6.89487 12.4094 6.86459 12.3898 6.83597 12.3672C6.81669 12.352 6.7984 12.3355 6.78122 12.318L5.56732 11.1041C5.34182 10.8786 5.34182 10.513 5.56732 10.2875C5.79282 10.062 6.15843 10.062 6.38393 10.2875L6.61617 10.5197V8.01933C6.61617 7.70042 6.87469 7.44189 7.1936 7.44189Z" fill="#E5E5E5"/>
</g>
</svg>
