<svg width="17" height="17" viewBox="0 0 17 17" fill="none" xmlns="http://www.w3.org/2000/svg">
<mask id="mask0_102_1021" style="mask-type:alpha" maskUnits="userSpaceOnUse" x="0" y="0" width="17" height="17">
<rect x="0.7854" y="0.64502" width="16" height="16" fill="#D9D9D9"/>
</mask>
<g mask="url(#mask0_102_1021)">
<path d="M12.0483 2.3252C12.3915 2.3252 12.6697 2.59841 12.6697 2.93544V12.8816L14.0947 11.4823C14.3374 11.244 14.7309 11.244 14.9736 11.4823C15.2163 11.7206 15.2163 12.107 14.9736 12.3453L12.4877 14.7863C12.245 15.0247 11.8515 15.0247 11.6088 14.7863L9.12292 12.3453C8.88022 12.107 8.88022 11.7206 9.12292 11.4823C9.36563 11.244 9.75912 11.244 10.0018 11.4823L11.4268 12.8816V2.93544C11.4268 2.59841 11.705 2.3252 12.0483 2.3252Z" fill="black"/>
<path d="M2.41542 9.47298C2.41542 9.81001 2.69367 10.0832 3.0369 10.0832H6.50832L2.59745 13.9234C2.41971 14.098 2.36654 14.3604 2.46273 14.5885C2.55892 14.8165 2.78553 14.9652 3.0369 14.9652H8.00869C8.35192 14.9652 8.63016 14.692 8.63016 14.3549C8.63016 14.0179 8.35192 13.7447 8.00869 13.7447H4.53727L8.44814 9.90449C8.62588 9.72996 8.67905 9.46748 8.58286 9.23945C8.48666 9.01141 8.26005 8.86273 8.00869 8.86273H3.0369C2.69367 8.86273 2.41542 9.13595 2.41542 9.47298Z" fill="black"/>
<path fill-rule="evenodd" clip-rule="evenodd" d="M6.16818 2.67014C6.06584 2.46196 5.85248 2.32844 5.61709 2.32525C5.38169 2.32206 5.16467 2.44976 5.05651 2.65508L2.48488 7.53705C2.32719 7.83641 2.4465 8.20461 2.75137 8.35945C3.05623 8.51429 3.4312 8.39713 3.58889 8.09778L4.29284 6.7614H6.76573C6.77688 6.7614 6.78797 6.76111 6.79898 6.76054L7.44901 8.08272C7.59823 8.38623 7.96976 8.5135 8.27886 8.36697C8.58796 8.22045 8.71757 7.85563 8.56835 7.55211L6.16818 2.67014ZM6.19936 5.54091L5.58934 4.30013L4.93575 5.54091H6.19936Z" fill="#E5E5E5"/>
</g>
</svg>
