<svg width="17" height="17" viewBox="0 0 17 17" fill="none" xmlns="http://www.w3.org/2000/svg">
<mask id="mask0_102_986" style="mask-type:alpha" maskUnits="userSpaceOnUse" x="0" y="0" width="17" height="17">
<rect x="0.313232" y="0.64502" width="16" height="16" fill="#D9D9D9"/>
</mask>
<g mask="url(#mask0_102_986)">
<path fill-rule="evenodd" clip-rule="evenodd" d="M2.51917 3.54567C2.2011 3.54567 1.94325 3.27246 1.94325 2.93544C1.94325 2.59841 2.2011 2.3252 2.51917 2.3252H7.12653C7.35947 2.3252 7.56947 2.47388 7.65861 2.70191C7.74775 2.92994 7.69848 3.19241 7.53377 3.36694L3.90957 7.20711H7.12653C7.4446 7.20711 7.70245 7.48033 7.70245 7.81735C7.70245 8.15438 7.4446 8.42759 7.12653 8.42759H2.51917C2.28624 8.42759 2.07623 8.27891 1.98709 8.05088C1.89795 7.82285 1.94723 7.56038 2.11194 7.38585L5.73614 3.54567H2.51917Z" fill="#E5E5E5"/>
<path d="M11.5761 2.3252C11.9193 2.3252 12.1976 2.59841 12.1976 2.93544V12.8814L13.6225 11.4822C13.8652 11.2439 14.2587 11.2439 14.5014 11.4822C14.7441 11.7205 14.7441 12.1069 14.5014 12.3452L12.0155 14.7862C11.7728 15.0245 11.3793 15.0245 11.1366 14.7862L8.65074 12.3452C8.40804 12.1069 8.40804 11.7205 8.65074 11.4822C8.89345 11.2439 9.28694 11.2439 9.52964 11.4822L10.9546 12.8814V2.93544C10.9546 2.59841 11.2329 2.3252 11.5761 2.3252Z" fill="black"/>
<path fill-rule="evenodd" clip-rule="evenodd" d="M5.14492 8.86272C5.38032 8.8659 5.59367 8.99942 5.69602 9.2076L8.09618 14.0895C8.2454 14.393 8.11579 14.7578 7.80669 14.9044C7.4976 15.0509 7.12606 14.9236 6.97684 14.6201L6.3213 13.2867C6.3121 13.2871 6.30286 13.2873 6.29356 13.2873H3.82671L3.11672 14.6352C2.95903 14.9345 2.58406 15.0517 2.2792 14.8968C1.97433 14.742 1.85503 14.3738 2.01271 14.0745L4.58434 9.19254C4.6925 8.98722 4.90952 8.85953 5.14492 8.86272ZM5.11717 10.8376L5.72155 12.0669H4.46962L5.11717 10.8376Z" fill="black"/>
</g>
</svg>
