<svg width="17" height="17" viewBox="0 0 17 17" fill="none" xmlns="http://www.w3.org/2000/svg">
<mask id="mask0_102_1151" style="mask-type:alpha" maskUnits="userSpaceOnUse" x="0" y="0" width="17" height="17">
<rect x="0.347046" y="0.64502" width="16" height="16" fill="#D9D9D9"/>
</mask>
<g mask="url(#mask0_102_1151)">
<path fill-rule="evenodd" clip-rule="evenodd" d="M8.36224 5.56037C7.99764 5.56037 7.63759 5.60909 7.28461 5.69671C6.95325 5.77897 6.61794 5.57703 6.53568 5.24567C6.45342 4.9143 6.65536 4.579 6.98673 4.49674C7.42665 4.38753 7.88696 4.32397 8.36224 4.32397C10.2846 4.32397 11.9696 5.36053 13.1281 6.32082C13.7161 6.80824 14.1905 7.29424 14.518 7.65836C14.6822 7.84082 14.8104 7.99372 14.8986 8.10232C14.9427 8.15665 14.9768 8.19997 15.0005 8.23045C15.0124 8.2457 15.0216 8.25774 15.0281 8.26635L15.0359 8.27666L15.0383 8.27984L15.0391 8.28092C15.0391 8.28092 15.0397 8.28166 14.5442 8.65137C15.0397 9.02109 15.0396 9.02124 15.0396 9.02124L15.0391 9.02183L15.0383 9.02291L15.0359 9.02609L15.0281 9.0364C15.0216 9.04501 15.0124 9.05705 15.0005 9.07229C14.9768 9.10277 14.9427 9.1461 14.8986 9.20042C14.8104 9.30902 14.6822 9.46193 14.518 9.64439C14.1904 10.0085 13.7161 10.4945 13.1281 10.9819C12.8652 11.1998 12.4755 11.1633 12.2576 10.9005C12.0397 10.6376 12.0762 10.2479 12.339 10.03C12.8697 9.59013 13.3007 9.14883 13.5988 8.81748C13.6521 8.75824 13.701 8.70265 13.7454 8.65137C13.701 8.60009 13.6521 8.5445 13.5988 8.48526C13.3007 8.15391 12.8697 7.71261 12.3391 7.27273C11.2601 6.37842 9.85414 5.56037 8.36224 5.56037ZM14.5442 8.65137L15.0396 9.02124C15.2032 8.80193 15.2033 8.50097 15.0397 8.28166L14.5442 8.65137ZM4.46686 6.40226C4.68474 6.66512 4.64828 7.05484 4.38542 7.27272C3.85473 7.71261 3.42374 8.15391 3.12565 8.48526C3.07236 8.5445 3.02344 8.60009 2.97908 8.65137C3.02344 8.70266 3.07236 8.75824 3.12565 8.81748C3.42374 9.14884 3.85473 9.59014 4.38542 10.03C5.46433 10.9243 6.87034 11.7424 8.36224 11.7424C8.72988 11.7424 9.09286 11.6929 9.44862 11.6039C9.77983 11.521 10.1155 11.7223 10.1984 12.0536C10.2812 12.3848 10.0799 12.7204 9.74866 12.8033C9.30545 12.9142 8.84147 12.9788 8.36224 12.9788C6.43991 12.9788 4.75492 11.9422 3.59639 10.9819C3.00836 10.4945 2.53402 10.0085 2.20646 9.64439C2.04232 9.46193 1.91409 9.30902 1.82591 9.20042C1.7818 9.14609 1.74765 9.10277 1.72397 9.07229C1.71213 9.05705 1.7029 9.04501 1.69635 9.0364L1.68853 9.02608L1.68615 9.02291L1.68533 9.02183C1.68533 9.02183 1.68478 9.02108 2.18024 8.65137C1.68478 8.28166 1.68489 8.28151 1.68489 8.28151L1.68615 8.27983L1.68853 8.27666L1.69635 8.26635C1.7029 8.25774 1.71213 8.2457 1.72397 8.23045C1.74765 8.19997 1.7818 8.15665 1.82591 8.10232C1.91409 7.99372 2.04232 7.84082 2.20646 7.65836C2.53402 7.29424 3.00836 6.80824 3.59639 6.32082C3.85925 6.10294 4.24897 6.1394 4.46686 6.40226ZM2.18024 8.65137L1.68489 8.28151C1.52125 8.50082 1.52169 8.80252 1.68533 9.02183L2.18024 8.65137Z" fill="black"/>
<path fill-rule="evenodd" clip-rule="evenodd" d="M4.22452 3.63932C3.9831 3.3979 3.59168 3.3979 3.35026 3.63932C3.10883 3.88074 3.10883 4.27216 3.35026 4.51358L6.45869 7.62202C6.2929 7.92817 6.19855 8.279 6.19855 8.65125C6.19855 9.84622 7.16728 10.8149 8.36225 10.8149C8.73458 10.8149 9.08536 10.7206 9.39146 10.5548L12.4565 13.6199C12.6979 13.8613 13.0894 13.8613 13.3308 13.6199C13.5722 13.3784 13.5722 12.987 13.3308 12.7456L4.22452 3.63932ZM8.41382 9.57715L7.43635 8.59968C7.43542 8.61674 7.43495 8.63394 7.43495 8.65125C7.43495 9.16337 7.85012 9.57855 8.36225 9.57855C8.37956 9.57855 8.39675 9.57808 8.41382 9.57715Z" fill="#E5E5E5"/>
</g>
</svg>
