<svg width="17" height="17" viewBox="0 0 17 17" fill="none" xmlns="http://www.w3.org/2000/svg">
<mask id="mask0_102_1026" style="mask-type:alpha" maskUnits="userSpaceOnUse" x="0" y="0" width="17" height="17">
<rect x="0.0782471" y="0.716797" width="16" height="16" fill="#DCDCDC"/>
</mask>
<g mask="url(#mask0_102_1026)">
<path fill-rule="evenodd" clip-rule="evenodd" d="M1.71461 2.71338C1.36316 2.71338 1.07825 2.99829 1.07825 3.34974V10.9861C1.07825 11.3376 1.36316 11.6225 1.71461 11.6225H3.04193L4.12827 12.7088C4.37679 12.9573 4.77971 12.9573 5.02822 12.7088L6.11456 11.6225H6.80552V13.1296C6.80552 13.4811 7.09043 13.766 7.44188 13.766H10.6783L11.4464 14.5341C11.6949 14.7826 12.0979 14.7826 12.3464 14.5341L13.1145 13.766H14.4419C14.7933 13.766 15.0782 13.4811 15.0782 13.1296V8.03872C15.0782 7.68726 14.7933 7.40236 14.4419 7.40236H12.5328V3.34974C12.5328 2.99829 12.2479 2.71338 11.8964 2.71338H1.71461ZM12.5328 8.67508V10.9861C12.5328 11.3376 12.2479 11.6225 11.8964 11.6225H8.07825V12.4933H10.9419C11.1106 12.4933 11.2725 12.5603 11.3918 12.6796L11.8964 13.1842L12.401 12.6796C12.5203 12.5603 12.6822 12.4933 12.851 12.4933H13.8055V8.67508H12.5328ZM11.2601 3.9861H2.35097V10.3497H3.30552C3.47429 10.3497 3.63615 10.4168 3.7555 10.5362L4.57825 11.3589L5.401 10.5362C5.52034 10.4168 5.6822 10.3497 5.85097 10.3497H11.2601V3.9861Z" fill="black"/>
<path fill-rule="evenodd" clip-rule="evenodd" d="M5.21437 5.25854C4.86291 5.25854 4.578 5.54345 4.578 5.89491C4.578 6.24636 4.86291 6.53127 5.21437 6.53127H9.03255C9.384 6.53127 9.66891 6.24636 9.66891 5.89491C9.66891 5.54345 9.384 5.25854 9.03255 5.25854H5.21437ZM4.578 8.44036C4.578 8.08891 4.86291 7.804 5.21437 7.804H7.12346C7.47491 7.804 7.75982 8.08891 7.75982 8.44036C7.75982 8.79182 7.47491 9.07673 7.12346 9.07673H5.21437C4.86291 9.07673 4.578 8.79182 4.578 8.44036Z" fill="black"/>
</g>
</svg>
