<svg width="17" height="17" viewBox="0 0 17 17" fill="none" xmlns="http://www.w3.org/2000/svg">
<mask id="mask0_102_1156" style="mask-type:alpha" maskUnits="userSpaceOnUse" x="0" y="0" width="17" height="17">
<rect x="0.88501" y="0.64502" width="16" height="16" fill="#D9D9D9"/>
</mask>
<g mask="url(#mask0_102_1156)">
<path fill-rule="evenodd" clip-rule="evenodd" d="M5.80384 3.29541C4.55108 3.29541 3.53552 4.31097 3.53552 5.56372C3.53552 6.81648 4.55108 7.83204 5.80384 7.83204C7.05659 7.83204 8.07215 6.81648 8.07215 5.56372C8.07215 4.31097 7.05659 3.29541 5.80384 3.29541ZM4.8317 5.56372C4.8317 5.02683 5.26694 4.59159 5.80384 4.59159C6.34073 4.59159 6.77597 5.02683 6.77597 5.56372C6.77597 6.10062 6.34073 6.53586 5.80384 6.53586C5.26694 6.53586 4.8317 6.10062 4.8317 5.56372Z" fill="#E5E5E5"/>
<path fill-rule="evenodd" clip-rule="evenodd" d="M11.9662 9.45801C10.7135 9.45801 9.69793 10.4736 9.69793 11.7263C9.69793 12.9791 10.7135 13.9946 11.9662 13.9946C13.219 13.9946 14.2346 12.9791 14.2346 11.7263C14.2346 10.4736 13.219 9.45801 11.9662 9.45801ZM10.9941 11.7263C10.9941 11.1894 11.4293 10.7542 11.9662 10.7542C12.5031 10.7542 12.9384 11.1894 12.9384 11.7263C12.9384 12.2632 12.5031 12.6985 11.9662 12.6985C11.4293 12.6985 10.9941 12.2632 10.9941 11.7263Z" fill="#E5E5E5"/>
<path fill-rule="evenodd" clip-rule="evenodd" d="M14.0447 3.48523C14.2978 3.73833 14.2978 4.14867 14.0447 4.40177L4.64188 13.8046C4.38879 14.0577 3.97844 14.0577 3.72534 13.8046C3.47225 13.5515 3.47225 13.1412 3.72534 12.8881L13.1282 3.48523C13.3813 3.23214 13.7917 3.23214 14.0447 3.48523Z" fill="black"/>
</g>
</svg>
