<svg width="17" height="17" viewBox="0 0 17 17" fill="none" xmlns="http://www.w3.org/2000/svg">
<mask id="mask0_102_981" style="mask-type:alpha" maskUnits="userSpaceOnUse" x="0" y="0" width="17" height="17">
<rect x="0.878784" y="0.64502" width="16" height="16" fill="#DCDCDC"/>
</mask>
<g mask="url(#mask0_102_981)">
<path fill-rule="evenodd" clip-rule="evenodd" d="M9.35266 2.16772C7.78209 2.16772 6.5089 3.44092 6.5089 5.01148C6.5089 6.58205 7.78209 7.85524 9.35266 7.85524C10.9232 7.85524 12.1964 6.58205 12.1964 5.01148C12.1964 3.44092 10.9232 2.16772 9.35266 2.16772ZM7.77279 5.01148C7.77279 4.13895 8.48012 3.43162 9.35266 3.43162C10.2252 3.43162 10.9325 4.13895 10.9325 5.01148C10.9325 5.88402 10.2252 6.59135 9.35266 6.59135C8.48012 6.59135 7.77279 5.88402 7.77279 5.01148Z" fill="black"/>
<path d="M3.66514 14.4907C3.66514 12.1155 5.85657 10.0671 8.72071 10.0671C9.06973 10.0671 9.35266 9.78412 9.35266 9.43511C9.35266 9.0861 9.06973 8.80316 8.72071 8.80316C5.30261 8.80316 2.40125 11.2816 2.40125 14.4907C2.40125 14.8397 2.68418 15.1226 3.03319 15.1226C3.38221 15.1226 3.66514 14.8397 3.66514 14.4907Z" fill="black"/>
<path fill-rule="evenodd" clip-rule="evenodd" d="M12.5123 8.80347C11.6398 8.80347 10.9325 9.51078 10.9325 10.3833V10.6993H10.3005C9.95151 10.6993 9.66858 10.9822 9.66858 11.3313V14.491C9.66858 14.84 9.95151 15.1229 10.3005 15.1229H14.7242C15.0732 15.1229 15.3561 14.84 15.3561 14.491V11.3313C15.3561 10.9822 15.0732 10.6993 14.7242 10.6993H14.0922V10.3833C14.0922 9.51078 13.3849 8.80347 12.5123 8.80347ZM12.8283 10.6993V10.3833C12.8283 10.2088 12.6869 10.0674 12.5123 10.0674C12.3378 10.0674 12.1964 10.2088 12.1964 10.3833V10.6993H12.8283ZM10.9325 11.9632V13.859H14.0922V11.9632H10.9325Z" fill="#E5E5E5"/>
</g>
</svg>
