<svg width="17" height="17" viewBox="0 0 17 17" fill="none" xmlns="http://www.w3.org/2000/svg">
<mask id="mask0_102_991" style="mask-type:alpha" maskUnits="userSpaceOnUse" x="0" y="0" width="17" height="17">
<rect x="0.334961" y="0.64502" width="16" height="16" fill="#D9D9D9"/>
</mask>
<g mask="url(#mask0_102_991)">
<path fill-rule="evenodd" clip-rule="evenodd" d="M1.66967 2.76442C1.77931 2.5511 1.99903 2.41699 2.23888 2.41699H14.431C14.6896 2.41699 14.9229 2.57269 15.022 2.81159C15.1212 3.05048 15.0669 3.32559 14.8843 3.50879L9.61197 8.99545V14.2114C9.61197 14.4326 9.4977 14.6382 9.30978 14.755C9.12187 14.8717 8.88696 14.8832 8.68859 14.7852L6.25017 13.5811C6.03179 13.4732 5.89355 13.2508 5.89355 13.0072V8.93642L1.71846 3.4295C1.57886 3.23446 1.56002 2.97774 1.66967 2.76442ZM3.48403 3.69699L7.05397 8.35847C7.13174 8.46711 7.17355 8.59737 7.17355 8.73097V12.6095L8.33197 13.1815V8.73097C8.33197 8.5616 8.39911 8.39914 8.51867 8.27917L12.8895 3.69699H3.48403Z" fill="black"/>
<path d="M10.2407 9.85903C10.2407 9.52766 10.5273 9.25903 10.8807 9.25903H14.0807C14.4342 9.25903 14.7207 9.52766 14.7207 9.85903C14.7207 10.1904 14.4342 10.459 14.0807 10.459H10.8807C10.5273 10.459 10.2407 10.1904 10.2407 9.85903Z" fill="#E5E5E5"/>
<path d="M10.2407 11.7058C10.2407 11.3744 10.5273 11.1058 10.8807 11.1058H14.0807C14.4342 11.1058 14.7207 11.3744 14.7207 11.7058C14.7207 12.0372 14.4342 12.3058 14.0807 12.3058H10.8807C10.5273 12.3058 10.2407 12.0372 10.2407 11.7058Z" fill="#E5E5E5"/>
<path d="M10.8807 12.9522C10.5273 12.9522 10.2407 13.2208 10.2407 13.5522C10.2407 13.8836 10.5273 14.1522 10.8807 14.1522H14.0807C14.4342 14.1522 14.7207 13.8836 14.7207 13.5522C14.7207 13.2208 14.4342 12.9522 14.0807 12.9522H10.8807Z" fill="#E5E5E5"/>
</g>
</svg>
