<svg width="25" height="25" viewBox="0 0 25 25" fill="none" xmlns="http://www.w3.org/2000/svg">
<mask id="mask0_331_1068" style="mask-type:alpha" maskUnits="userSpaceOnUse" x="0" y="0" width="25" height="25">
<rect x="0.112915" y="0.773926" width="24" height="24" fill="#DCDCDC"/>
</mask>
<g mask="url(#mask0_331_1068)">
<path fill-rule="evenodd" clip-rule="evenodd" d="M4.61292 2.77393C3.23221 2.77393 2.11292 3.89322 2.11292 5.27393V20.2739C2.11292 21.6452 3.21688 22.7585 4.58447 22.7738C4.60163 22.7743 4.61883 22.7743 4.63607 22.7739H19.6129C20.9937 22.7739 22.1129 21.6547 22.1129 20.2739V18.5239C22.1129 17.9716 21.6652 17.5239 21.1129 17.5239C20.5606 17.5239 20.1129 17.9716 20.1129 18.5239V20.2739C20.1129 20.5501 19.8891 20.7739 19.6129 20.7739H7.99739C8.53569 20.2977 9.03964 19.7692 9.48943 19.2039C10.7141 17.665 11.6129 15.7557 11.6129 13.7739V4.77393H19.6129C19.8891 4.77393 20.1129 4.99777 20.1129 5.27393V7.77393C20.1129 8.32621 20.5606 8.77393 21.1129 8.77393C21.6652 8.77393 22.1129 8.32621 22.1129 7.77393V5.27393C22.1129 3.89323 20.9937 2.77393 19.6129 2.77393H4.61292ZM9.61292 4.77393H4.61292C4.33677 4.77393 4.11292 4.99779 4.11292 5.27393V20.2739C4.11292 20.4963 4.25803 20.6847 4.45873 20.7497C5.67553 20.1892 6.94394 19.1908 7.92445 17.9586C8.97046 16.6441 9.61292 15.1617 9.61292 13.7739V4.77393Z" fill="black"/>
<path d="M18.82 9.56682C18.4295 9.17629 17.7963 9.17629 17.4058 9.56682C17.0153 9.95734 17.0153 10.5905 17.4058 10.981L18.6987 12.2739H15.1129C14.5606 12.2739 14.1129 12.7216 14.1129 13.2739C14.1129 13.8262 14.5606 14.2739 15.1129 14.2739H18.6987L17.4058 15.5668C17.0153 15.9573 17.0153 16.5905 17.4058 16.981C17.7963 17.3716 18.4295 17.3716 18.82 16.981L21.82 13.981C22.0031 13.798 22.1003 13.5616 22.1118 13.3219C22.1125 13.3059 22.1129 13.2899 22.1129 13.2739L18.82 9.56682Z" fill="black"/>
<path d="M18.82 9.56682L21.82 12.5668C22.0129 12.7597 22.1106 13.0119 22.1129 13.2647L18.82 9.56682Z" fill="black"/>
</g>
</svg>
