<svg width="25" height="25" viewBox="0 0 25 25" fill="none" xmlns="http://www.w3.org/2000/svg">
<mask id="mask0_331_1056" style="mask-type:alpha" maskUnits="userSpaceOnUse" x="0" y="0" width="25" height="25">
<rect x="0.521973" y="0.773926" width="24" height="24" fill="#DCDCDC"/>
</mask>
<g mask="url(#mask0_331_1056)">
<path d="M3.76167 10.8479C3.76167 9.20084 5.09685 7.86567 6.74387 7.86567H14.448C16.095 7.86567 17.4302 9.20084 17.4302 10.8479C17.4302 12.4949 16.095 13.8301 14.448 13.8301H9.63291C9.15251 13.8301 8.76306 14.2195 8.76306 14.6999C8.76306 15.1803 9.15251 15.5698 9.63291 15.5698H14.448C17.0558 15.5698 19.1699 13.4557 19.1699 10.8479C19.1699 8.24003 17.0558 6.12598 14.448 6.12598H6.74387C4.13604 6.12598 2.02197 8.24003 2.02197 10.8479C2.02197 12.0448 2.46845 13.1396 3.20269 13.9714C3.5206 14.3316 4.07029 14.3659 4.43046 14.048C4.79063 13.7301 4.82489 13.1804 4.50698 12.8202C4.04253 12.294 3.76167 11.6048 3.76167 10.8479Z" fill="black"/>
<path d="M10.596 9.97802C7.98812 9.97802 5.87407 12.0921 5.87407 14.6999C5.87407 17.3078 7.98812 19.4218 10.596 19.4218H18.3001C20.9079 19.4218 23.022 17.3078 23.022 14.6999C23.022 13.503 22.5755 12.4082 21.8413 11.5764C21.5234 11.2162 20.9737 11.1819 20.6135 11.4998C20.2533 11.8177 20.2191 12.3674 20.537 12.7276C21.0014 13.2538 21.2823 13.943 21.2823 14.6999C21.2823 16.347 19.9471 17.6821 18.3001 17.6821H10.596C8.94893 17.6821 7.61376 16.347 7.61376 14.6999C7.61376 13.0529 8.94893 11.7177 10.596 11.7177H15.411C15.8914 11.7177 16.2809 11.3283 16.2809 10.8479C16.2809 10.3675 15.8914 9.97802 15.411 9.97802H10.596Z" fill="black"/>
</g>
</svg>
