<svg width="25" height="25" viewBox="0 0 25 25" fill="none" xmlns="http://www.w3.org/2000/svg">
<mask id="mask0_331_1062" style="mask-type:alpha" maskUnits="userSpaceOnUse" x="0" y="0" width="25" height="25">
<rect x="0.279541" y="0.773926" width="24" height="24" fill="#DCDCDC"/>
</mask>
<g mask="url(#mask0_331_1062)">
<path d="M10.0068 8.68302C10.0068 8.18094 10.4138 7.77393 10.9159 7.77393H13.6432C14.1453 7.77393 14.5523 8.18094 14.5523 8.68302C14.5523 9.18509 14.1453 9.59211 13.6432 9.59211H10.9159C10.4138 9.59211 10.0068 9.18509 10.0068 8.68302Z" fill="black"/>
<path d="M10.0068 18.2285C9.50475 18.2285 9.09773 18.6355 9.09773 19.1376C9.09773 19.6396 9.50475 20.0467 10.0068 20.0467H14.5523C15.0544 20.0467 15.4614 19.6396 15.4614 19.1376C15.4614 18.6355 15.0544 18.2285 14.5523 18.2285H10.0068Z" fill="black"/>
<path fill-rule="evenodd" clip-rule="evenodd" d="M4.55228 2.77393C4.0502 2.77393 3.64319 3.18094 3.64319 3.68302C3.64319 4.18509 4.0502 4.59211 4.55228 4.59211H5.63197C6.22853 7.31764 7.00457 9.47161 7.99461 10.9947C8.46771 11.7226 9.00334 12.3242 9.60237 12.7724C9.0033 13.2201 8.46766 13.8215 7.99461 14.5493C7.00445 16.0726 6.22839 18.2279 5.63185 20.9557H4.55228C4.0502 20.9557 3.64319 21.3628 3.64319 21.8648C3.64319 22.3669 4.0502 22.7739 4.55228 22.7739H20.0068C20.5089 22.7739 20.9159 22.3669 20.9159 21.8648C20.9159 21.3628 20.5089 20.9557 20.0068 20.9557H18.9271C18.3306 18.2302 17.5545 16.0762 16.5645 14.5531C16.0914 13.8253 15.5558 13.2237 14.9567 12.7755C15.5558 12.3277 16.0914 11.7263 16.5645 10.9985C17.5547 9.47522 18.3307 7.31992 18.9273 4.59211H20.0068C20.5089 4.59211 20.9159 4.18509 20.9159 3.68302C20.9159 3.18094 20.5089 2.77393 20.0068 2.77393H4.55228ZM17.0638 4.59211H7.49546C8.05427 7.01637 8.73869 8.8033 9.51905 10.0039C10.3971 11.3548 11.3211 11.8639 12.2804 11.8648C13.2388 11.8657 14.1621 11.3583 15.0401 10.0077C15.8205 8.80703 16.505 7.01888 17.0638 4.59211ZM12.2787 13.683L12.277 13.683C11.3192 13.6827 10.3965 14.1903 9.51905 15.5402C8.73864 16.7408 8.05413 18.529 7.49526 20.9557H17.0636C16.5048 18.5315 15.8204 16.7445 15.0401 15.544C14.162 14.1931 13.238 13.6839 12.2787 13.683Z" fill="black"/>
</g>
</svg>
