<svg width="25" height="25" viewBox="0 0 25 25" fill="none" xmlns="http://www.w3.org/2000/svg">
<mask id="mask0_331_1065" style="mask-type:alpha" maskUnits="userSpaceOnUse" x="0" y="0" width="25" height="25">
<rect x="0.521973" y="0.773926" width="24" height="24" fill="#DCDCDC"/>
</mask>
<g mask="url(#mask0_331_1065)">
<path d="M17.5628 6.3862C17.9348 6.01428 18.5378 6.01428 18.9097 6.3862C19.2816 6.75813 19.2816 7.36115 18.9097 7.73308L7.48112 19.1616C7.10919 19.5336 6.50618 19.5336 6.13425 19.1616C5.76232 18.7897 5.76232 18.1867 6.13425 17.8148L17.5628 6.3862Z" fill="black"/>
<path d="M7.76007 8.01202H6.80769C6.2817 8.01202 5.85531 8.43842 5.85531 8.9644C5.85531 9.49039 6.2817 9.91678 6.80769 9.91678H7.76007V10.8692C7.76007 11.3951 8.18646 11.8215 8.71245 11.8215C9.23843 11.8215 9.66483 11.3951 9.66483 10.8692V9.91678H10.6172C11.1432 9.91678 11.5696 9.49039 11.5696 8.9644C11.5696 8.43842 11.1432 8.01202 10.6172 8.01202H9.66483V7.05964C9.66483 6.53365 9.23843 6.10726 8.71245 6.10726C8.18646 6.10726 7.76007 6.53365 7.76007 7.05964V8.01202Z" fill="black"/>
<path d="M12.9982 17.0596C12.9982 16.5337 13.4246 16.1073 13.9505 16.1073H17.7601C18.2861 16.1073 18.7124 16.5337 18.7124 17.0596C18.7124 17.5856 18.2861 18.012 17.7601 18.012H13.9505C13.4246 18.012 12.9982 17.5856 12.9982 17.0596Z" fill="black"/>
<path fill-rule="evenodd" clip-rule="evenodd" d="M2.52197 5.15488C2.52197 3.83992 3.58796 2.77393 4.90293 2.77393H20.141C21.456 2.77393 22.522 3.83993 22.522 5.15488V20.393C22.522 21.708 21.456 22.7739 20.141 22.7739H4.90293C3.58797 22.7739 2.52197 21.708 2.52197 20.393V5.15488ZM4.90293 4.67869C4.63993 4.67869 4.42673 4.89189 4.42673 5.15488V20.393C4.42673 20.656 4.63992 20.8692 4.90293 20.8692H20.141C20.404 20.8692 20.6172 20.656 20.6172 20.393V5.15488C20.6172 4.89188 20.404 4.67869 20.141 4.67869H4.90293Z" fill="black"/>
</g>
</svg>
