<svg width="16" height="16" viewBox="0 0 16 16" fill="none" xmlns="http://www.w3.org/2000/svg">
<mask id="mask0_106_1237" style="mask-type:alpha" maskUnits="userSpaceOnUse" x="-1" y="0" width="17" height="16">
<rect x="-0.0078125" width="16" height="16" fill="#DCDCDC"/>
</mask>
<g mask="url(#mask0_106_1237)">
<path fill-rule="evenodd" clip-rule="evenodd" d="M9.36987 3.64157C9.36987 2.36564 10.4042 1.3313 11.6801 1.3313C12.9561 1.3313 13.9904 2.36564 13.9904 3.64157C13.9904 4.91749 12.9561 5.95184 11.6801 5.95184C10.4042 5.95184 9.36987 4.91749 9.36987 3.64157ZM11.6801 2.59921C11.1045 2.59921 10.6378 3.06589 10.6378 3.64157C10.6378 4.21725 11.1045 4.68394 11.6801 4.68394C12.2558 4.68394 12.7225 4.21725 12.7225 3.64157C12.7225 3.06589 12.2558 2.59921 11.6801 2.59921Z" fill="#35322B"/>
<path fill-rule="evenodd" clip-rule="evenodd" d="M1.99414 8.00009C1.99414 6.72417 3.02849 5.68982 4.30441 5.68982C5.58033 5.68982 6.61469 6.72417 6.61469 8.00009C6.61469 9.27601 5.58033 10.3104 4.30441 10.3104C3.02849 10.3104 1.99414 9.27601 1.99414 8.00009ZM4.30441 6.95773C3.72874 6.95773 3.26205 7.42442 3.26205 8.00009C3.26205 8.57577 3.72874 9.04246 4.30441 9.04246C4.88009 9.04246 5.34678 8.57577 5.34678 8.00009C5.34678 7.42442 4.88009 6.95773 4.30441 6.95773Z" fill="#35322B"/>
<path fill-rule="evenodd" clip-rule="evenodd" d="M10.5463 4.17603C10.7277 4.47548 10.6321 4.86531 10.3326 5.04673L6.08779 7.61851C5.78834 7.79993 5.39851 7.70426 5.21709 7.40481C5.03566 7.10536 5.13134 6.71553 5.43079 6.5341L9.6756 3.96233C9.97505 3.7809 10.3649 3.87658 10.5463 4.17603Z" fill="#35322B"/>
<path fill-rule="evenodd" clip-rule="evenodd" d="M5.21327 8.53676C5.39138 8.23533 5.78014 8.13537 6.08156 8.31349L10.5541 10.9564C10.8555 11.1345 10.9555 11.5232 10.7774 11.8247C10.5993 12.1261 10.2105 12.2261 9.90909 12.0479L5.43654 9.40506C5.13511 9.22694 5.03515 8.83819 5.21327 8.53676Z" fill="#35322B"/>
<path fill-rule="evenodd" clip-rule="evenodd" d="M11.6801 11.3161C11.1045 11.3161 10.6378 11.7828 10.6378 12.3585C10.6378 12.9342 11.1045 13.4009 11.6801 13.4009C12.2558 13.4009 12.7225 12.9342 12.7225 12.3585C12.7225 11.7828 12.2558 11.3161 11.6801 11.3161ZM9.36987 12.3585C9.36987 11.0826 10.4042 10.0482 11.6801 10.0482C12.9561 10.0482 13.9904 11.0826 13.9904 12.3585C13.9904 13.6344 12.9561 14.6688 11.6801 14.6688C10.4042 14.6688 9.36987 13.6344 9.36987 12.3585Z" fill="#35322B"/>
</g>
</svg>
