<svg width="17" height="17" viewBox="0 0 17 17" fill="none" xmlns="http://www.w3.org/2000/svg">
<mask id="mask0_102_511" style="mask-type:alpha" maskUnits="userSpaceOnUse" x="0" y="0" width="17" height="17">
<rect x="0.961304" y="0.808105" width="16" height="16" fill="#DCDCDC"/>
</mask>
<g mask="url(#mask0_102_511)">
<path fill-rule="evenodd" clip-rule="evenodd" d="M10.1241 4.55119C10.1241 3.3121 11.1286 2.30762 12.3677 2.30762C13.6068 2.30762 14.6113 3.3121 14.6113 4.55119C14.6113 5.79028 13.6068 6.79477 12.3677 6.79477C11.1286 6.79477 10.1241 5.79028 10.1241 4.55119ZM12.3677 3.53892C11.8087 3.53892 11.3554 3.99213 11.3554 4.55119C11.3554 5.11025 11.8087 5.56347 12.3677 5.56347C12.9268 5.56347 13.38 5.11025 13.38 4.55119C13.38 3.99213 12.9268 3.53892 12.3677 3.53892Z" fill="black"/>
<path fill-rule="evenodd" clip-rule="evenodd" d="M2.9613 8.78386C2.9613 7.54477 3.9658 6.54028 5.20488 6.54028C6.44397 6.54028 7.44846 7.54477 7.44846 8.78386C7.44846 10.0229 6.44397 11.0274 5.20488 11.0274C3.9658 11.0274 2.9613 10.0229 2.9613 8.78386ZM5.20488 7.77159C4.64583 7.77159 4.19261 8.2248 4.19261 8.78386C4.19261 9.34292 4.64583 9.79613 5.20488 9.79613C5.76394 9.79613 6.21715 9.34292 6.21715 8.78386C6.21715 8.2248 5.76394 7.77159 5.20488 7.77159Z" fill="black"/>
<path fill-rule="evenodd" clip-rule="evenodd" d="M11.2665 5.07016C11.4427 5.36097 11.3498 5.73954 11.059 5.91573L6.93671 8.41326C6.64591 8.58945 6.26733 8.49653 6.09115 8.20573C5.91496 7.91492 6.00787 7.53635 6.29868 7.36016L10.4209 4.86263C10.7117 4.68644 11.0903 4.77936 11.2665 5.07016Z" fill="black"/>
<path fill-rule="evenodd" clip-rule="evenodd" d="M6.08731 9.30499C6.26028 9.01226 6.63781 8.91518 6.93054 9.08816L11.274 11.6547C11.5667 11.8277 11.6638 12.2053 11.4908 12.498C11.3178 12.7907 10.9403 12.8878 10.6476 12.7148L6.30413 10.1482C6.01141 9.97524 5.91433 9.59772 6.08731 9.30499Z" fill="black"/>
<path fill-rule="evenodd" clip-rule="evenodd" d="M12.3677 12.0043C11.8087 12.0043 11.3554 12.4575 11.3554 13.0165C11.3554 13.5756 11.8087 14.0288 12.3677 14.0288C12.9268 14.0288 13.38 13.5756 13.38 13.0165C13.38 12.4575 12.9268 12.0043 12.3677 12.0043ZM10.1241 13.0165C10.1241 11.7774 11.1286 10.7729 12.3677 10.7729C13.6068 10.7729 14.6113 11.7774 14.6113 13.0165C14.6113 14.2556 13.6068 15.2601 12.3677 15.2601C11.1286 15.2601 10.1241 14.2556 10.1241 13.0165Z" fill="black"/>
</g>
</svg>
