<svg width="25" height="25" viewBox="0 0 25 25" fill="none" xmlns="http://www.w3.org/2000/svg">
<mask id="mask0_331_868" style="mask-type:alpha" maskUnits="userSpaceOnUse" x="0" y="0" width="25" height="25">
<rect x="0.531616" y="0.991455" width="24" height="24" fill="#DCDCDC"/>
</mask>
<g mask="url(#mask0_331_868)">
<path fill-rule="evenodd" clip-rule="evenodd" d="M10.8655 20.6941C10.8655 21.231 11.3008 21.6663 11.8377 21.6663H21.5594C22.0963 21.6663 22.5316 21.231 22.5316 20.6941C22.5316 20.1572 22.0963 19.7219 21.5594 19.7219H11.8377C11.3008 19.7219 10.8655 20.1572 10.8655 20.6941ZM10.8655 15.8332C10.8655 16.3701 11.3008 16.8054 11.8377 16.8054H19.6151C20.152 16.8054 20.5872 16.3701 20.5872 15.8332C20.5872 15.2963 20.152 14.8611 19.6151 14.8611H11.8377C11.3008 14.8611 10.8655 15.2963 10.8655 15.8332ZM10.8655 10.9724C10.8655 11.5093 11.3008 11.9445 11.8377 11.9445H17.6707C18.2076 11.9445 18.6429 11.5093 18.6429 10.9724C18.6429 10.4355 18.2076 10.0002 17.6707 10.0002H11.8377C11.3008 10.0002 10.8655 10.4355 10.8655 10.9724ZM10.8655 6.11156C10.8655 6.64846 11.3008 7.08366 11.8377 7.08366H15.7264C16.2633 7.08366 16.6986 6.64846 16.6986 6.11156C16.6986 5.57456 16.2633 5.13936 15.7264 5.13936H11.8377C11.3008 5.13936 10.8655 5.57456 10.8655 6.11156Z" fill="#35322B"/>
<path fill-rule="evenodd" clip-rule="evenodd" d="M8.43514 21.2549C8.43514 21.7918 7.99988 22.2271 7.46297 22.2271C6.92605 22.2271 6.4908 21.7918 6.4908 21.2549V7.00455L4.19122 9.30405C3.81156 9.68375 3.19602 9.68375 2.81636 9.30405C2.4367 8.92445 2.4367 8.30885 2.81636 7.92925L6.70505 4.04055C6.90381 3.84175 7.16724 3.74705 7.42762 3.75645C7.43935 3.75605 7.45113 3.75575 7.46297 3.75575C7.99988 3.75575 8.43514 4.19105 8.43514 4.72795V21.2549Z" fill="#409F11"/>
</g>
</svg>
