<svg width="25" height="25" viewBox="0 0 25 25" fill="none" xmlns="http://www.w3.org/2000/svg">
<mask id="mask0_331_883" style="mask-type:alpha" maskUnits="userSpaceOnUse" x="0" y="0" width="25" height="25">
<rect x="0.78064" y="0.100098" width="24" height="24" fill="#DCDCDC"/>
</mask>
<g mask="url(#mask0_331_883)">
<path fill-rule="evenodd" clip-rule="evenodd" d="M18.7061 2.1001C19.8107 2.1001 20.7061 2.9955 20.7061 4.1001V20.1001C20.7061 21.2047 19.8107 22.1001 18.7061 22.1001H14.7061C13.6015 22.1001 12.7061 21.2047 12.7061 20.1001L12.7061 4.1001C12.7061 2.9955 13.6015 2.1001 14.7061 2.1001H18.7061ZM18.7061 4.1001V20.1001H14.7061V4.1001H18.7061Z" fill="#35322B"/>
<path fill-rule="evenodd" clip-rule="evenodd" d="M6.56209 9.54559C6.17156 9.15507 5.5384 9.15507 5.14787 9.54559C4.75735 9.93612 4.75735 10.5693 5.14787 10.9598L6.28814 12.1001L5.1479 13.2403C4.75737 13.6308 4.75737 14.264 5.1479 14.6545C5.53842 15.0451 6.17159 15.0451 6.56211 14.6545L7.70235 13.5143L8.84268 14.6546C9.23321 15.0451 9.86637 15.0451 10.2569 14.6546C10.6474 14.2641 10.6474 13.6309 10.2569 13.2404L9.11657 12.1001L10.2569 10.9597C10.6474 10.5692 10.6474 9.93603 10.2569 9.54551C9.8664 9.15498 9.23323 9.15498 8.84271 9.54551L7.70235 10.6859L6.56209 9.54559Z" fill="#409F11"/>
</g>
</svg>
