<svg width="25" height="25" viewBox="0 0 25 25" fill="none" xmlns="http://www.w3.org/2000/svg">
<mask id="mask0_331_863" style="mask-type:alpha" maskUnits="userSpaceOnUse" x="0" y="0" width="25" height="25">
<rect x="0.448608" y="0.100098" width="24" height="24" fill="#DCDCDC"/>
</mask>
<g mask="url(#mask0_331_863)">
<path fill-rule="evenodd" clip-rule="evenodd" d="M10.7325 19.3315C10.7325 19.8685 11.1677 20.3037 11.7047 20.3037H21.4264C21.9633 20.3037 22.3986 19.8685 22.3986 19.3315C22.3986 18.7946 21.9633 18.3594 21.4264 18.3594H11.7047C11.1677 18.3594 10.7325 18.7946 10.7325 19.3315ZM10.7325 14.4707C10.7325 15.0076 11.1677 15.4429 11.7047 15.4429H19.482C20.0189 15.4429 20.4542 15.0076 20.4542 14.4707C20.4542 13.9338 20.0189 13.4985 19.482 13.4985H11.7047C11.1677 13.4985 10.7325 13.9338 10.7325 14.4707ZM10.7325 9.60981C10.7325 10.1467 11.1677 10.582 11.7047 10.582H17.5377C18.0746 10.582 18.5099 10.1467 18.5099 9.60981C18.5099 9.07291 18.0746 8.63761 17.5377 8.63761H11.7047C11.1677 8.63761 10.7325 9.07291 10.7325 9.60981ZM10.7325 4.74901C10.7325 5.28591 11.1677 5.72111 11.7047 5.72111H15.5933C16.1303 5.72111 16.5655 5.28591 16.5655 4.74901C16.5655 4.21201 16.1303 3.77681 15.5933 3.77681H11.7047C11.1677 3.77681 10.7325 4.21201 10.7325 4.74901Z" fill="#35322B"/>
<path fill-rule="evenodd" clip-rule="evenodd" d="M8.40206 3.83667C8.40206 3.29976 7.9668 2.8645 7.42989 2.8645C6.89297 2.8645 6.45772 3.29976 6.45772 3.83667V18.087L4.15814 15.7875C3.77848 15.4078 3.16293 15.4078 2.78328 15.7875C2.40362 16.1671 2.40362 16.7827 2.78328 17.1623L6.67197 21.051C6.87073 21.2498 7.13416 21.3445 7.39454 21.3351C7.40627 21.3355 7.41805 21.3358 7.42989 21.3358C7.9668 21.3358 8.40206 20.9005 8.40206 20.3636V3.83667Z" fill="#409F11"/>
</g>
</svg>
