<svg width="25" height="25" viewBox="0 0 25 25" fill="none" xmlns="http://www.w3.org/2000/svg">
<mask id="mask0_331_908" style="mask-type:alpha" maskUnits="userSpaceOnUse" x="0" y="0" width="25" height="25">
<rect x="0.196289" y="0.100098" width="24" height="24" fill="#DCDCDC"/>
</mask>
<g mask="url(#mask0_331_908)">
<path fill-rule="evenodd" clip-rule="evenodd" d="M20.1963 20.2129C21.3009 20.2129 22.1963 19.3175 22.1963 18.2129L22.1963 14.2129C22.1963 13.1083 21.3009 12.2129 20.1963 12.2129L4.19629 12.2129C3.09169 12.2129 2.19629 13.1083 2.19629 14.2129L2.19629 18.2129C2.19629 19.3175 3.09169 20.2129 4.19629 20.2129L20.1963 20.2129ZM4.19629 18.2129L20.1963 18.2129L20.1963 14.2129L4.19629 14.2129L4.19629 18.2129Z" fill="#35322B"/>
<path fill-rule="evenodd" clip-rule="evenodd" d="M11.8089 3.98764C12.3611 3.98764 12.8089 4.43535 12.8089 4.98764L12.8089 6.60022L14.4216 6.60022C14.9739 6.60022 15.4216 7.04793 15.4216 7.60022C15.4216 8.1525 14.9739 8.60022 14.4216 8.60022L12.8089 8.60022L12.8089 10.2129C12.8089 10.7652 12.3612 11.2129 11.8089 11.2129C11.2566 11.2129 10.8089 10.7652 10.8089 10.2129L10.8089 8.60022L9.19632 8.60022C8.64403 8.60022 8.19632 8.1525 8.19632 7.60022C8.19632 7.04793 8.64403 6.60022 9.19632 6.60022L10.8089 6.60022L10.8089 4.98764C10.8089 4.43535 11.2566 3.98764 11.8089 3.98764Z" fill="#409F11"/>
</g>
</svg>
