<svg width="25" height="25" viewBox="0 0 25 25" fill="none" xmlns="http://www.w3.org/2000/svg">
<mask id="mask0_331_903" style="mask-type:alpha" maskUnits="userSpaceOnUse" x="0" y="0" width="25" height="25">
<rect x="0.112915" y="0.100098" width="24" height="24" fill="#DCDCDC"/>
</mask>
<g mask="url(#mask0_331_903)">
<path fill-rule="evenodd" clip-rule="evenodd" d="M20.2612 4.10034C20.2612 2.99577 19.3658 2.10034 18.2612 2.10034H14.2612C13.1567 2.10034 12.2612 2.99577 12.2612 4.10034V20.1003C12.2612 21.2049 13.1567 22.1003 14.2612 22.1003H18.2612C19.3658 22.1003 20.2612 21.2049 20.2612 20.1003V4.10034ZM18.2612 20.1003V4.10034H14.2612V20.1003H18.2612Z" fill="#35322B"/>
<path fill-rule="evenodd" clip-rule="evenodd" d="M3.96439 12.1002C3.96439 11.548 4.4121 11.1002 4.96439 11.1002H6.57697V9.48755C6.57697 8.93526 7.02468 8.48755 7.57697 8.48755C8.12925 8.48755 8.57697 8.93526 8.57697 9.48755V11.1002H10.1896C10.7419 11.1002 11.1896 11.548 11.1896 12.1002C11.1896 12.6525 10.7419 13.1002 10.1896 13.1002H8.57697V14.7128C8.57697 15.2651 8.12925 15.7128 7.57697 15.7128C7.02468 15.7128 6.57697 15.2651 6.57697 14.7128V13.1002H4.96439C4.4121 13.1002 3.96439 12.6525 3.96439 12.1002Z" fill="#409F11"/>
</g>
</svg>
