<svg width="25" height="25" viewBox="0 0 25 25" fill="none" xmlns="http://www.w3.org/2000/svg">
<mask id="mask0_331_923" style="mask-type:alpha" maskUnits="userSpaceOnUse" x="0" y="0" width="25" height="25">
<rect x="0.521973" y="0.928345" width="24" height="24" fill="#DCDCDC"/>
</mask>
<g mask="url(#mask0_331_923)">
<path fill-rule="evenodd" clip-rule="evenodd" d="M12.5219 2.92834C11.2945 2.92834 10.2996 3.92328 10.2996 5.15057H6.29964C5.56324 5.15057 4.96631 5.74753 4.96631 6.4839V21.595C4.96631 22.3314 5.56326 22.9283 6.29964 22.9283H18.7441C19.4805 22.9283 20.0774 22.3314 20.0774 21.595V6.4839C20.0774 5.74753 19.4805 5.15057 18.7441 5.15057H14.7441C14.7441 3.92328 13.7492 2.92834 12.5219 2.92834ZM12.0774 5.15057C12.0774 4.9051 12.2764 4.70612 12.5219 4.70612C12.7673 4.70612 12.9663 4.9051 12.9663 5.15057V6.01746C12.9663 6.52098 13.3746 6.92834 13.8772 6.92834H14.7441V7.81723H10.2996V6.92834H11.1665C11.6691 6.92834 12.0774 6.52098 12.0774 6.01746V5.15057ZM16.5219 6.92834V8.26168C16.5219 8.99806 15.9249 9.59501 15.1885 9.59501H9.8552C9.11881 9.59501 8.52186 8.99806 8.52186 8.26168V6.92834H6.74409V21.1506H18.2996V6.92834H16.5219Z" fill="#35322B"/>
<path d="M8.27544 18.2886C7.92198 18.2886 7.63544 18.0021 7.63544 17.6486Lnan nanL7.63544 17.6486C7.63544 17.2952 7.92197 17.0086 8.27544 17.0086H8.87083C8.96419 17.0086 9.03988 16.9329 9.03988 16.8396V13.3839C9.03988 13.3092 8.9793 13.2486 8.90457 13.2486H8.35643C8.06133 13.2486 7.8221 13.0094 7.8221 12.7143Lnan nanL7.8221 12.7143C7.8221 12.4572 8.00607 12.2396 8.25531 12.1764C8.63718 12.0796 8.94387 11.9603 9.23519 11.8037C9.38312 11.7241 9.54658 11.6753 9.71454 11.6753Lnan nanL9.71454 11.6753C10.2158 11.6753 10.6221 12.0816 10.6221 12.5829V16.8653C10.6221 16.9444 10.6863 17.0086 10.7655 17.0086H11.1732C11.5267 17.0086 11.8132 17.2952 11.8132 17.6486Lnan nanL11.8132 17.6486C11.8132 18.0021 11.5267 18.2886 11.1732 18.2886H8.27544Z" fill="#409F11"/>
<path fill-rule="evenodd" clip-rule="evenodd" d="M17.2032 13.1168C17.4766 13.3901 17.4766 13.8334 17.2032 14.1067L14.4627 16.8472C14.3314 16.9785 14.1534 17.0522 13.9677 17.0522C13.7821 17.0522 13.604 16.9785 13.4728 16.8472L12.0645 15.4389C11.7911 15.1655 11.7911 14.7223 12.0645 14.449C12.3378 14.1756 12.781 14.1756 13.0544 14.449L13.9677 15.3623L16.2133 13.1168C16.4866 12.8434 16.9298 12.8434 17.2032 13.1168Z" fill="#409F11"/>
</g>
</svg>
