<svg width="17" height="17" viewBox="0 0 17 17" fill="none" xmlns="http://www.w3.org/2000/svg">
<mask id="mask0_102_234" style="mask-type:alpha" maskUnits="userSpaceOnUse" x="0" y="0" width="17" height="17">
<rect x="0.80188" y="0.77002" width="16" height="16" fill="#F2F2F2"/>
</mask>
<g mask="url(#mask0_102_234)">
<path d="M9.50036 3.18279C9.50036 2.79706 9.18767 2.48438 8.80195 2.48438C8.41623 2.48438 8.10354 2.79706 8.10354 3.18279V8.07171H3.21453C2.8288 8.07171 2.51611 8.3844 2.51611 8.77012C2.51611 9.15584 2.8288 9.46853 3.21453 9.46853H8.10354V14.3574C8.10354 14.7431 8.41623 15.0558 8.80195 15.0558C9.18767 15.0558 9.50036 14.7431 9.50036 14.3574V9.46853H14.3891C14.7749 9.46853 15.0875 9.15584 15.0875 8.77012C15.0875 8.3844 14.7749 8.07171 14.3891 8.07171H9.50036V3.18279Z" fill="black"/>
</g>
</svg>
