<svg width="17" height="17" viewBox="0 0 17 17" fill="none" xmlns="http://www.w3.org/2000/svg">
<mask id="mask0_127_22" style="mask-type:alpha" maskUnits="userSpaceOnUse" x="0" y="0" width="17" height="17">
<rect x="0.627808" y="0.656006" width="16" height="16" fill="#D9D9D9"/>
</mask>
<g mask="url(#mask0_127_22)">
<path d="M8.77706 6.46366C8.77706 6.09547 8.47858 5.797 8.11039 5.797C7.7422 5.797 7.44373 6.09547 7.44373 6.46366V7.47497L6.43887 7.47628C6.07068 7.47676 5.77259 7.77562 5.77307 8.14381C5.77355 8.512 6.07242 8.81009 6.44061 8.80961L7.44373 8.80831V9.81366C7.44373 10.1819 7.7422 10.4803 8.11039 10.4803C8.47858 10.4803 8.77706 10.1819 8.77706 9.81366V8.80657L9.78625 8.80526C10.1544 8.80478 10.4525 8.50591 10.452 8.13772C10.4516 7.76953 10.1527 7.47145 9.78451 7.47192L8.77706 7.47324V6.46366Z" fill="black"/>
<path fill-rule="evenodd" clip-rule="evenodd" d="M8.11038 2.72607C5.12115 2.72607 2.69788 5.14934 2.69788 8.13857C2.69788 11.1278 5.12115 13.5511 8.11038 13.5511C9.36472 13.5511 10.5194 13.1244 11.4372 12.4082L13.4197 14.3907C13.68 14.651 14.1021 14.651 14.3625 14.3907C14.6228 14.1303 14.6228 13.7082 14.3625 13.4479L12.38 11.4654C13.0962 10.5476 13.5229 9.39292 13.5229 8.13857C13.5229 5.14934 11.0996 2.72607 8.11038 2.72607ZM4.03121 8.13857C4.03121 5.88572 5.85753 4.05941 8.11038 4.05941C10.3632 4.05941 12.1895 5.88572 12.1895 8.13857C12.1895 10.3914 10.3632 12.2177 8.11038 12.2177C5.85753 12.2177 4.03121 10.3914 4.03121 8.13857Z" fill="black"/>
</g>
</svg>
