<svg width="17" height="17" viewBox="0 0 17 17" fill="none" xmlns="http://www.w3.org/2000/svg">
<mask id="mask0_102_228" style="mask-type:alpha" maskUnits="userSpaceOnUse" x="0" y="0" width="17" height="17">
<rect x="0.629761" y="0.77002" width="16" height="16" fill="#DCDCDC"/>
</mask>
<g mask="url(#mask0_102_228)">
<path d="M3.79657 2.97021C3.52965 2.70329 3.09688 2.70329 2.82995 2.97021C2.56303 3.23714 2.56303 3.66991 2.82995 3.93683L7.66314 8.77002L2.83015 13.603C2.56323 13.8699 2.56323 14.3027 2.83015 14.5696C3.09708 14.8366 3.52985 14.8366 3.79677 14.5696L8.62976 9.73664L13.4628 14.5696C13.7297 14.8366 14.1624 14.8366 14.4294 14.5696C14.6963 14.3027 14.6963 13.8699 14.4294 13.603L9.59638 8.77002L14.4296 3.93683C14.6965 3.66991 14.6965 3.23714 14.4296 2.97021C14.1626 2.70329 13.7299 2.70329 13.463 2.97021L8.62976 7.8034L3.79657 2.97021Z" fill="black"/>
</g>
</svg>
