<svg width="17" height="17" viewBox="0 0 17 17" fill="none" xmlns="http://www.w3.org/2000/svg">
<mask id="mask0_207_98" style="mask-type:alpha" maskUnits="userSpaceOnUse" x="0" y="0" width="17" height="17">
<rect x="0.392822" y="0.78833" width="16" height="16" fill="#D9D9D9"/>
</mask>
<g mask="url(#mask0_207_98)">
<path d="M12.2667 7.81667C12.315 7.75548 12.3629 7.69452 12.4105 7.63379C12.4211 7.62023 12.4317 7.60668 12.4423 7.59314C12.3843 7.66731 12.3258 7.74182 12.2667 7.81667Z" fill="black"/>
<path d="M5.85821 5.44029C5.83007 5.56533 5.92516 5.6842 6.05333 5.6842H7.74045C7.99916 5.6842 8.18982 5.92608 8.12938 6.17763L8.00295 6.7039C7.95976 6.88371 7.79894 7.01047 7.61402 7.01047H5.65301C5.56007 7.01047 5.47938 7.07449 5.45824 7.165L4.60791 10.8071C4.29446 12.1599 3.95559 13.1993 3.59433 13.9348C3.45703 14.2143 3.31586 14.4621 3.17121 14.6793C2.80714 15.2259 2.1256 15.4006 1.4758 15.305C1.32395 15.2827 1.25433 15.1006 1.34391 14.9759C1.41439 14.8779 1.48269 14.7748 1.5488 14.6668C1.75737 14.3258 1.94502 13.9656 2.11146 13.587C2.27655 13.2092 2.41899 12.823 2.53769 12.4308C2.65525 12.0414 2.75051 11.6783 2.82628 11.3406L2.82646 11.3398L4.27338 5.12586C4.49813 4.14883 4.89912 3.41035 5.46384 2.89406C6.01639 2.38902 6.80939 2.12183 7.86999 2.12183C8.27317 2.12183 8.61669 2.16596 8.90515 2.2488C8.93953 2.25878 8.97283 2.26865 9.00506 2.2784C9.22102 2.3437 9.32381 2.58184 9.23691 2.79006L9.00955 3.3348C8.92623 3.53444 8.69915 3.62946 8.4877 3.58376C8.46899 3.57972 8.45013 3.57583 8.43112 3.57211C8.20284 3.52741 7.98771 3.50371 7.78663 3.50371C7.24323 3.50371 6.80007 3.64594 6.50106 3.96918C6.22731 4.26513 6.04368 4.63144 5.94366 5.06056L5.85821 5.44029Z" fill="black"/>
<path d="M13.3298 6.77094C13.5505 6.47446 13.7641 6.17257 13.9707 5.86482C14.0458 5.75305 14.1712 5.68519 14.3058 5.68519H14.8916C15.2149 5.68519 15.4037 6.04829 15.2139 6.31012C15.0194 6.57865 14.8171 6.85162 14.6069 7.12895C14.1471 7.73582 13.6144 8.37035 13.0057 9.03154L12.9076 9.13811L12.9745 9.2666C13.3439 9.97612 13.6566 10.6289 13.914 11.2272C14.0586 11.5634 14.1945 11.9019 14.3217 12.2423C14.418 12.4998 14.2251 12.7706 13.9503 12.7706H13.1793C13.0111 12.7706 12.8612 12.6653 12.802 12.5079C12.6827 12.1908 12.5631 11.8926 12.4428 11.6126C12.2752 11.2211 12.1113 10.8573 11.9532 10.5223L11.8168 10.2333L9.77398 12.6301C9.69798 12.7193 9.58671 12.7706 9.46955 12.7706H8.9087C8.56555 12.7706 8.38169 12.3669 8.60696 12.1081L11.1473 9.18877L9.71877 6.26058C9.58914 5.99486 9.78262 5.68519 10.0783 5.68519H10.818C10.9751 5.68519 11.1177 5.77718 11.1824 5.92033L12.2185 8.21086L12.4287 7.9445C12.7447 7.544 13.0455 7.15313 13.3298 6.77094Z" fill="black"/>
</g>
</svg>
