<svg width="25" height="25" viewBox="0 0 25 25" fill="none" xmlns="http://www.w3.org/2000/svg">
<mask id="mask0_331_1364" style="mask-type:alpha" maskUnits="userSpaceOnUse" x="0" y="0" width="25" height="25">
<rect x="0.597168" y="0.537476" width="24" height="24" fill="#DCDCDC"/>
</mask>
<g mask="url(#mask0_331_1364)">
<path fill-rule="evenodd" clip-rule="evenodd" d="M2.82898 21.2355C2.89919 21.5681 3.02762 21.8503 3.23323 22.0559L3.24232 22.0646C3.4604 22.2629 3.73808 22.383 4.05904 22.4376C4.36833 22.5056 4.74338 22.5375 5.17937 22.5375H20.0625C20.4998 22.5375 20.8733 22.4977 21.1746 22.4104C21.4941 22.3379 21.7646 22.199 21.9655 21.9801C22.1663 21.7773 22.2945 21.5068 22.365 21.1894C22.4341 20.8783 22.4664 20.4927 22.4664 20.0385V5.15536C22.4664 4.67031 22.4342 4.26191 22.3656 3.93597C22.2954 3.60257 22.1681 3.31763 21.9697 3.09944C21.768 2.8775 21.4953 2.73696 21.1727 2.66416C20.8571 2.57745 20.4688 2.53748 20.0149 2.53748H5.20314C4.75221 2.53748 4.36894 2.56926 4.05901 2.63736C3.7321 2.69305 3.45135 2.82468 3.23323 3.0428C3.02762 3.24841 2.89919 3.53063 2.82898 3.8632C2.75995 4.17459 2.72791 4.5679 2.72791 5.03649V20.0385C2.72791 20.5221 2.75984 20.9236 2.82898 21.2355ZM20.0091 4.87395L20.0236 4.89571L20.0421 4.91421C20.0651 4.93725 20.0836 4.96972 20.0836 5.03649V11.2153H13.8599V4.84893H19.9901C19.995 4.85442 20.0015 4.8625 20.0091 4.87395ZM5.17937 4.84893H11.4771V11.2153H5.11068V5.03649C5.11068 4.91059 5.13597 4.86317 5.14311 4.85347C5.14549 4.85252 5.15594 4.84893 5.17937 4.84893ZM20.0149 20.226H13.8599V13.5268H20.0836V20.0385C20.0836 20.1644 20.0583 20.2118 20.0512 20.2215C20.0488 20.2224 20.0383 20.226 20.0149 20.226ZM11.4771 13.5268V20.226H5.20314C5.17116 20.226 5.15542 20.2209 5.14987 20.2186C5.14593 20.2169 5.14488 20.2159 5.14301 20.2136C5.13615 20.2049 5.11068 20.1614 5.11068 20.0385V13.5268H11.4771Z" fill="black"/>
</g>
</svg>
