<svg width="25" height="25" viewBox="0 0 25 25" fill="none" xmlns="http://www.w3.org/2000/svg">
<mask id="mask0_331_1016" style="mask-type:alpha" maskUnits="userSpaceOnUse" x="0" y="0" width="25" height="25">
<rect x="0.0559082" y="0.862305" width="24" height="24" fill="#DCDCDC"/>
</mask>
<g mask="url(#mask0_331_1016)">
<path d="M8.7105 10.9507C8.7105 10.4228 9.13844 9.99485 9.66634 9.99485H11.578C12.1059 9.99485 12.5339 10.4228 12.5339 10.9507C12.5339 11.4786 12.1059 11.9065 11.578 11.9065H9.66634C9.13844 11.9065 8.7105 11.4786 8.7105 10.9507Z" fill="black"/>
<path d="M9.66634 13.8182C9.13844 13.8182 8.7105 14.2462 8.7105 14.774C8.7105 15.3019 9.13844 15.7299 9.66634 15.7299H15.4014C15.9293 15.7299 16.3572 15.3019 16.3572 14.774C16.3572 14.2462 15.9293 13.8182 15.4014 13.8182H9.66634Z" fill="black"/>
<path fill-rule="evenodd" clip-rule="evenodd" d="M21.1364 9.03902C21.1364 8.73938 20.9985 8.47194 20.7828 8.29669L15.7155 2.76882C15.5437 2.51498 15.2531 2.34814 14.9234 2.34814H6.79882C6.27092 2.34814 5.84298 2.77609 5.84298 3.30398V19.5532C5.84298 20.0811 6.27092 20.5091 6.79882 20.5091H20.1806C20.7085 20.5091 21.1364 20.0811 21.1364 19.5532V9.03902ZM15.8793 8.08318V5.77653L17.9937 8.08318H15.8793ZM7.75466 4.25982V18.5974H19.2247V9.99485H14.9234C14.3956 9.99485 13.9676 9.56691 13.9676 9.03902V4.25982H7.75466Z" fill="black"/>
<path d="M4.88714 10.9507C4.88714 10.4228 4.4592 9.99485 3.9313 9.99485C3.40341 9.99485 2.97546 10.4228 2.97546 10.9507V22.4208C2.97546 22.9487 3.40341 23.3766 3.9313 23.3766H13.9676C14.4955 23.3766 14.9234 22.9487 14.9234 22.4208C14.9234 21.8929 14.4955 21.4649 13.9676 21.4649H4.88714V10.9507Z" fill="black"/>
</g>
</svg>
