<svg width="25" height="25" viewBox="0 0 25 25" fill="none" xmlns="http://www.w3.org/2000/svg">
<mask id="mask0_331_1037" style="mask-type:alpha" maskUnits="userSpaceOnUse" x="0" y="0" width="25" height="25">
<rect x="0.328613" y="0.862305" width="24" height="24" fill="#DCDCDC"/>
</mask>
<g mask="url(#mask0_331_1037)">
<path d="M13.5234 8.80006C13.5234 9.45993 12.9885 9.99485 12.3286 9.99485C11.6687 9.99485 11.1338 9.45993 11.1338 8.80006C11.1338 8.14019 11.6687 7.60526 12.3286 7.60526C12.9885 7.60526 13.5234 8.14019 13.5234 8.80006Z" fill="black"/>
<path d="M13.2845 12.3845C13.2845 11.8566 12.8565 11.4286 12.3286 11.4286C11.8007 11.4286 11.3728 11.8566 11.3728 12.3845V18.1195C11.3728 18.6474 11.8007 19.0753 12.3286 19.0753C12.8565 19.0753 13.2845 18.6474 13.2845 18.1195V12.3845Z" fill="black"/>
<path fill-rule="evenodd" clip-rule="evenodd" d="M1.81439 12.8624C1.81439 7.05552 6.52177 2.34814 12.3286 2.34814C18.1355 2.34814 22.8428 7.05552 22.8428 12.8624C22.8428 18.6692 18.1355 23.3766 12.3286 23.3766C6.52177 23.3766 1.81439 18.6692 1.81439 12.8624ZM12.3286 4.25982C7.57756 4.25982 3.72607 8.11131 3.72607 12.8624C3.72607 17.6134 7.57756 21.4649 12.3286 21.4649C17.0797 21.4649 20.9312 17.6134 20.9312 12.8624C20.9312 8.11131 17.0797 4.25982 12.3286 4.25982Z" fill="black"/>
</g>
</svg>
