<svg width="25" height="25" viewBox="0 0 25 25" fill="none" xmlns="http://www.w3.org/2000/svg">
<mask id="mask0_331_1246" style="mask-type:alpha" maskUnits="userSpaceOnUse" x="0" y="0" width="25" height="25">
<rect x="0.830566" y="0.923462" width="24" height="24" fill="#DCDCDC"/>
</mask>
<g mask="url(#mask0_331_1246)">
<rect x="3.86768" y="18.9592" width="17.9259" height="3.96438" rx="1.98219" fill="#409F11"/>
<path fill-rule="evenodd" clip-rule="evenodd" d="M12.47 4.63428C11.8967 3.90565 11.2102 3.38129 10.5355 3.11694C9.80281 2.82982 8.78443 2.77064 8.14358 3.59026C7.57251 4.32072 7.61854 5.39886 7.96807 6.53724C8.12598 7.05162 8.38219 7.5579 8.74689 8.04599C8.76354 8.06826 8.78104 8.08949 8.79928 8.10969C8.81264 8.12444 8.82643 8.13862 8.84053 8.15222C8.85962 8.17065 8.87945 8.18804 8.89992 8.2044L6.44755 10.6567C6.1083 10.996 6.1083 11.546 6.44755 11.8853L11.7472 17.185C12.0866 17.5242 12.6366 17.5242 12.9759 17.185L19.6947 10.4661C20.0339 10.1268 20.0339 9.57677 19.6947 9.23752L14.395 3.93784C14.0558 3.59859 13.5057 3.59859 13.1665 3.93784L12.47 4.63428ZM12.0655 7.96107C12.0809 8.05959 12.0939 8.16012 12.1041 8.26262C12.1517 8.74005 12.5772 9.08849 13.0547 9.04088C13.5321 8.99329 13.8806 8.56766 13.833 8.09023C13.7646 7.40463 13.6007 6.76826 13.3684 6.19314L13.7808 5.78074L17.8518 9.8518L16.5382 11.1654H8.39608L11.9893 7.57219C12.0189 7.69815 12.0445 7.82779 12.0655 7.96107ZM11.2292 5.87518C10.8053 5.28181 10.3056 4.89299 9.90154 4.73466C9.70864 4.65907 9.58499 4.65427 9.52974 4.66148C9.52422 4.66223 9.51966 4.66302 9.51585 4.66379L9.50916 4.66535C9.48043 4.71289 9.33026 5.05413 9.629 6.02725C9.72296 6.33328 9.87949 6.65381 10.1216 6.98275L11.2292 5.87518Z" fill="black"/>
<path d="M18.7861 17.9604C19.4284 17.9604 19.9491 17.4397 19.9491 16.7974C19.9491 16.3997 19.5032 15.6621 19.1636 15.158C18.9803 14.8859 18.5918 14.8859 18.4085 15.158C18.069 15.6621 17.6231 16.3997 17.6231 16.7974C17.6231 17.4397 18.1438 17.9604 18.7861 17.9604Z" fill="black"/>
</g>
</svg>
