<svg width="25" height="25" viewBox="0 0 25 25" fill="none" xmlns="http://www.w3.org/2000/svg">
<mask id="mask0_331_1263" style="mask-type:alpha" maskUnits="userSpaceOnUse" x="0" y="0" width="25" height="25">
<rect x="0.461792" y="0.923462" width="24" height="24" fill="#DCDCDC"/>
</mask>
<g mask="url(#mask0_331_1263)">
<path fill-rule="evenodd" clip-rule="evenodd" d="M18.1392 17.4576C20.778 14.103 20.5508 9.2294 17.4578 6.13638C14.1196 2.79822 8.7074 2.79822 5.36923 6.13638C2.03107 9.47455 2.03107 14.8868 5.36923 18.2249C8.48171 21.3374 13.3973 21.5479 16.7536 18.8562L20.133 22.2357C20.5174 22.6201 21.1407 22.6201 21.5251 22.2357C21.9096 21.8512 21.9096 21.2279 21.5251 20.8435L18.1392 17.4576ZM16.0657 7.52852C18.635 10.0978 18.635 14.2635 16.0657 16.8328C13.4964 19.4021 9.33068 19.4021 6.76137 16.8328C4.19207 14.2635 4.19207 10.0978 6.76137 7.52852C9.33068 4.95921 13.4964 4.95921 16.0657 7.52852Z" fill="black"/>
</g>
</svg>
