<svg width="25" height="25" viewBox="0 0 25 25" fill="none" xmlns="http://www.w3.org/2000/svg">
<mask id="mask0_331_1010" style="mask-type:alpha" maskUnits="userSpaceOnUse" x="0" y="0" width="25" height="25">
<rect x="0.510498" y="0.862305" width="24" height="24" fill="#DCDCDC"/>
</mask>
<g mask="url(#mask0_331_1010)">
<path d="M11.0767 3.06494C10.0209 3.06494 9.16505 3.92084 9.16505 4.97662V6.41038C9.16505 6.93827 9.593 7.36622 10.1209 7.36622C10.6488 7.36622 11.0767 6.93827 11.0767 6.41038V4.97662H20.6351V15.4908H18.7234C18.1955 15.4908 17.7676 15.9188 17.7676 16.4467C17.7676 16.9746 18.1955 17.4025 18.7234 17.4025H20.6351C21.6909 17.4025 22.5468 16.5467 22.5468 15.4908V4.97662C22.5468 3.92084 21.6909 3.06494 20.6351 3.06494H11.0767Z" fill="black"/>
<path d="M9.16505 12.6233C9.69295 12.6233 10.1209 13.0513 10.1209 13.5792V15.0129H11.5547C12.0825 15.0129 12.5105 15.4409 12.5105 15.9688C12.5105 16.4967 12.0825 16.9246 11.5547 16.9246H10.1209V18.3584C10.1209 18.8863 9.69295 19.3142 9.16505 19.3142C8.63716 19.3142 8.20922 18.8863 8.20922 18.3584V16.9246H6.77546C6.24756 16.9246 5.81962 16.4967 5.81962 15.9688C5.81962 15.4409 6.24756 15.0129 6.77546 15.0129H8.20922V13.5792C8.20922 13.0513 8.63716 12.6233 9.16505 12.6233Z" fill="black"/>
<path fill-rule="evenodd" clip-rule="evenodd" d="M4.38586 9.27789C3.33007 9.27789 2.47418 10.1338 2.47418 11.1896V20.748C2.47418 21.8037 3.33007 22.6596 4.38586 22.6596H13.9442C15 22.6596 15.8559 21.8037 15.8559 20.748V11.1896C15.8559 10.1338 15 9.27789 13.9442 9.27789H4.38586ZM4.38586 20.748V11.1896H13.9442V20.748H4.38586Z" fill="black"/>
</g>
</svg>
