<svg width="25" height="25" viewBox="0 0 25 25" fill="none" xmlns="http://www.w3.org/2000/svg">
<mask id="mask0_331_1013" style="mask-type:alpha" maskUnits="userSpaceOnUse" x="0" y="0" width="25" height="25">
<rect x="0.60144" y="0.862305" width="24" height="24" fill="#DCDCDC"/>
</mask>
<g mask="url(#mask0_331_1013)">
<path fill-rule="evenodd" clip-rule="evenodd" d="M3.99896 3.78174C2.94317 3.78174 2.08728 4.63763 2.08728 5.69342V20.9868C2.08728 21.4594 2.43219 21.8593 2.89618 21.9313C2.91453 21.9342 2.933 21.9365 2.95157 21.9383C2.98641 21.9417 3.02105 21.9431 3.05539 21.9427H20.2482C20.7039 21.9427 21.0961 21.6211 21.1855 21.1743L23.0972 11.6159C23.1533 11.3351 23.0806 11.0439 22.8991 10.8225C22.7175 10.601 22.4463 10.4726 22.1599 10.4726H20.9651V8.56093C20.9651 7.50513 20.1092 6.64925 19.0534 6.64925H13.0492L10.9462 4.12566C10.7646 3.90774 10.4956 3.78174 10.2119 3.78174H3.99896ZM19.0534 10.4726V8.56093H12.6015C12.3178 8.56093 12.0488 8.43493 11.8672 8.21701L9.76422 5.69342H3.99896V12.9289L4.4138 11.2048C4.51715 10.7753 4.90136 10.4726 5.34312 10.4726H19.0534ZM4.26734 20.031H19.4646L20.994 12.3843H6.17901L4.26734 20.031Z" fill="black"/>
</g>
</svg>
