<svg width="25" height="25" viewBox="0 0 25 25" fill="none" xmlns="http://www.w3.org/2000/svg">
<mask id="mask0_331_1059" style="mask-type:alpha" maskUnits="userSpaceOnUse" x="0" y="0" width="25" height="25">
<rect x="0.521973" y="0.773926" width="24" height="24" fill="#DCDCDC"/>
</mask>
<g mask="url(#mask0_331_1059)">
<path fill-rule="evenodd" clip-rule="evenodd" d="M5.64329 2.77393C4.67923 2.77393 3.89771 3.55545 3.89771 4.51951V21.0283C3.89771 21.9924 4.67924 22.7739 5.64329 22.7739H11.1462C11.6038 22.7739 11.9747 22.403 11.9747 21.9455C11.9747 21.488 11.6038 21.1171 11.1462 21.1171H5.64329C5.59428 21.1171 5.55456 21.0773 5.55456 21.0283V4.51951C5.55456 4.47051 5.59429 4.43078 5.64329 4.43078H13.9865V8.18814C13.9865 8.64567 14.3574 9.01657 14.8149 9.01657H18.5722V12.3153C18.5722 12.7729 18.9431 13.1438 19.4006 13.1438C19.8582 13.1438 20.2291 12.7729 20.2291 12.3153V8.19822C20.2291 8.19486 20.2291 8.1915 20.2291 8.18814C20.2291 7.97179 20.1462 7.77481 20.0104 7.62726L15.8892 3.04816C15.7321 2.8736 15.5083 2.77393 15.2734 2.77393H5.64329ZM15.6434 5.25174V7.35971H17.5405L15.6434 5.25174Z" fill="black"/>
<path fill-rule="evenodd" clip-rule="evenodd" d="M13.8977 16.5313C13.4402 16.5313 13.0693 16.9022 13.0693 17.3597V21.0283C13.0693 21.4859 13.4402 21.8568 13.8977 21.8568H20.3178C20.7753 21.8568 21.1462 21.4859 21.1462 21.0283V17.3597C21.1462 16.9022 20.7753 16.5313 20.3178 16.5313H19.3119V15.984C19.3119 14.7666 18.3251 13.7798 17.1078 13.7798C15.8904 13.7798 14.9036 14.7666 14.9036 15.984V16.5313H13.8977ZM18.4835 18.1882L18.4776 18.1881H15.7379L15.732 18.1882L15.7261 18.1881H14.7261V20.1999H19.4894V18.1881H18.4894L18.4835 18.1882ZM17.6551 15.984V16.5313H16.5605V15.984C16.5605 15.6817 16.8055 15.4367 17.1078 15.4367C17.4101 15.4367 17.6551 15.6817 17.6551 15.984Z" fill="black"/>
</g>
</svg>
