<svg width="25" height="25" viewBox="0 0 25 25" fill="none" xmlns="http://www.w3.org/2000/svg">
<mask id="mask0_331_1350" style="mask-type:alpha" maskUnits="userSpaceOnUse" x="0" y="0" width="25" height="25">
<rect x="0.295898" y="0.13623" width="24" height="24" fill="#DCDCDC"/>
</mask>
<g mask="url(#mask0_331_1350)">
<path d="M13.0903 2.13623C13.7623 2.13623 14.3071 2.6315 14.3071 3.24244V9.27631C14.3071 9.88726 13.7623 10.3825 13.0903 10.3825C12.4184 10.3825 11.8736 9.88726 11.8736 9.27631V3.24244C11.8736 2.6315 12.4184 2.13623 13.0903 2.13623Z" fill="black"/>
<path d="M3.51263 4.02292C4.18462 4.02292 4.72937 4.51819 4.72937 5.12913V19.2082C4.72937 19.8191 4.18462 20.3144 3.51263 20.3144C2.84065 20.3144 2.2959 19.8191 2.2959 19.2082V5.12913C2.2959 4.51819 2.84065 4.02292 3.51263 4.02292Z" fill="black"/>
<path d="M7.65715 11.0624C6.98516 11.0624 6.44041 11.5577 6.44041 12.1687C6.44041 12.7796 6.98516 13.2749 7.65715 13.2749H18.1803L17.428 13.9671C16.9557 14.4017 16.9603 15.1021 17.4383 15.5315C17.9163 15.9609 18.6867 15.9567 19.159 15.5221L21.9447 12.959C22.4157 12.5255 22.4126 11.8274 21.9376 11.3975L19.1519 8.87622C18.6757 8.44519 17.9053 8.44677 17.4312 8.87974C16.9571 9.31271 16.9588 10.0131 17.4351 10.4442L18.1182 11.0624H7.65715Z" fill="black"/>
<path d="M14.3071 14.9961C14.3071 14.3852 13.7623 13.8899 13.0903 13.8899C12.4184 13.8899 11.8736 14.3852 11.8736 14.9961V21.03C11.8736 21.641 12.4184 22.1362 13.0903 22.1362C13.7623 22.1362 14.3071 21.641 14.3071 21.03V14.9961Z" fill="black"/>
</g>
</svg>
