<svg width="25" height="25" viewBox="0 0 25 25" fill="none" xmlns="http://www.w3.org/2000/svg">
<mask id="mask0_331_1022" style="mask-type:alpha" maskUnits="userSpaceOnUse" x="0" y="0" width="25" height="25">
<rect x="0.783203" y="0.862305" width="24" height="24" fill="#DCDCDC"/>
</mask>
<g mask="url(#mask0_331_1022)">
<path d="M10.8716 18.1193C10.8716 17.5915 11.2995 17.1635 11.8274 17.1635H13.7391C14.267 17.1635 14.6949 17.5915 14.6949 18.1193C14.6949 18.6472 14.267 19.0752 13.7391 19.0752H11.8274C11.2995 19.0752 10.8716 18.6472 10.8716 18.1193Z" fill="black"/>
<path fill-rule="evenodd" clip-rule="evenodd" d="M8.00408 3.78177C8.00408 3.25387 8.43202 2.82593 8.95991 2.82593H16.6066C17.1345 2.82593 17.5625 3.25387 17.5625 3.78177V6.64928H21.3858C22.4416 6.64928 23.2975 7.50516 23.2975 8.56096V16.2077C23.2975 17.2635 22.4416 18.1193 21.3858 18.1193H17.5625V21.9427C17.5625 22.4706 17.1345 22.8985 16.6066 22.8985H8.95991C8.43202 22.8985 8.00408 22.4706 8.00408 21.9427V18.1193H4.18072C3.12494 18.1193 2.26904 17.2635 2.26904 16.2077V8.56096C2.26904 7.50515 3.12494 6.64928 4.18072 6.64928H8.00408V3.78177ZM8.00408 15.2518H7.52616C6.99826 15.2518 6.57032 14.8239 6.57032 14.296C6.57032 13.7681 6.99826 13.3402 7.52616 13.3402H18.0404C18.5683 13.3402 18.9962 13.7681 18.9962 14.296C18.9962 14.8239 18.5683 15.2518 18.0404 15.2518H17.5625V16.2077H21.3858V8.56096H19.4741V10.4726C19.4741 11.0005 19.0462 11.4285 18.5183 11.4285H7.04824C6.52034 11.4285 6.0924 11.0005 6.0924 10.4726V8.56096H4.18072V16.2077H8.00408V15.2518ZM9.91575 15.2518V20.9869H15.6508V15.2518H9.91575ZM15.6508 7.60512C15.6508 8.13302 16.0787 8.56096 16.6066 8.56096H17.5625V9.5168H8.00408V8.56096H8.95991C9.48781 8.56096 9.91575 8.13302 9.91575 7.60512V4.73761H15.6508V7.60512Z" fill="black"/>
</g>
</svg>
