<svg width="25" height="25" viewBox="0 0 25 25" fill="none" xmlns="http://www.w3.org/2000/svg">
<mask id="mask0_331_1025" style="mask-type:alpha" maskUnits="userSpaceOnUse" x="0" y="0" width="25" height="25">
<rect x="0.965088" y="0.862305" width="24" height="24" fill="#DCDCDC"/>
</mask>
<g mask="url(#mask0_331_1025)">
<path fill-rule="evenodd" clip-rule="evenodd" d="M3.88458 4.25982C3.88458 3.20403 4.74047 2.34814 5.79626 2.34814H15.8326C16.1035 2.34814 16.3618 2.46315 16.543 2.66456L20.8419 7.44102C20.9958 7.6107 21.0897 7.83598 21.0897 8.08318V12.3845C21.0897 12.9123 20.6617 13.3403 20.1338 13.3403C19.6059 13.3403 19.178 12.9123 19.178 12.3845V9.03902H15.3546C14.8268 9.03902 14.3988 8.61107 14.3988 8.08318V4.25982H5.79626V21.4649H11.5313C12.0592 21.4649 12.4871 21.8929 12.4871 22.4208C12.4871 22.9487 12.0592 23.3766 11.5313 23.3766H5.79626C4.74048 23.3766 3.88458 22.5207 3.88458 21.4649V4.25982ZM16.3105 5.26384V7.12734H17.9876L16.3105 5.26384Z" fill="black"/>
<path fill-rule="evenodd" clip-rule="evenodd" d="M19.8539 15.054L21.7656 16.9657C22.1388 17.339 22.1388 17.9442 21.7656 18.3174L16.9864 23.0966C16.8071 23.2759 16.564 23.3766 16.3105 23.3766H14.3988C13.8709 23.3766 13.443 22.9487 13.443 22.4208V20.5091C13.443 20.2556 13.5437 20.0125 13.7229 19.8332L18.5021 15.054C18.8754 14.6807 19.4806 14.6807 19.8539 15.054ZM15.3546 20.905V21.4649H15.9146L19.7379 17.6416L19.178 17.0816L15.3546 20.905Z" fill="black"/>
</g>
</svg>
