<svg width="29" height="29" viewBox="0 0 29 29" fill="none" xmlns="http://www.w3.org/2000/svg">
<mask id="mask0_331_968" style="mask-type:alpha" maskUnits="userSpaceOnUse" x="0" y="0" width="29" height="29">
<rect x="0.521973" y="0.773926" width="28" height="28" fill="#DCDCDC"/>
</mask>
<g mask="url(#mask0_331_968)">
<path fill-rule="evenodd" clip-rule="evenodd" d="M16.8914 6.4488C16.8914 3.86694 18.9844 1.77393 21.5663 1.77393C24.1481 1.77393 26.2412 3.86694 26.2412 6.4488C26.2412 9.03065 24.1481 11.1237 21.5663 11.1237C20.3161 11.1237 19.1805 10.6329 18.3417 9.83352L12.0199 13.6637C12.1065 14.0195 12.1525 14.3914 12.1525 14.7739C12.1525 15.1135 12.1163 15.4447 12.0475 15.7637L18.4956 19.574C19.317 18.8579 20.391 18.4242 21.5663 18.4242C24.1481 18.4242 26.2412 20.5172 26.2412 23.099C26.2412 25.6809 24.1481 27.7739 21.5663 27.7739C18.9844 27.7739 16.8914 25.6809 16.8914 23.099C16.8914 22.7596 16.9276 22.4286 16.9963 22.1097L10.548 18.2993C9.72662 19.0152 8.65275 19.4488 7.47761 19.4488C4.89576 19.4488 2.80273 17.3558 2.80273 14.7739C2.80273 12.1921 4.89576 10.0991 7.47761 10.0991C8.6082 10.0991 9.64505 10.5004 10.4535 11.1684L16.9562 7.22865C16.9136 6.97504 16.8914 6.71451 16.8914 6.4488ZM21.5663 4.71974C20.6114 4.71974 19.8372 5.49387 19.8372 6.4488C19.8372 7.40372 20.6114 8.17787 21.5663 8.17787C22.5212 8.17787 23.2953 7.40372 23.2953 6.4488C23.2953 5.49387 22.5212 4.71974 21.5663 4.71974ZM7.47761 13.0449C6.52269 13.0449 5.74855 13.819 5.74855 14.7739C5.74855 15.7288 6.52269 16.503 7.47761 16.503C8.43253 16.503 9.20667 15.7288 9.20667 14.7739C9.20667 13.819 8.43253 13.0449 7.47761 13.0449ZM19.8372 23.099C19.8372 22.1441 20.6114 21.37 21.5663 21.37C22.5212 21.37 23.2953 22.1441 23.2953 23.099C23.2953 24.054 22.5212 24.8281 21.5663 24.8281C20.6114 24.8281 19.8372 24.054 19.8372 23.099Z" fill="black"/>
</g>
</svg>
