<svg width="25" height="25" viewBox="0 0 25 25" fill="none" xmlns="http://www.w3.org/2000/svg">
<mask id="mask0_331_1436" style="mask-type:alpha" maskUnits="userSpaceOnUse" x="0" y="0" width="25" height="25">
<rect x="0.516479" y="0.0263672" width="24" height="24" fill="#DCDCDC"/>
</mask>
<g mask="url(#mask0_331_1436)">
<path d="M7.97103 9.92855C7.46895 9.92855 7.06193 10.346 7.06193 10.861C7.06193 11.3759 7.46895 11.7934 7.97103 11.7934H17.0619C17.564 11.7934 17.971 11.3759 17.971 10.861C17.971 10.346 17.564 9.92855 17.0619 9.92855H7.97103Z" fill="black"/>
<path fill-rule="evenodd" clip-rule="evenodd" d="M3.42557 2.93555C2.92349 2.93555 2.51648 3.353 2.51648 3.86795V17.854C2.51648 18.3689 2.92349 18.7864 3.42557 18.7864H6.60739V20.185C6.60739 20.5081 6.77053 20.8082 7.03854 20.9781C7.30656 21.148 7.64123 21.1634 7.92304 21.0189L12.2765 18.7864H21.6074C22.1095 18.7864 22.5165 18.3689 22.5165 17.854V3.86795C22.5165 3.353 22.1095 2.93555 21.6074 2.93555H3.42557ZM4.33466 16.9216V4.80035H20.6983V16.9216H12.0619C11.9208 16.9216 11.7816 16.9553 11.6554 17.02L8.42557 18.6763V17.854C8.42557 17.339 8.01856 16.9216 7.51648 16.9216H4.33466Z" fill="black"/>
</g>
</svg>
