<svg width="29" height="29" viewBox="0 0 29 29" fill="none" xmlns="http://www.w3.org/2000/svg">
<mask id="mask0_331_974" style="mask-type:alpha" maskUnits="userSpaceOnUse" x="0" y="0" width="29" height="29">
<rect x="0.903076" y="0.862305" width="28" height="28" fill="#DCDCDC"/>
</mask>
<g mask="url(#mask0_331_974)">
<path fill-rule="evenodd" clip-rule="evenodd" d="M2.34324 2.0072C2.57062 1.96347 2.85503 1.93799 3.20377 1.93799H12.2031C12.5512 1.93799 12.8378 1.96337 13.0682 2.01654C13.3059 2.0714 13.4973 2.17429 13.643 2.32971C13.7892 2.48564 13.8805 2.69341 13.9338 2.9331L13.9348 2.93755C13.9784 3.17311 14.0038 3.47401 14.0038 3.83905V12.8718C14.0038 13.2208 13.9782 13.5048 13.9347 13.7398C13.8887 13.9789 13.786 14.1797 13.6401 14.3256C13.4936 14.472 13.3029 14.5647 13.0777 14.6188C12.855 14.6722 12.5679 14.6976 12.2365 14.6976H3.20377C2.86615 14.6976 2.58915 14.6808 2.35997 14.6367C2.12747 14.592 1.93404 14.5088 1.78501 14.3606C1.63487 14.2196 1.54308 14.0172 1.48999 13.7871C1.43711 13.558 1.40308 13.2552 1.40308 12.8718V3.76377C1.40308 3.40677 1.42855 3.11433 1.47212 2.87902C1.51811 2.63991 1.62084 2.43919 1.76674 2.29329C1.91563 2.1444 2.10872 2.06123 2.33863 2.00817L2.34324 2.0072ZM3.75088 3.96701C3.61668 3.97454 3.54889 4.00781 3.51322 4.04445C3.47465 4.10257 3.44888 4.18252 3.44882 4.29036L3.46485 7.20709H6.714V3.96701H3.75088ZM8.77647 3.97537V7.20709H11.9413V4.19032C11.9413 4.11157 11.9352 4.05639 11.9263 4.02063C11.9224 4.00494 11.9187 3.99622 11.9167 3.99202C11.8991 3.98314 11.8649 3.97537 11.7849 3.97537H8.77647ZM3.4662 9.22775L3.48228 12.4279C3.48228 12.5016 3.4882 12.5559 3.49742 12.5936C3.50424 12.6214 3.51173 12.6359 3.51632 12.6427C3.51895 12.6442 3.52256 12.646 3.52734 12.648C3.53835 12.6526 3.55387 12.6575 3.57471 12.662C3.61664 12.6711 3.67402 12.6769 3.74741 12.6769H6.72236V9.22775H3.4662ZM8.77647 9.22775V12.6769H11.6762C11.8081 12.6769 11.8786 12.6611 11.909 12.6461C11.9112 12.6427 11.9166 12.6333 11.9226 12.6134C11.9335 12.5772 11.9413 12.5217 11.9413 12.4452V9.22775H8.77647Z" fill="black"/>
<path fill-rule="evenodd" clip-rule="evenodd" d="M16.7426 15.096C16.9699 15.0523 17.2543 15.0268 17.6031 15.0268H26.6024C26.9505 15.0268 27.2371 15.0522 27.4675 15.1054C27.7053 15.1602 27.8966 15.2631 28.0423 15.4185C28.1885 15.5745 28.2799 15.7822 28.3331 16.0219L28.3341 16.0264C28.3777 16.2619 28.4031 16.5628 28.4031 16.9279V25.9606C28.4031 26.3096 28.3776 26.5936 28.334 26.8287C28.288 27.0678 28.1853 27.2685 28.0394 27.4144C27.893 27.5609 27.7022 27.6535 27.477 27.7076C27.2543 27.7611 26.9672 27.7864 26.6358 27.7864H17.6031C17.2655 27.7864 16.9885 27.7696 16.7593 27.7256C16.5268 27.6809 16.3334 27.5977 16.1843 27.4494C16.0342 27.3084 15.9424 27.106 15.8893 26.876C15.8364 26.6468 15.8024 26.344 15.8024 25.9606V16.8526C15.8024 16.4956 15.8279 16.2032 15.8714 15.9679C15.9174 15.7288 16.0202 15.528 16.1661 15.3821C16.3149 15.2332 16.508 15.1501 16.7379 15.097L16.7426 15.096ZM18.1502 17.0558C18.016 17.0634 17.9482 17.0967 17.9125 17.1333C17.874 17.1914 17.8482 17.2714 17.8481 17.3792L17.8642 20.2959H21.1133V17.0558H18.1502ZM23.1758 17.0642V20.2959H26.3406V17.2792C26.3406 17.2004 26.3345 17.1452 26.3256 17.1095C26.3217 17.0938 26.318 17.0851 26.316 17.0809C26.2984 17.072 26.2642 17.0642 26.1842 17.0642H23.1758ZM17.8655 22.3166L17.8816 25.5167C17.8816 25.5904 17.8875 25.6448 17.8967 25.6824C17.9036 25.7103 17.911 25.7247 17.9156 25.7316L17.9209 25.7343L17.9267 25.7368C17.9377 25.7414 17.9532 25.7464 17.974 25.7509C18.016 25.7599 18.0733 25.7658 18.1467 25.7658H21.1217V22.3166H17.8655ZM23.1758 22.3166V25.7658H26.0755C26.2075 25.7658 26.2779 25.7499 26.3083 25.735C26.3106 25.7315 26.316 25.7222 26.322 25.7022C26.3328 25.6661 26.3406 25.6106 26.3406 25.5341V22.3166H23.1758Z" fill="black"/>
<path d="M17.4624 4.62517C17.4624 3.91845 18.0353 3.34555 18.742 3.34555H22.5809C24.701 3.34555 26.4198 5.06426 26.4198 7.18443V11.0233C26.4198 11.73 25.8469 12.3029 25.1401 12.3029C24.4334 12.3029 23.8605 11.73 23.8605 11.0233V7.18443C23.8605 6.47772 23.2876 5.9048 22.5809 5.9048H18.742C18.0353 5.9048 17.4624 5.33189 17.4624 4.62517Z" fill="black"/>
<path d="M5.94574 18.7011C5.94574 17.9943 5.37283 17.4214 4.66611 17.4214C3.95939 17.4214 3.38648 17.9943 3.38648 18.7011V22.5399C3.38648 24.6601 5.1052 26.3788 7.22536 26.3788H11.0642C11.771 26.3788 12.3439 25.8059 12.3439 25.0992C12.3439 24.3925 11.771 23.8196 11.0642 23.8196H7.22536C6.51865 23.8196 5.94574 23.2467 5.94574 22.5399V18.7011Z" fill="black"/>
</g>
</svg>
