<svg width="25" height="25" viewBox="0 0 25 25" fill="none" xmlns="http://www.w3.org/2000/svg">
<mask id="mask0_331_1255" style="mask-type:alpha" maskUnits="userSpaceOnUse" x="0" y="0" width="25" height="25">
<rect x="0.587402" y="0.817383" width="24" height="24" fill="#DCDCDC"/>
</mask>
<g mask="url(#mask0_331_1255)">
<path fill-rule="evenodd" clip-rule="evenodd" d="M2.81921 21.5154C2.88942 21.848 3.01785 22.1302 3.22346 22.3358L3.23256 22.3445C3.45064 22.5428 3.72831 22.663 4.04928 22.7175C4.35856 22.7855 4.73362 22.8174 5.1696 22.8174H20.0527C20.49 22.8174 20.8635 22.7776 21.1648 22.6903C21.4844 22.6178 21.7548 22.4789 21.9557 22.26C22.1565 22.0572 22.2847 21.7867 22.3552 21.4693C22.4244 21.1582 22.4566 20.7726 22.4566 20.3184V5.43527C22.4566 4.95022 22.4245 4.54182 22.3559 4.21587C22.2857 3.88248 22.1583 3.59754 21.96 3.37935C21.7582 3.15741 21.4855 3.01687 21.1629 2.94407C20.8474 2.85736 20.459 2.81738 20.0052 2.81738H5.19337C4.74245 2.81738 4.35918 2.84917 4.04924 2.91727C3.72233 2.97295 3.44158 3.10458 3.22346 3.3227C3.01785 3.52832 2.88942 3.81054 2.81921 4.1431C2.75018 4.4545 2.71814 4.84781 2.71814 5.31639V20.3184C2.71814 20.802 2.75008 21.2035 2.81921 21.5154ZM19.9993 5.15385L20.0138 5.17562L20.0323 5.19411C20.0554 5.21715 20.0738 5.24962 20.0738 5.31639V11.4952H13.8501V5.12884H19.9804C19.9853 5.13432 19.9917 5.1424 19.9993 5.15385ZM5.1696 5.12884H11.4673V11.4952H5.10092V5.31639C5.10092 5.1905 5.1262 5.14308 5.13334 5.13338C5.13573 5.13242 5.14618 5.12884 5.1696 5.12884ZM20.0052 20.5059H13.8501V13.8067H20.0738V20.3184C20.0738 20.4443 20.0486 20.4917 20.0414 20.5014C20.039 20.5023 20.0286 20.5059 20.0052 20.5059ZM11.4673 13.8067V20.5059H5.19337C5.1614 20.5059 5.14565 20.5008 5.1401 20.4985C5.13616 20.4968 5.13512 20.4958 5.13325 20.4935C5.12638 20.4848 5.10092 20.4413 5.10092 20.3184V13.8067H11.4673Z" fill="black"/>
</g>
</svg>
