<svg width="25" height="25" viewBox="0 0 25 25" fill="none" xmlns="http://www.w3.org/2000/svg">
<mask id="mask0_331_1229" style="mask-type:alpha" maskUnits="userSpaceOnUse" x="0" y="0" width="25" height="25">
<rect x="0.466797" y="0.899414" width="24" height="24" fill="#DCDCDC"/>
</mask>
<g mask="url(#mask0_331_1229)">
<path d="M9.42737 13.4431L8.48964 15.7975C8.4134 15.9886 8.33716 16.1729 8.26092 16.3503C8.18468 16.5277 8.0932 16.6915 7.98646 16.8417C7.89498 16.9918 7.78062 17.1078 7.64339 17.1897C7.52141 17.2852 7.37656 17.333 7.20883 17.333C6.90388 17.333 6.66754 17.2443 6.49982 17.0669C6.33209 16.9031 6.33209 16.5892 6.49982 16.1251L11.3028 3.61598C11.3791 3.3976 11.5087 3.22699 11.6916 3.10415C11.8899 2.96766 12.1415 2.89941 12.4464 2.89941C12.7666 2.89941 13.0258 2.96766 13.224 3.10415C13.4223 3.22699 13.5595 3.3976 13.6357 3.61598L18.4616 16.166C18.5836 16.4936 18.5912 16.7734 18.4845 17.0054C18.3777 17.2238 18.1262 17.333 17.7297 17.333C17.4705 17.3467 17.257 17.2784 17.0893 17.1283C16.9368 16.9918 16.8225 16.8075 16.7462 16.5755L15.4883 13.4431H9.42737ZM15.0766 12.01L12.4693 4.98768L9.86193 12.01H15.0766Z" fill="black"/>
<rect x="3.78223" y="19.0583" width="17.3687" height="3.84116" rx="1.92058" fill="#409F11"/>
</g>
</svg>
