<svg width="25" height="25" viewBox="0 0 25 25" fill="none" xmlns="http://www.w3.org/2000/svg">
<mask id="mask0_331_1329" style="mask-type:alpha" maskUnits="userSpaceOnUse" x="0" y="0" width="25" height="25">
<rect x="0.641968" y="0.13623" width="24" height="24" fill="#DCDCDC"/>
</mask>
<g mask="url(#mask0_331_1329)">
<path d="M3.28553 3.19568C2.65396 3.19568 2.14197 3.70767 2.14197 4.33924C2.14197 4.97082 2.65396 5.48281 3.28553 5.48281H21.9984C22.63 5.48281 23.142 4.97082 23.142 4.33924C23.142 3.70767 22.63 3.19568 21.9984 3.19568H3.28553Z" fill="black"/>
<path d="M7.44395 8.3937C6.81237 8.3937 6.30038 8.90569 6.30038 9.53726C6.30038 10.1688 6.81237 10.6808 7.44395 10.6808H21.9984C22.63 10.6808 23.142 10.1688 23.142 9.53726C23.142 8.90569 22.63 8.3937 21.9984 8.3937H7.44395Z" fill="black"/>
<path d="M2.14197 14.7353C2.14197 14.1037 2.65396 13.5917 3.28553 13.5917H21.9984C22.63 13.5917 23.142 14.1037 23.142 14.7353C23.142 15.3669 22.63 15.8788 21.9984 15.8788H3.28553C2.65396 15.8788 2.14197 15.3669 2.14197 14.7353Z" fill="black"/>
<path d="M7.44395 18.7897C6.81237 18.7897 6.30038 19.3017 6.30038 19.9333C6.30038 20.5649 6.81237 21.0769 7.44395 21.0769H21.9984C22.63 21.0769 23.142 20.5649 23.142 19.9333C23.142 19.3017 22.63 18.7897 21.9984 18.7897H7.44395Z" fill="black"/>
</g>
</svg>
