<svg width="17" height="17" viewBox="0 0 17 17" fill="none" xmlns="http://www.w3.org/2000/svg">
<mask id="mask0_102_827" style="mask-type:alpha" maskUnits="userSpaceOnUse" x="0" y="0" width="17" height="17">
<rect x="0.867126" y="0.235352" width="16" height="16" fill="#DCDCDC"/>
</mask>
<g mask="url(#mask0_102_827)">
<path d="M9.5933 2.29443C9.5933 1.89343 9.26823 1.56836 8.86723 1.56836C8.46623 1.56836 8.14116 1.89343 8.14116 2.29443V8.1323L7.40044 7.39158C7.11689 7.10803 6.65717 7.10803 6.37362 7.39158C6.09007 7.67513 6.09007 8.13485 6.37362 8.4184L8.35325 10.398C8.35502 10.3998 8.35679 10.4016 8.35858 10.4033C8.42652 10.47 8.50433 10.5207 8.58726 10.5553C8.67341 10.5914 8.768 10.6113 8.86723 10.6113C9.06532 10.6113 9.24488 10.5319 9.37588 10.4033C9.37767 10.4016 9.37946 10.3998 9.38124 10.398L11.3608 8.4184C11.6444 8.13485 11.6444 7.67513 11.3608 7.39158C11.0773 7.10803 10.6176 7.10803 10.334 7.39158L9.5933 8.1323V2.29443Z" fill="black"/>
<path d="M2.92663 11.284C2.52564 11.284 2.20056 11.6091 2.20056 12.0101C2.20056 12.4111 2.52564 12.7362 2.92663 12.7362H14.8078C15.2088 12.7362 15.5339 12.4111 15.5339 12.0101C15.5339 11.6091 15.2088 11.284 14.8078 11.284H2.92663Z" fill="black"/>
<path d="M2.92663 13.4495C2.52564 13.4495 2.20056 13.7746 2.20056 14.1756C2.20056 14.5766 2.52564 14.9017 2.92663 14.9017H14.8078C15.2088 14.9017 15.5339 14.5766 15.5339 14.1756C15.5339 13.7746 15.2088 13.4495 14.8078 13.4495H2.92663Z" fill="black"/>
</g>
</svg>
