<svg width="17" height="17" viewBox="0 0 17 17" fill="none" xmlns="http://www.w3.org/2000/svg">
<mask id="mask0_102_830" style="mask-type:alpha" maskUnits="userSpaceOnUse" x="0" y="0" width="17" height="17">
<rect x="0.206909" y="0.116211" width="15.9998" height="15.9998" fill="#DCDCDC"/>
</mask>
<g mask="url(#mask0_102_830)">
<path d="M7.71977 9.47387C7.71977 9.82863 8.02007 10.1162 8.3905 10.1162C8.76094 10.1162 9.06123 9.82863 9.06123 9.47388L9.06123 4.30928L9.74549 4.96457C10.0074 5.21542 10.4321 5.21542 10.6941 4.96457C10.956 4.71372 10.956 4.30702 10.6941 4.05617L8.86531 2.30485C8.86368 2.30328 8.86203 2.30172 8.86038 2.30017C8.79762 2.24114 8.72574 2.19632 8.64914 2.1657C8.56954 2.13382 8.48217 2.11621 8.3905 2.11621C8.20751 2.11621 8.04164 2.18639 7.92062 2.30017C7.91896 2.30173 7.91731 2.3033 7.91567 2.30488L6.08696 4.05617C5.82502 4.30702 5.82502 4.71372 6.08696 4.96457C6.34889 5.21542 6.77358 5.21542 7.03551 4.96457L7.71977 4.30928L7.71977 9.47387Z" fill="black"/>
<path d="M2.26622 13.3301C1.86523 13.3301 1.54016 13.6551 1.54016 14.0561C1.54016 14.4571 1.86523 14.7822 2.26622 14.7822H14.1473C14.5483 14.7822 14.8733 14.4571 14.8733 14.0561C14.8733 13.6551 14.5483 13.3301 14.1473 13.3301H2.26622Z" fill="black"/>
</g>
</svg>
