<svg width="17" height="17" viewBox="0 0 17 17" fill="none" xmlns="http://www.w3.org/2000/svg">
<mask id="mask0_102_827" style="mask-type:alpha" maskUnits="userSpaceOnUse" x="0" y="0" width="17" height="17">
<rect x="0.867126" y="0.115723" width="16" height="16" fill="#DCDCDC"/>
</mask>
<g mask="url(#mask0_102_827)">
<path d="M9.5933 2.1748C9.5933 1.7738 9.26823 1.44873 8.86723 1.44873C8.46623 1.44873 8.14116 1.7738 8.14116 2.1748V8.01267L7.40044 7.27195C7.11689 6.9884 6.65717 6.9884 6.37362 7.27195C6.09007 7.5555 6.09007 8.01523 6.37362 8.29877L8.35325 10.2784C8.35502 10.2802 8.35679 10.2819 8.35858 10.2837C8.42652 10.3504 8.50433 10.4011 8.58726 10.4357C8.67341 10.4717 8.768 10.4916 8.86723 10.4916C9.06532 10.4916 9.24488 10.4123 9.37588 10.2837C9.37767 10.2819 9.37946 10.2802 9.38124 10.2784L11.3608 8.29877C11.6444 8.01523 11.6444 7.5555 11.3608 7.27195C11.0773 6.9884 10.6176 6.9884 10.334 7.27195L9.5933 8.01267V2.1748Z" fill="black"/>
<path d="M2.92663 13.3299C2.52564 13.3299 2.20056 13.655 2.20056 14.056C2.20056 14.457 2.52564 14.7821 2.92663 14.7821H14.8078C15.2088 14.7821 15.5339 14.457 15.5339 14.056C15.5339 13.655 15.2088 13.3299 14.8078 13.3299H2.92663Z" fill="black"/>
</g>
</svg>
