<svg width="17" height="17" viewBox="0 0 17 17" fill="none" xmlns="http://www.w3.org/2000/svg">
<mask id="mask0_102_830" style="mask-type:alpha" maskUnits="userSpaceOnUse" x="0" y="0" width="17" height="17">
<rect x="0.206909" y="0.23584" width="15.9998" height="15.9998" fill="#DCDCDC"/>
</mask>
<g mask="url(#mask0_102_830)">
<path d="M7.71977 9.5935C7.71977 9.94826 8.02007 10.2358 8.3905 10.2358C8.76094 10.2358 9.06123 9.94826 9.06123 9.5935L9.06123 4.42891L9.74549 5.0842C10.0074 5.33505 10.4321 5.33505 10.6941 5.0842C10.956 4.83335 10.956 4.42665 10.6941 4.1758L8.86531 2.42448C8.86368 2.42291 8.86203 2.42135 8.86038 2.4198C8.79762 2.36077 8.72574 2.31595 8.64914 2.28533C8.56954 2.25345 8.48217 2.23584 8.3905 2.23584C8.20751 2.23584 8.04164 2.30602 7.92062 2.4198C7.91896 2.42136 7.91731 2.42293 7.91567 2.42451L6.08696 4.1758C5.82502 4.42665 5.82502 4.83335 6.08696 5.0842C6.34889 5.33505 6.77358 5.33505 7.03551 5.0842L7.71977 4.42891L7.71977 9.5935Z" fill="black"/>
<path d="M2.26622 11.3394C1.86523 11.3394 1.54016 11.6644 1.54016 12.0654C1.54016 12.4664 1.86523 12.7915 2.26622 12.7915H14.1473C14.5483 12.7915 14.8733 12.4664 14.8733 12.0654C14.8733 11.6644 14.5483 11.3394 14.1473 11.3394H2.26622Z" fill="black"/>
<path d="M2.26622 13.4497C1.86523 13.4497 1.54016 13.7748 1.54016 14.1758C1.54016 14.5768 1.86523 14.9019 2.26622 14.9019H14.1473C14.5483 14.9019 14.8733 14.5768 14.8733 14.1758C14.8733 13.7748 14.5483 13.4497 14.1473 13.4497H2.26622Z" fill="black"/>
</g>
</svg>
