<svg width="17" height="17" viewBox="0 0 17 17" fill="none" xmlns="http://www.w3.org/2000/svg">
<mask id="mask0_102_790" style="mask-type:alpha" maskUnits="userSpaceOnUse" x="0" y="0" width="17" height="17">
<rect x="0.874756" y="0.236328" width="16" height="16" fill="#DCDCDC"/>
</mask>
<g mask="url(#mask0_102_790)">
<path d="M2.80062 1.51611C3.1388 1.51611 3.41294 1.79026 3.41294 2.12844V14.3438C3.41294 14.682 3.1388 14.9562 2.80062 14.9562C2.46244 14.9562 2.18829 14.682 2.18829 14.3438V2.12844C2.18829 1.79026 2.46244 1.51611 2.80062 1.51611Z" fill="black"/>
<path d="M14.9488 1.51611C15.287 1.51611 15.5612 1.79026 15.5612 2.12844V14.3438C15.5612 14.682 15.287 14.9562 14.9488 14.9562C14.6107 14.9562 14.3365 14.682 14.3365 14.3438V2.12844C14.3365 1.79026 14.6107 1.51611 14.9488 1.51611Z" fill="black"/>
<path d="M5.67587 5.43484C5.67587 5.09666 5.95002 4.82251 6.28819 4.82251H9.23355C10.7662 4.82251 12.0086 6.06494 12.0086 7.59754C12.0086 9.13014 10.7662 10.3726 9.23355 10.3726H8.14973L9.07404 11.2969C9.31316 11.536 9.31316 11.9237 9.07404 12.1628C8.83491 12.402 8.4472 12.402 8.20808 12.1628L6.19073 10.1455C5.9516 9.90635 5.9516 9.51865 6.19073 9.27952L8.20808 7.26217C8.4472 7.02304 8.83491 7.02304 9.07403 7.26217C9.31316 7.5013 9.31316 7.889 9.07403 8.12813L8.05425 9.14791H9.23355C10.0898 9.14791 10.7839 8.45379 10.7839 7.59754C10.7839 6.74129 10.0898 6.04716 9.23355 6.04716H6.28819C5.95002 6.04716 5.67587 5.77302 5.67587 5.43484Z" fill="black"/>
</g>
</svg>
