<svg width="17" height="16" viewBox="0 0 17 16" fill="none" xmlns="http://www.w3.org/2000/svg">
<path d="M12.7096 13.1932C11.8195 13.1932 11.0856 12.7599 11.0856 11.682C11.0856 11.1957 11.2679 10.8006 11.6135 10.5165C11.6276 10.505 11.636 10.4878 11.636 10.4696V10.4696C11.636 10.4542 11.63 10.4394 11.6195 10.4281C11.4241 10.2169 11.2826 9.90342 11.2826 9.40996C11.2826 8.9952 11.4527 8.58044 11.6966 8.30544C11.7056 8.29529 11.7107 8.28226 11.7107 8.26869V8.26869C11.7107 8.25508 11.7057 8.24209 11.6966 8.23191C11.4303 7.93219 11.1875 7.37947 11.1875 6.69409C11.1875 5.22519 11.969 4.50659 12.8048 4.50659C12.9251 4.50659 13.0414 4.52179 13.1507 4.55056C13.3322 4.59833 13.5146 4.65454 13.7023 4.65454H14.155C14.5314 4.65454 14.8366 4.95971 14.8366 5.33615V5.77118C14.8366 5.90736 14.7262 6.01776 14.59 6.01776V6.01776C14.419 6.01776 14.2941 6.19014 14.319 6.35926C14.3367 6.47941 14.3473 6.61199 14.3473 6.74692C14.3473 8.15242 13.661 8.76534 12.8048 8.76534C12.7976 8.76534 12.7904 8.76524 12.7831 8.76504C12.5222 8.75806 12.2272 8.82132 12.2272 9.08236V9.08236C12.2272 9.35712 12.3835 9.48393 12.798 9.48393H13.4096C14.3609 9.48393 14.8977 9.93834 14.8977 11.0268C14.8977 12.2949 14.0551 13.1932 12.7096 13.1932ZM12.8048 7.6346C13.0902 7.6346 13.294 7.31757 13.294 6.69409C13.294 6.08116 13.0902 5.76414 12.8048 5.76414C12.5262 5.76414 12.3155 6.08116 12.3155 6.69409C12.3155 7.31757 12.5262 7.6346 12.8048 7.6346ZM12.8999 12.0202C13.396 12.0202 13.7425 11.7348 13.7425 11.3544C13.7425 10.9951 13.5387 10.9211 13.1785 10.9211H12.8116V10.9211C12.4849 10.9211 12.0847 11.0391 12.0779 11.3657C12.0778 11.3725 12.0777 11.3793 12.0777 11.3861C12.0777 11.8088 12.4039 12.0202 12.8999 12.0202Z" fill="black"/>
<path d="M8.78465 10.6675C8.37759 10.6675 8.02591 10.383 7.94088 9.98493L6.95249 5.3574C6.87521 4.99557 7.15109 4.65454 7.52108 4.65454V4.65454C7.80754 4.65454 8.05132 4.86319 8.09553 5.14622L8.45124 7.42325L8.6721 8.93636C8.68044 8.99345 8.72939 9.03578 8.78709 9.03578V9.03578C8.84403 9.03578 8.89258 8.99452 8.90177 8.93832L9.1495 7.42325L9.50231 5.12668C9.54404 4.85507 9.77772 4.65454 10.0525 4.65454V4.65454C10.4055 4.65454 10.6694 4.97891 10.5975 5.32453L9.62939 9.98036C9.54616 10.3806 9.19347 10.6675 8.78465 10.6675V10.6675Z" fill="black"/>
<path d="M4.10112 7.06522C4.07897 7.24416 4.21854 7.40208 4.39885 7.40208H4.75015C4.93141 7.40208 5.07127 7.24258 5.04758 7.06287L5.00453 6.73632L4.71082 4.65066C4.70267 4.59279 4.65316 4.54976 4.59472 4.54976V4.54976C4.53718 4.54976 4.48814 4.59151 4.47897 4.64832L4.14184 6.73632L4.10112 7.06522ZM6.14074 10.6675C5.83802 10.6675 5.58002 10.4478 5.5317 10.149L5.39638 9.31218C5.35428 9.05179 5.12947 8.86041 4.8657 8.86041H4.28601C4.02224 8.86041 3.79743 9.05179 3.75533 9.31218L3.61734 10.1655C3.57056 10.4548 3.32079 10.6675 3.02773 10.6675V10.6675C2.65091 10.6675 2.36825 10.3228 2.44203 9.95327L3.72679 3.5182C3.80956 3.10364 4.1735 2.80518 4.59624 2.80518V2.80518C5.01898 2.80518 5.38292 3.10364 5.46569 3.5182L6.74575 9.92973C6.82196 10.3114 6.52998 10.6675 6.14074 10.6675V10.6675Z" fill="black"/>
</svg>
