<svg width="17" height="17" viewBox="0 0 17 17" fill="none" xmlns="http://www.w3.org/2000/svg">
<mask id="mask0_102_689" style="mask-type:alpha" maskUnits="userSpaceOnUse" x="0" y="0" width="17" height="17">
<rect x="0.069519" y="0.0600586" width="16" height="16" fill="#DCDCDC"/>
</mask>
<g mask="url(#mask0_102_689)">
<path d="M9.16955 7.57261C10.0795 7.71561 10.8205 8.06661 11.3925 8.62561C11.9775 9.17161 12.27 9.94511 12.27 10.9461C12.27 12.1291 11.919 13.0586 11.217 13.7346C10.528 14.3976 9.55305 14.7291 8.29205 14.7291H4.68802C4.41502 14.7291 4.20702 14.6576 4.06402 14.5146C3.93402 14.3716 3.86902 14.1896 3.86902 13.9686L3.86902 2.15161C3.86902 1.93061 3.94052 1.74861 4.08352 1.60561C4.22652 1.46261 4.42802 1.39111 4.68802 1.39111L7.41455 1.39111C8.11655 1.39111 8.72105 1.47561 9.22805 1.64461C9.73505 1.80061 10.151 2.02811 10.476 2.32711C10.801 2.62611 11.0415 2.98361 11.1975 3.39961C11.3535 3.80261 11.4315 4.25761 11.4315 4.76461C11.4315 5.50561 11.217 6.11661 10.788 6.59761C10.372 7.07861 9.83255 7.40361 9.16955 7.57261ZM5.24144 6.94861L7.39505 6.94861C8.21405 6.94861 8.83805 6.76661 9.26705 6.40261C9.69605 6.02561 9.91055 5.51211 9.91055 4.86211C9.91055 4.23811 9.70255 3.73111 9.28655 3.34111C8.88355 2.93811 8.25305 2.73661 7.39505 2.73661L5.24144 2.73661L5.24144 6.94861ZM5.24144 13.3836H7.66805C8.70805 13.3836 9.48155 13.1886 9.98855 12.7986C10.4955 12.3956 10.749 11.7651 10.749 10.9071C10.749 9.98411 10.45 9.32761 9.85205 8.93761C9.25405 8.53461 8.38305 8.33311 7.23905 8.33311H5.24144L5.24144 13.3836Z" fill="black"/>
</g>
</svg>
