<svg width="17" height="17" viewBox="0 0 17 17" fill="none" xmlns="http://www.w3.org/2000/svg">
<mask id="mask0_102_768" style="mask-type:alpha" maskUnits="userSpaceOnUse" x="0" y="0" width="17" height="17">
<rect x="0.882446" y="0.439453" width="16" height="16" fill="#D9D9D9"/>
</mask>
<g mask="url(#mask0_102_768)">
<path fill-rule="evenodd" clip-rule="evenodd" d="M0.894165 3.10579C0.894165 2.36941 1.49112 1.77246 2.2275 1.77246H12.8942C13.6306 1.77246 14.2275 2.36942 14.2275 3.10579V5.77246C14.2275 6.14065 13.929 6.43913 13.5608 6.43913C13.1926 6.43913 12.8942 6.14065 12.8942 5.77246V3.10579H8.22752V8.43913C8.22752 8.80732 7.92904 9.10579 7.56085 9.10579H2.2275V13.7725H12.8942V12.4391C12.8942 12.0709 13.1926 11.7725 13.5608 11.7725C13.929 11.7725 14.2275 12.0709 14.2275 12.4391V13.7725C14.2275 14.5089 13.6306 15.1058 12.8942 15.1058H2.2275C1.49113 15.1058 0.894165 14.5089 0.894165 13.7725V3.10579ZM5.04734 3.10579H6.31572L2.2275 6.74378V5.48531L5.04734 3.10579ZM2.97988 3.10579L2.2275 3.74069V3.10579H2.97988ZM3.07721 7.77246H4.36757L6.89419 5.45444V4.37584L3.07721 7.77246ZM6.33986 7.77246H6.89419V7.2639L6.33986 7.77246Z" fill="black"/>
<path d="M9.33349 11.3713C9.19305 11.2308 9.12837 11.0433 9.13944 10.8595L9.25685 8.39332C9.27436 8.02555 9.5867 7.7416 9.95447 7.75911C10.3222 7.77662 10.6062 8.08896 10.5887 8.45673L10.5529 9.20909L12.0433 7.71862C13.1077 6.65427 14.8669 6.61977 15.9722 7.64208C17.1408 8.72296 17.1743 10.6015 16.0503 11.7256L15.6505 12.1253C15.3901 12.3857 14.968 12.3857 14.7077 12.1253C14.4473 11.865 14.4473 11.4429 14.7077 11.1825L15.1075 10.7827C15.6977 10.1925 15.6785 9.18668 15.0669 8.62092C14.4874 8.08493 13.5441 8.10344 12.9861 8.66143L11.4143 10.2332L12.3976 10.2332C12.7658 10.2332 13.0643 10.5317 13.0643 10.8999C13.0643 11.2681 12.7658 11.5666 12.3976 11.5666L9.80493 11.5665C9.79334 11.5665 9.78178 11.5662 9.77026 11.5656C9.61137 11.5574 9.45485 11.4926 9.33349 11.3713Z" fill="black"/>
</g>
</svg>
