<svg width="25" height="25" viewBox="0 0 25 25" fill="none" xmlns="http://www.w3.org/2000/svg">
<mask id="mask0_331_1408" style="mask-type:alpha" maskUnits="userSpaceOnUse" x="0" y="0" width="25" height="25">
<rect x="0.756592" y="0.136108" width="24" height="24" fill="#DCDCDC"/>
</mask>
<g mask="url(#mask0_331_1408)">
<path d="M7.75659 14.6486C7.20431 14.6486 6.75659 15.0963 6.75659 15.6486C6.75659 16.2008 7.20431 16.6486 7.75659 16.6486H17.7566C18.3089 16.6486 18.7566 16.2008 18.7566 15.6486C18.7566 15.0963 18.3089 14.6486 17.7566 14.6486H7.75659Z" fill="black"/>
<path fill-rule="evenodd" clip-rule="evenodd" d="M4.75659 2.13611C3.65202 2.13611 2.75659 3.03154 2.75659 4.13611V20.1361C2.75659 21.2407 3.65202 22.1361 4.75659 22.1361H20.7566C21.8612 22.1361 22.7566 21.2407 22.7566 20.1361V4.13611C22.7566 3.03154 21.8612 2.13611 20.7566 2.13611H4.75659ZM14.8403 4.13611H10.6729L10.6729 7.95734H14.8403V4.13611ZM16.8403 4.13611V7.95734H20.7566V4.13611H16.8403ZM4.75659 4.13611H8.67291L8.67291 7.95734H4.75659V4.13611ZM4.75659 20.1361V9.95734H20.7566V20.1361H4.75659Z" fill="black"/>
</g>
</svg>
