<svg width="25" height="25" viewBox="0 0 25 25" fill="none" xmlns="http://www.w3.org/2000/svg">
<mask id="mask0_331_1204" style="mask-type:alpha" maskUnits="userSpaceOnUse" x="0" y="0" width="25" height="25">
<rect x="0.09021" y="0.836792" width="24" height="24" fill="#DCDCDC"/>
</mask>
<g mask="url(#mask0_331_1204)">
<path fill-rule="evenodd" clip-rule="evenodd" d="M15.645 3.45194C14.8074 2.63174 13.4493 2.63174 12.6116 3.45194L2.50568 13.3474C1.66803 14.1676 1.66803 15.4974 2.50568 16.3176L8.53539 22.2216C8.89585 22.5746 9.35269 22.7757 9.82296 22.8248V22.8266H9.84027C9.98111 22.8402 10.1231 22.8402 10.2639 22.8266H18.8233C19.4156 22.8266 19.8958 22.3564 19.8958 21.7765C19.8958 21.1965 19.4156 20.7263 18.8233 20.7263H13.0959L21.6747 12.3262C22.5124 11.506 22.5124 10.1762 21.6747 9.35603L15.645 3.45194ZM10.0625 20.7263L12.6116 18.2303L6.58193 12.3262L4.02237 14.8325L10.0417 20.7263H10.0625ZM20.158 10.8411L14.1283 4.93704L8.28065 10.6629L14.3104 16.567L20.158 10.8411Z" fill="black"/>
</g>
</svg>
