<svg width="17" height="16" viewBox="0 0 17 16" fill="none" xmlns="http://www.w3.org/2000/svg">
<path d="M13.4932 12.0781C12.5215 12.0781 12.1274 11.127 12.1274 9.70038V7.64769C12.1274 7.5032 12.0102 7.38607 11.8657 7.38607V7.38607C11.7213 7.38607 11.6041 7.26894 11.6041 7.12445V6.30196C11.6041 6.12439 11.7363 5.9746 11.9125 5.95256V5.95256C12.0774 5.93192 12.2055 5.79881 12.2197 5.63323L12.2901 4.8116C12.3134 4.54036 12.5403 4.33203 12.8126 4.33203V4.33203C13.1022 4.33203 13.3369 4.5668 13.3369 4.8564V5.46189C13.3369 5.71333 13.5408 5.91717 13.7922 5.91717V5.91717C14.0437 5.91717 14.2475 6.12101 14.2475 6.37246V6.93079C14.2475 7.18223 14.0437 7.38607 13.7922 7.38607V7.38607C13.5408 7.38607 13.3369 7.58991 13.3369 7.84135V9.67924C13.3369 10.345 13.5408 10.6092 13.8262 10.6092V10.6092C14.0124 10.6092 14.2054 10.687 14.2313 10.8714L14.3017 11.3717C14.3421 11.6596 14.1948 11.958 13.9125 12.0276C13.7894 12.0579 13.6505 12.0781 13.4932 12.0781Z" fill="black"/>
<path d="M8.09906 11.9302C7.76693 11.9302 7.49768 11.661 7.49768 11.3288V6.43658C7.49768 6.14975 7.7302 5.91723 8.01703 5.91723H8.10564C8.32034 5.91723 8.50057 6.07894 8.52377 6.29238L8.5627 6.65066C8.56375 6.66026 8.57186 6.66753 8.58151 6.66753V6.66753C8.58788 6.66753 8.59383 6.66432 8.59734 6.659C8.91572 6.17661 9.30829 5.76929 9.82846 5.76929C10.6711 5.76929 11.0312 6.7098 11.0312 8.2104V11.3254C11.0312 11.6594 10.7605 11.9302 10.4264 11.9302V11.9302C10.0924 11.9302 9.82166 11.6594 9.82166 11.3254V8.44289C9.82166 7.61862 9.67896 7.37556 9.37318 7.37556V7.37556C8.7864 7.37556 8.70044 8.22837 8.70044 8.81514V11.3288C8.70044 11.661 8.4312 11.9302 8.09906 11.9302V11.9302Z" fill="black"/>
<path d="M5.20126 12.0781C3.91696 12.0781 2.82971 10.7043 2.82971 8.04129C2.82971 5.42052 3.95773 3.91992 5.24203 3.91992C5.7812 3.91992 6.23397 4.2381 6.57061 4.65468C6.70933 4.82634 6.714 5.06525 6.61061 5.26024V5.26024C6.39499 5.66691 5.82534 5.61162 5.36995 5.54456C5.33504 5.53941 5.29923 5.53677 5.26242 5.53677C4.61007 5.53677 4.07325 6.44558 4.07325 7.97788C4.07325 9.54189 4.53533 10.4507 5.24883 10.4507C5.32784 10.4507 5.40395 10.4384 5.47705 10.4155C5.90825 10.2808 6.48695 10.2383 6.70151 10.6359V10.6359C6.7956 10.8102 6.79774 11.0228 6.68611 11.1865C6.28228 11.7785 5.77822 12.0781 5.20126 12.0781Z" fill="black"/>
</svg>
