<svg width="17" height="17" viewBox="0 0 17 17" fill="none" xmlns="http://www.w3.org/2000/svg">
<mask id="mask0_102_693" style="mask-type:alpha" maskUnits="userSpaceOnUse" x="0" y="0" width="17" height="17">
<rect x="0.708862" y="0.859863" width="16" height="16" fill="#DCDCDC"/>
</mask>
<g mask="url(#mask0_102_693)">
<rect x="2.73364" y="12.8838" width="11.9506" height="2.64292" rx="1.32146" fill="black"/>
<path fill-rule="evenodd" clip-rule="evenodd" d="M8.46879 3.33391C8.08659 2.84815 7.62889 2.49858 7.1791 2.32235C6.69064 2.13093 6.01172 2.09148 5.58449 2.63789C5.20378 3.12487 5.23446 3.84363 5.46748 4.60254C5.57275 4.94547 5.74356 5.28298 5.9867 5.60838C5.9978 5.62322 6.00946 5.63738 6.02162 5.65085C6.03053 5.66068 6.03972 5.67013 6.04912 5.6792C6.06185 5.69148 6.07507 5.70308 6.08871 5.71398L4.4538 7.34886C4.22764 7.57502 4.22764 7.94174 4.4538 8.16792L7.98691 11.701C8.21314 11.9272 8.57986 11.9272 8.80602 11.701L13.2852 7.22178C13.5114 6.99561 13.5114 6.6289 13.2852 6.40273L9.75212 2.86961C9.52595 2.64344 9.15924 2.64344 8.93307 2.86961L8.46879 3.33391ZM8.19907 5.55176C8.2094 5.61744 8.21802 5.68447 8.22481 5.7528C8.25655 6.07108 8.54027 6.30338 8.85855 6.27164C9.17684 6.23991 9.40916 5.95616 9.37741 5.63787C9.33181 5.18081 9.22258 4.75656 9.06768 4.37314L9.34263 4.09821L12.0566 6.81225L11.1809 7.688H5.75282L8.14831 5.29251C8.16804 5.37648 8.18508 5.46291 8.19907 5.55176ZM7.64154 4.16117C7.35896 3.76559 7.02583 3.50638 6.75647 3.40082C6.62786 3.35043 6.54543 3.34723 6.50859 3.35204C6.50492 3.35253 6.50188 3.35307 6.49933 3.35358L6.49488 3.35462C6.47572 3.38631 6.37561 3.6138 6.57477 4.26255C6.63741 4.46657 6.74176 4.68026 6.90317 4.89955L7.64154 4.16117Z" fill="black"/>
<path d="M12.6795 12.218C13.1077 12.218 13.4548 11.8708 13.4548 11.4427C13.4548 11.1775 13.1576 10.6858 12.9312 10.3497C12.809 10.1683 12.55 10.1683 12.4278 10.3497C12.2014 10.6858 11.9042 11.1775 11.9042 11.4427C11.9042 11.8708 12.2513 12.218 12.6795 12.218Z" fill="black"/>
</g>
</svg>
