<svg width="17" height="17" viewBox="0 0 17 17" fill="none" xmlns="http://www.w3.org/2000/svg">
<mask id="mask0_102_724" style="mask-type:alpha" maskUnits="userSpaceOnUse" x="0" y="0" width="17" height="17">
<rect x="0.882446" y="0.439453" width="16" height="16" fill="#939393"/>
</mask>
<g mask="url(#mask0_102_724)">
<path fill-rule="evenodd" clip-rule="evenodd" d="M12.9262 1.77296H14.2157C14.9521 1.77296 15.549 2.36992 15.549 3.10629V13.773C15.549 14.5093 14.9521 15.1063 14.2157 15.1063H3.54903C2.81266 15.1063 2.2157 14.5094 2.2157 13.773V3.10629C2.2157 2.36991 2.81265 1.77296 3.54903 1.77296H12.92C12.9221 1.77295 12.9242 1.77295 12.9262 1.77296ZM9.78049 6.12582L13.1769 3.10629H14.2157V3.47816L11.2716 6.12582H9.78049ZM7.77376 6.12582L11.1701 3.10629H9.84353L6.44716 6.12582H7.77376ZM7.8368 3.10629L4.44043 6.12582H3.54903V5.73896L6.51023 3.10629H7.8368ZM13.2656 6.12582H14.2157V5.27138L13.2656 6.12582ZM3.54903 3.95488L4.50351 3.10629H3.54903V3.95488ZM3.54903 7.45916H14.2157V13.773H3.54903V7.45916Z" fill="black"/>
</g>
</svg>
