<svg width="17" height="17" viewBox="0 0 17 17" fill="none" xmlns="http://www.w3.org/2000/svg">
<mask id="mask0_102_765" style="mask-type:alpha" maskUnits="userSpaceOnUse" x="0" y="0" width="17" height="17">
<rect x="0.882446" y="0.439453" width="16" height="16" fill="#CDCDCD"/>
</mask>
<g mask="url(#mask0_102_765)">
<path fill-rule="evenodd" clip-rule="evenodd" d="M14.2157 1.77295C14.9521 1.77295 15.549 2.36991 15.549 3.10628V13.7729C15.549 14.5093 14.9521 15.1063 14.2157 15.1063H3.549C2.81263 15.1063 2.21567 14.5093 2.21567 13.7729V3.10628C2.21567 2.3699 2.81262 1.77295 3.549 1.77295H14.2157ZM6.549 3.10628H6.51022L3.549 5.73897V6.91697L6.549 4.14773V3.10628ZM7.88233 4.43642V3.10628H14.2157V13.7729H7.88233V10.4586C7.8827 10.4459 7.8827 10.4331 7.88233 10.4204V7.44248C7.88234 7.44046 7.88234 7.43844 7.88233 7.43642V4.44248C7.88234 4.44046 7.88234 4.43844 7.88233 4.43642ZM6.549 5.96228L3.549 8.73151V9.91697L6.549 7.14774V5.96228ZM6.549 8.96228L3.549 11.7315V13.0089L6.549 10.154V8.96228ZM6.549 11.9946L4.68024 13.7729H6.549V11.9946ZM4.5035 3.10628L3.549 3.95488V3.10628H4.5035Z" fill="black"/>
</g>
</svg>
