<svg width="17" height="17" viewBox="0 0 17 17" fill="none" xmlns="http://www.w3.org/2000/svg">
<mask id="mask0_102_721" style="mask-type:alpha" maskUnits="userSpaceOnUse" x="0" y="0" width="17" height="17">
<rect x="0.882446" y="0.439453" width="16" height="16" fill="#D9D9D9"/>
</mask>
<g mask="url(#mask0_102_721)">
<path fill-rule="evenodd" clip-rule="evenodd" d="M14.2159 1.77246C14.9523 1.77246 15.5493 2.36942 15.5493 3.10579V13.7725C15.5493 14.5089 14.9523 15.1058 14.2159 15.1058H3.54928C2.8129 15.1058 2.21594 14.5089 2.21594 13.7725V3.10579C2.21594 2.36941 2.8129 1.77246 3.54928 1.77246H14.2159ZM14.2159 6.77246V4.98742L12.2822 6.77246H14.2159ZM10.3164 6.77246L14.0971 3.2826C14.1341 3.24839 14.174 3.21918 14.2159 3.19494V3.10579H12.8116L8.87331 6.77246H10.3164ZM7.88261 8.10579H14.2159V13.7725H7.88261V10.4662C7.88334 10.4481 7.88334 10.4299 7.88261 10.4118V8.10579ZM6.54928 13.7725V11.9843L4.65229 13.7725H6.54928ZM6.54928 8.93622V10.1519L3.54928 12.9799V11.7293L6.54928 8.93622ZM10.8549 3.10579L3.54928 9.90757V8.73607L9.80599 3.10579H10.8549ZM6.51049 3.10579H7.81271L3.54928 6.94237V5.73848L6.51049 3.10579ZM4.50377 3.10579L3.54928 3.95439V3.10579H4.50377Z" fill="black"/>
</g>
</svg>
