<svg width="17" height="17" viewBox="0 0 17 17" fill="none" xmlns="http://www.w3.org/2000/svg">
<mask id="mask0_102_755" style="mask-type:alpha" maskUnits="userSpaceOnUse" x="0" y="0" width="17" height="17">
<rect x="0.882446" y="0.236328" width="16" height="16" fill="#DCDCDC"/>
</mask>
<g mask="url(#mask0_102_755)">
<path fill-rule="evenodd" clip-rule="evenodd" d="M2.2157 12.236V13.5693C2.2157 14.3057 2.81265 14.9027 3.54903 14.9027H4.88237V13.5693H3.54903L3.54903 12.236H2.2157ZM4.88236 1.56934H3.54903C2.81265 1.56934 2.2157 2.16629 2.2157 2.90267V4.236H3.54903V2.90267L4.88236 2.90267V1.56934ZM2.2157 9.56934H3.54903V6.90267H2.2157V9.56934ZM7.54903 1.56934V2.90267H10.2157V1.56934H7.54903ZM12.8824 1.56934V2.90267H14.2157V4.236H15.549V2.90267C15.549 2.16629 14.9521 1.56934 14.2157 1.56934H12.8824ZM15.549 6.90267H14.2157V9.56934H15.549V6.90267ZM15.549 12.236H14.2157V13.5693H12.8824V14.9027H14.2157C14.9521 14.9027 15.549 14.3057 15.549 13.5693V12.236ZM10.2157 14.9027V13.5693H7.54903V14.9027H10.2157Z" fill="black"/>
<path d="M9.54932 7.57048V2.90381H8.21598V7.57048H3.54932V8.90381H8.21598V13.5705H9.54932V8.90381H14.216V7.57048H9.54932Z" fill="black"/>
</g>
</svg>
