<svg width="17" height="17" viewBox="0 0 17 17" fill="none" xmlns="http://www.w3.org/2000/svg">
<mask id="mask0_102_802" style="mask-type:alpha" maskUnits="userSpaceOnUse" x="0" y="0" width="17" height="17">
<rect x="0.867188" y="0.40625" width="16" height="16" fill="#DCDCDC"/>
</mask>
<g mask="url(#mask0_102_802)">
<path fill-rule="evenodd" clip-rule="evenodd" d="M3.4347 2.27435C3.17633 2.18494 2.88069 2.25761 2.67794 2.46037C2.47518 2.66312 2.40251 2.95876 2.49191 3.21713L5.23584 11.1465C5.36212 11.5114 5.7668 11.6875 6.13971 11.5397C6.51262 11.3919 6.71255 10.9763 6.58627 10.6114L5.81836 8.39225L8.60982 5.6008L10.8289 6.36871C11.1939 6.49499 11.6095 6.29505 11.7573 5.92214C11.905 5.54923 11.729 5.14455 11.3641 5.01827L3.4347 2.27435ZM7.1561 5.09774L5.31531 6.93854L4.34123 4.12366L7.1561 5.09774Z" fill="black"/>
<path d="M5.55071 13.8187C5.26432 14.1051 5.25118 14.5562 5.52136 14.8264C5.79153 15.0966 6.24271 15.0834 6.52909 14.7971L13.7625 7.56366L13.7326 8.59172C13.7211 8.98526 14.0308 9.295 14.4244 9.28354C14.8179 9.27208 15.1462 8.94375 15.1577 8.55021L15.2378 5.80183C15.2462 5.51362 15.0801 5.25884 14.817 5.15631C14.554 5.05377 14.2457 5.12366 14.036 5.33339L5.55071 13.8187Z" fill="black"/>
</g>
</svg>
