<svg width="17" height="17" viewBox="0 0 17 17" fill="none" xmlns="http://www.w3.org/2000/svg">
<mask id="mask0_102_740" style="mask-type:alpha" maskUnits="userSpaceOnUse" x="0" y="0" width="17" height="17">
<rect x="0.882446" y="0.236328" width="16" height="16" fill="#DCDCDC"/>
</mask>
<g mask="url(#mask0_102_740)">
<path d="M15.5489 4.236L15.5489 2.90267C15.5489 2.16629 14.9519 1.56934 14.2156 1.56934L12.8822 1.56934L12.8822 2.90267L14.2156 2.90267L14.2156 4.236L15.5489 4.236Z" fill="black"/>
<path d="M7.54889 1.56934L7.54889 2.90267L10.2156 2.90267L10.2156 1.56934L7.54889 1.56934Z" fill="black"/>
<path d="M15.5489 6.90267L14.2156 6.90267L14.2156 7.56934L11.5489 7.56934L11.5489 8.90267L14.2156 8.90267L14.2156 9.56934L15.5489 9.56934L15.5489 6.90267Z" fill="black"/>
<path d="M15.5489 12.236L14.2156 12.236L14.2156 13.5693L12.8822 13.5693L12.8822 14.9027L14.2156 14.9027C14.9519 14.9027 15.5489 14.3057 15.5489 13.5693L15.5489 12.236Z" fill="black"/>
<path d="M10.2156 14.9027L10.2156 13.5693L9.54889 13.5693L9.54889 10.9027L8.21556 10.9027L8.21556 13.5693L7.54889 13.5693L7.54889 14.9027L10.2156 14.9027Z" fill="black"/>
<path d="M3.54889 7.56934L6.21556 7.56934L6.21556 8.90267L3.54889 8.90267L3.54889 7.56934Z" fill="black"/>
<path d="M9.54889 5.56934L9.54889 2.90267L8.21556 2.90267L8.21556 5.56934L9.54889 5.56934Z" fill="black"/>
<path d="M3.54923 1.56934L4.88257 1.56934L4.88257 2.90267L3.54923 2.90267L3.54923 13.5693L4.88257 13.5693L4.88257 14.9027L3.54923 14.9027C2.81286 14.9027 2.2159 14.3057 2.2159 13.5693L2.2159 2.90267C2.2159 2.16629 2.81285 1.56934 3.54923 1.56934Z" fill="black"/>
</g>
</svg>
