<svg width="25" height="25" viewBox="0 0 25 25" fill="none" xmlns="http://www.w3.org/2000/svg">
<mask id="mask0_331_1455" style="mask-type:alpha" maskUnits="userSpaceOnUse" x="0" y="0" width="25" height="25">
<rect x="0.597168" y="0.943848" width="24" height="24" fill="#DCDCDC"/>
</mask>
<g mask="url(#mask0_331_1455)">
<path fill-rule="evenodd" clip-rule="evenodd" d="M4.44855 3.73671C4.06101 3.60261 3.61755 3.71161 3.31342 4.01575C3.00928 4.31988 2.90027 4.76334 3.03438 5.15089L7.15028 17.045C7.3397 17.5923 7.94671 17.8564 8.50608 17.6348C9.06545 17.4131 9.36535 16.7897 9.17593 16.2423L8.02406 12.9136L12.2112 8.72639L15.5399 9.87826C16.0873 10.0677 16.7108 9.76778 16.9324 9.20841C17.1541 8.64904 16.89 8.04203 16.3426 7.85261L4.44855 3.73671ZM10.0307 7.9718L7.26947 10.733L5.80835 6.51068L10.0307 7.9718Z" fill="black"/>
<path d="M7.62257 21.0532C7.193 21.4828 7.17329 22.1596 7.57855 22.5648C7.98381 22.9701 8.66058 22.9504 9.09015 22.5208L19.9403 11.6707L19.8953 13.2128C19.8782 13.8031 20.3428 14.2677 20.9331 14.2505C21.5234 14.2333 22.0159 13.7408 22.0331 13.1505L22.1532 9.02794C22.1657 8.59563 21.9167 8.21346 21.5221 8.05966C21.1275 7.90585 20.6651 8.01069 20.3505 8.32528L7.62257 21.0532Z" fill="black"/>
</g>
</svg>
