<svg width="17" height="17" viewBox="0 0 17 17" fill="none" xmlns="http://www.w3.org/2000/svg">
<path fill-rule="evenodd" clip-rule="evenodd" d="M1.86719 8.05622C1.86719 7.80207 2.01532 7.57123 2.24636 7.46533L6.24636 5.632L6.24637 5.63199L7.57969 5.0209L7.5797 5.02089L10.2464 3.79866C10.5727 3.64909 10.9585 3.79239 11.1081 4.11873C11.2577 4.44507 11.1144 4.83087 10.788 4.98045L8.50052 6.02889L8.50052 10.0836L10.788 11.132C11.1144 11.2816 11.2577 11.6674 11.1081 11.9937C10.9585 12.3201 10.5727 12.4634 10.2464 12.3138L7.5797 11.0915L7.57969 11.0915L6.24637 10.4804L6.24636 10.4804L2.24636 8.64711C2.01532 8.54122 1.86719 8.31038 1.86719 8.05622ZM7.20052 9.48773L7.20052 6.62472L6.78801 6.81378L6.78801 6.81378L4.07723 8.05622L6.78801 9.29866L6.78801 9.29866L7.20052 9.48773Z" fill="black"/>
<path fill-rule="evenodd" clip-rule="evenodd" d="M13.1837 14.7061C12.8247 14.7061 12.5337 14.415 12.5337 14.0561L12.5337 2.05606C12.5337 1.79315 12.6921 1.55614 12.9349 1.45553C13.1778 1.35493 13.4574 1.41054 13.6433 1.59644L15.6433 3.59644C15.8972 3.85028 15.8972 4.26183 15.6433 4.51567C15.3895 4.76951 14.9779 4.76951 14.7241 4.51567L13.8337 3.62529L13.8337 14.0561C13.8337 14.415 13.5427 14.7061 13.1837 14.7061Z" fill="black"/>
</svg>
