<svg width="17" height="16" viewBox="0 0 17 16" fill="none" xmlns="http://www.w3.org/2000/svg">
<path d="M12.3034 11.8562C11.9046 11.8562 11.6289 11.4573 11.77 11.0842L12.4335 9.32889C12.5797 8.94208 12.5781 8.51494 12.4291 8.1292L11.8601 6.65607C11.7089 6.26458 11.9978 5.84326 12.4174 5.84326V5.84326C12.6726 5.84326 12.8997 6.00533 12.9826 6.24669L13.1634 6.77321C13.2638 7.10625 13.3707 7.44954 13.4778 7.78289C13.4808 7.79206 13.4893 7.79827 13.4989 7.79827V7.79827C13.5093 7.79827 13.5183 7.79105 13.5206 7.78089C13.5947 7.44817 13.688 7.10558 13.7682 6.77321L13.8966 6.27094C13.961 6.01929 14.1877 5.84326 14.4474 5.84326V5.84326C14.8412 5.84326 15.1157 6.23386 14.9824 6.60435L14.3603 8.33289C14.2196 8.72354 14.2282 9.15234 14.3841 9.53712L14.9918 11.0361C15.1507 11.428 14.8622 11.8562 14.4393 11.8562V11.8562C14.1909 11.8562 13.9685 11.7022 13.8812 11.4697L13.673 10.9157C13.5593 10.5724 13.4456 10.2188 13.3254 9.89536C13.3219 9.88616 13.3132 9.88009 13.3033 9.88009V9.88009C13.2929 9.88009 13.2837 9.88698 13.2808 9.89703C13.1873 10.2197 13.0938 10.5626 13.0003 10.9157L12.8524 11.4406C12.7831 11.6864 12.5589 11.8562 12.3034 11.8562V11.8562Z" fill="black"/>
<path d="M8.71639 12.0042C8.00289 12.0042 7.56799 11.1799 7.56799 10.176C7.56799 9.2536 7.90593 8.63872 8.67072 8.2744C9.23191 8.00707 9.75252 7.19591 9.13091 7.19591V7.19591C9.04876 7.19591 8.96563 7.20964 8.88046 7.23628C8.46575 7.36599 7.96473 7.27328 7.82458 6.86199V6.86199C7.747 6.63433 7.80737 6.37851 7.99734 6.23101C8.42159 5.90161 8.87408 5.69531 9.36195 5.69531C10.3609 5.69531 10.9249 6.56186 10.9249 8.44289V11.3276C10.9249 11.6196 10.6882 11.8562 10.3963 11.8562H10.2439C10.0691 11.8562 9.92074 11.728 9.89537 11.555L9.85368 11.2708C9.85226 11.2611 9.84394 11.2539 9.83414 11.2539V11.2539C9.82779 11.2539 9.8218 11.257 9.81808 11.2621C9.50018 11.7015 9.14184 12.0042 8.71639 12.0042ZM9.13091 10.5458C9.33146 10.5458 9.4772 10.4251 9.62056 10.2186C9.68621 10.124 9.7153 10.0095 9.7153 9.89438V9.89438C9.7153 9.48938 9.31021 9.15277 8.99765 9.41033C8.79428 9.57793 8.71639 9.78952 8.71639 10.028C8.71639 10.3768 8.87948 10.5458 9.13091 10.5458Z" fill="black"/>
<path d="M2.41728 11.8562C2.11705 11.8562 1.87366 11.6128 1.87366 11.3126V4.72609C1.87366 4.32171 2.20147 3.9939 2.60585 3.9939V3.9939C2.94534 3.9939 3.24031 4.22727 3.31841 4.55766L3.98699 7.3861C4.08774 7.83528 4.16858 8.32576 4.26232 8.80651C4.26422 8.81626 4.27276 8.82329 4.2827 8.82329V8.82329C4.29253 8.82329 4.30102 8.81641 4.30302 8.80678C4.40335 8.32594 4.48412 7.83536 4.57818 7.3861L5.22263 4.56405C5.29881 4.23048 5.59551 3.9939 5.93767 3.9939V3.9939C6.34275 3.9939 6.67112 4.32227 6.67112 4.72734V11.3024C6.67112 11.6082 6.42317 11.8562 6.11731 11.8562V11.8562C5.81144 11.8562 5.56349 11.6082 5.56349 11.3024V9.16145C5.56349 8.38463 5.65737 7.22197 5.71856 6.4504C5.71923 6.442 5.71258 6.43501 5.70416 6.43501V6.43501C5.6974 6.43501 5.69155 6.4397 5.69008 6.44629L5.27129 8.31605L4.66846 10.866C4.62351 11.0561 4.45378 11.1904 4.25842 11.1904V11.1904C4.06341 11.1904 3.89388 11.0566 3.84859 10.8669L3.23951 8.31605L2.83425 6.44635C2.83281 6.43974 2.82696 6.43501 2.82019 6.43501V6.43501C2.81179 6.43501 2.80516 6.44198 2.80583 6.45035C2.86702 7.22192 2.9609 8.38462 2.9609 9.16145V11.3126C2.9609 11.6128 2.71751 11.8562 2.41728 11.8562V11.8562Z" fill="black"/>
</svg>
