<svg width="25" height="25" viewBox="0 0 25 25" fill="none" xmlns="http://www.w3.org/2000/svg">
<mask id="mask0_331_1259" style="mask-type:alpha" maskUnits="userSpaceOnUse" x="0" y="0" width="25" height="25">
<rect x="0.705322" y="0.986084" width="24" height="24" fill="#DCDCDC"/>
</mask>
<g mask="url(#mask0_331_1259)">
<path fill-rule="evenodd" clip-rule="evenodd" d="M9.1572 5.43443C9.1572 5.26362 9.02288 5.12515 8.8572 5.12515H5.08877C4.92308 5.12515 4.78877 5.26362 4.78877 5.43443V11.6073C4.78877 11.7781 4.92308 11.9166 5.08877 11.9166H7.66583C7.7722 11.9166 7.87062 11.8585 7.9245 11.7639C7.97837 11.6694 7.97966 11.5525 7.92787 11.4567C7.70769 11.0495 7.76591 10.5257 8.10107 10.1801C8.50621 9.76243 9.16308 9.76242 9.56824 10.1801L11.5565 12.2297C11.751 12.4303 11.8603 12.7023 11.8603 12.986C11.8603 13.2697 11.751 13.5417 11.5565 13.7423L9.56826 15.792C9.16311 16.2097 8.50623 16.2097 8.10108 15.792C7.76593 15.4465 7.7077 14.9227 7.92783 14.5155C7.97961 14.4197 7.97833 14.3028 7.92445 14.2082C7.87056 14.1137 7.77215 14.0556 7.66578 14.0556H5.08877C4.92308 14.0556 4.78877 14.1941 4.78877 14.3649V20.5377C4.78877 20.7085 4.92308 20.847 5.08877 20.847H8.8572C9.02288 20.847 9.1572 20.7085 9.1572 20.5377V17.931C9.1572 17.3403 9.62168 16.8615 10.1946 16.8615C10.7676 16.8615 11.2321 17.3403 11.2321 17.931V21.2271C11.2321 22.1985 10.4682 22.9861 9.52592 22.9861H4.42004C3.47775 22.9861 2.71387 22.1985 2.71387 21.2271V4.74503C2.71387 3.77359 3.47775 2.98608 4.42004 2.98608H9.52592C10.4682 2.98608 11.2321 3.77359 11.2321 4.74503V7.74586C11.2321 8.33655 10.7676 8.8154 10.1946 8.8154C9.62168 8.8154 9.1572 8.33655 9.1572 7.74586V5.43443ZM16.2535 20.5377C16.2535 20.7085 16.3879 20.847 16.5535 20.847H20.322C20.4015 20.847 20.4778 20.8144 20.5341 20.7564C20.5904 20.6984 20.622 20.6198 20.622 20.5377L20.622 14.3649C20.622 14.1941 20.4877 14.0556 20.322 14.0556H17.7449C17.6385 14.0556 17.5401 14.1137 17.4862 14.2082C17.4324 14.3028 17.4311 14.4197 17.4829 14.5155C17.703 14.9227 17.6448 15.4465 17.3097 15.792C16.9045 16.2097 16.2477 16.2097 15.8425 15.7921L13.8543 13.7425C13.6597 13.5419 13.5504 13.2698 13.5504 12.9862C13.5504 12.7025 13.6597 12.4305 13.8543 12.2299L15.8425 10.1802C16.2476 9.7625 16.9045 9.7625 17.3097 10.1802C17.6448 10.5257 17.703 11.0495 17.4829 11.4567C17.4311 11.5525 17.4324 11.6694 17.4863 11.7639C17.5402 11.8585 17.6386 11.9165 17.745 11.9165H20.322C20.4877 11.9165 20.622 11.7781 20.622 11.6073V5.43446C20.622 5.35244 20.5904 5.27377 20.5341 5.21577C20.4778 5.15777 20.4015 5.12518 20.322 5.12518L16.5535 5.12518C16.3879 5.12518 16.2535 5.26365 16.2535 5.43446V8.04113C16.2535 8.63182 15.7891 9.11067 15.2161 9.11067C14.6431 9.11067 14.1786 8.63182 14.1786 8.04113V4.74505C14.1786 3.77362 14.9425 2.98611 15.8848 2.98611L20.9907 2.98611C21.933 2.98611 22.6969 3.77362 22.6969 4.74505L22.6969 21.2271C22.6969 22.1986 21.933 22.9861 20.9907 22.9861H15.8848C14.9425 22.9861 14.1786 22.1986 14.1786 21.2271L14.1786 18.2263C14.1786 17.6356 14.6431 17.1568 15.2161 17.1568C15.7891 17.1568 16.2535 17.6356 16.2535 18.2263V20.5377Z" fill="black"/>
</g>
</svg>
