<svg width="25" height="25" viewBox="0 0 25 25" fill="none" xmlns="http://www.w3.org/2000/svg">
<mask id="mask0_331_1414" style="mask-type:alpha" maskUnits="userSpaceOnUse" x="0" y="0" width="25" height="25">
<rect x="0.756714" y="0.136108" width="24" height="24" fill="#DCDCDC"/>
</mask>
<g mask="url(#mask0_331_1414)">
<path d="M4.75671 4.13611H8.75671V6.13611H10.7567V4.13611C10.7567 3.03154 9.86128 2.13611 8.75671 2.13611H4.75671C3.65214 2.13611 2.75671 3.03154 2.75671 4.13611V20.1361C2.75671 21.2407 3.65214 22.1361 4.75671 22.1361H8.75671C9.86128 22.1361 10.7567 21.2407 10.7567 20.1361V18.1361H8.75671V20.1361H4.75671V4.13611Z" fill="black"/>
<path d="M13.7567 11.4678H16.3567C16.5776 11.4678 16.7567 11.2887 16.7567 11.0678V9.86777C16.7567 9.64686 16.5776 9.46777 16.3567 9.46777H9.15671C8.9358 9.46777 8.75671 9.64686 8.75671 9.86777V11.0678C8.75671 11.2887 8.9358 11.4678 9.15671 11.4678H11.7567V15.57C11.7567 15.7909 11.9358 15.97 12.1567 15.97H13.3567C13.5776 15.97 13.7567 15.7909 13.7567 15.57V11.4678Z" fill="black"/>
<path d="M16.7567 4.13611H20.7567V20.1361H16.7567V18.1361H14.7567V20.1361C14.7567 21.2407 15.6521 22.1361 16.7567 22.1361H20.7567C21.8613 22.1361 22.7567 21.2407 22.7567 20.1361V4.13611C22.7567 3.03154 21.8613 2.13611 20.7567 2.13611H16.7567C15.6521 2.13611 14.7567 3.03154 14.7567 4.13611V6.13611H16.7567V4.13611Z" fill="black"/>
</g>
</svg>
