<svg width="17" height="16" viewBox="0 0 17 16" fill="none" xmlns="http://www.w3.org/2000/svg">
<path d="M11.4575 12.3899C11.1253 12.3899 10.8561 12.1207 10.8561 11.7885V6.8963C10.8561 6.60947 11.0886 6.37695 11.3754 6.37695H11.464C11.6787 6.37695 11.859 6.53866 11.8822 6.7521L11.9211 7.11037C11.9221 7.11998 11.9303 7.12725 11.9399 7.12725V7.12725C11.9463 7.12725 11.9522 7.12403 11.9557 7.11872C12.2741 6.63633 12.6667 6.229 13.1869 6.229C14.0295 6.229 14.3896 7.16952 14.3896 8.67012V11.7851C14.3896 12.1191 14.1189 12.3899 13.7848 12.3899V12.3899C13.4508 12.3899 13.1801 12.1191 13.1801 11.7851V8.90261C13.1801 8.07833 13.0374 7.83528 12.7316 7.83528V7.83528C12.1448 7.83528 12.0588 8.68808 12.0588 9.27486V11.7885C12.0588 12.1207 11.7896 12.3899 11.4575 12.3899V12.3899Z" fill="black"/>
<path d="M9.27453 12.3899C8.94239 12.3899 8.67315 12.1206 8.67315 11.7885V6.9783C8.67315 6.64616 8.94239 6.37692 9.27453 6.37692V6.37692C9.60666 6.37692 9.87591 6.64616 9.87591 6.9783V11.7885C9.87591 12.1206 9.60666 12.3899 9.27453 12.3899V12.3899ZM9.27793 5.40085C8.87021 5.40085 8.58481 5.14051 8.58481 4.58042C8.58481 4.00977 8.87021 3.80786 9.27793 3.80786C9.67885 3.80786 9.96425 4.00977 9.96425 4.58042C9.96425 5.14051 9.67885 5.40085 9.27793 5.40085Z" fill="black"/>
<path d="M3.35283 12.3899C3.05259 12.3899 2.8092 12.1465 2.8092 11.8463V5.25978C2.8092 4.8554 3.13702 4.52759 3.5414 4.52759V4.52759C3.88089 4.52759 4.17586 4.76096 4.25395 5.09135L4.92253 7.91979C5.02329 8.36897 5.10413 8.85945 5.19786 9.3402C5.19976 9.34995 5.20831 9.35698 5.21825 9.35698V9.35698C5.22808 9.35698 5.23656 9.3501 5.23857 9.34047C5.33889 8.85964 5.41967 8.36905 5.51372 7.91979L6.15818 5.09775C6.23436 4.76417 6.53106 4.52759 6.87322 4.52759V4.52759C7.27829 4.52759 7.60667 4.85596 7.60667 5.26104V11.8361C7.60667 12.1419 7.35872 12.3899 7.05285 12.3899V12.3899C6.74699 12.3899 6.49904 12.1419 6.49904 11.8361V9.69515C6.49904 8.91832 6.59292 7.75566 6.65411 6.98409C6.65478 6.97569 6.64813 6.9687 6.63971 6.9687V6.9687C6.63295 6.9687 6.6271 6.97339 6.62562 6.97998L6.20684 8.84974L5.60401 11.3997C5.55906 11.5898 5.38932 11.7241 5.19396 11.7241V11.7241C4.99895 11.7241 4.82943 11.5903 4.78414 11.4006L4.17505 8.84974L3.7698 6.98005C3.76836 6.97343 3.76251 6.9687 3.75573 6.9687V6.9687C3.74734 6.9687 3.74071 6.97567 3.74137 6.98404C3.80257 7.75562 3.89645 8.91831 3.89645 9.69515V11.8463C3.89645 12.1465 3.65306 12.3899 3.35283 12.3899V12.3899Z" fill="black"/>
</svg>
