<svg width="17" height="17" viewBox="0 0 17 17" fill="none" xmlns="http://www.w3.org/2000/svg">
<mask id="mask0_102_837" style="mask-type:alpha" maskUnits="userSpaceOnUse" x="0" y="0" width="17" height="17">
<rect x="0.0397949" y="0.40625" width="16" height="16" fill="#DCDCDC"/>
</mask>
<g mask="url(#mask0_102_837)">
<path fill-rule="evenodd" clip-rule="evenodd" d="M8.65606 2.21865C8.54565 1.9914 8.30498 1.8457 8.04 1.8457C7.77503 1.8457 7.53436 1.9914 7.42395 2.21865L4.03557 9.19303C3.87962 9.514 4.02902 9.89347 4.36926 10.0406C4.70949 10.1877 5.11173 10.0468 5.26767 9.72578L6.21595 7.77393H9.86406L10.8123 9.72578C10.9683 10.0468 11.3705 10.1877 11.7108 10.0406C12.051 9.89347 12.2004 9.514 12.0444 9.19303L8.65606 2.21865ZM9.24286 6.49529H6.83715L8.04 4.01943L9.24286 6.49529Z" fill="black"/>
<path d="M2.39521 11.9449C2.02094 11.9449 1.71753 12.2311 1.71753 12.5842C1.71753 12.9373 2.02094 13.2235 2.39521 13.2235H12.0484L11.3571 13.8757C11.0924 14.1254 11.0924 14.5302 11.3571 14.7799C11.6217 15.0295 12.0508 15.0295 12.3155 14.7799L14.1637 13.0363C14.3575 12.8534 14.4155 12.5784 14.3106 12.3395C14.2057 12.1006 13.9586 11.9449 13.6845 11.9449H2.39521Z" fill="black"/>
</g>
</svg>
