<svg width="25" height="25" viewBox="0 0 25 25" fill="none" xmlns="http://www.w3.org/2000/svg">
<mask id="mask0_339_2573" style="mask-type:alpha" maskUnits="userSpaceOnUse" x="0" y="0" width="25" height="25">
<rect x="0.282593" y="0.943848" width="24" height="24" fill="#DCDCDC"/>
</mask>
<g mask="url(#mask0_339_2573)">
<path fill-rule="evenodd" clip-rule="evenodd" d="M13.2829 3.54921C13.1036 3.18034 12.713 2.94385 12.2829 2.94385C11.8528 2.94385 11.4621 3.18034 11.2829 3.54921L5.78291 14.87C5.52979 15.391 5.77229 16.0069 6.32456 16.2457C6.87683 16.4845 7.52973 16.2557 7.78285 15.7347L9.3221 12.5665H15.2437L16.7829 15.7347C17.036 16.2557 17.6889 16.4845 18.2412 16.2457C18.7935 16.0069 19.036 15.391 18.7829 14.87L13.2829 3.54921ZM14.2353 10.491H10.3304L12.2829 6.47222L14.2353 10.491Z" fill="black"/>
<path d="M3.28262 18.0382C2.6751 18.0382 2.18262 18.5028 2.18262 19.0759C2.18262 19.649 2.6751 20.1137 3.28262 20.1137H18.627L17.5048 21.1723C17.0752 21.5776 17.0752 22.2346 17.5048 22.6399C17.9344 23.0452 18.6309 23.0452 19.0604 22.6399L22.0604 19.8097C22.375 19.5129 22.4691 19.0666 22.2989 18.6788C22.1286 18.291 21.7275 18.0382 21.2826 18.0382H3.28262Z" fill="black"/>
</g>
</svg>
