<svg width="17" height="17" viewBox="0 0 17 17" fill="none" xmlns="http://www.w3.org/2000/svg">
<mask id="mask0_102_793" style="mask-type:alpha" maskUnits="userSpaceOnUse" x="0" y="0" width="17" height="17">
<rect x="0.931824" y="0.236328" width="16" height="16" fill="#DCDCDC"/>
</mask>
<g mask="url(#mask0_102_793)">
<path d="M9.74754 1.59326C10.116 1.59326 10.4146 1.8648 10.4146 2.19975V6.26816C10.4146 6.60311 10.116 6.87465 9.74754 6.87465C9.37912 6.87465 9.08045 6.60311 9.08045 6.26816V2.19975C9.08045 1.8648 9.37912 1.59326 9.74754 1.59326Z" fill="black"/>
<path d="M3.16599 3.4078C3.53441 3.4078 3.83308 3.67933 3.83308 4.01429V12.4935C3.83308 12.8285 3.53441 13.1 3.16599 13.1C2.79757 13.1 2.4989 12.8285 2.4989 12.4935V4.01429C2.4989 3.67933 2.79757 3.4078 3.16599 3.4078Z" fill="black"/>
<path d="M6.29356 7.64742C5.92514 7.64742 5.62648 7.91896 5.62648 8.25391C5.62648 8.58887 5.92514 8.8604 6.29356 8.8604H13.1084L12.6959 9.23991C12.437 9.47818 12.4395 9.86218 12.7016 10.0976C12.9636 10.333 13.386 10.3307 13.645 10.0925L15.1722 8.6872C15.4305 8.44957 15.4288 8.0668 15.1683 7.83111L13.6411 6.4488C13.38 6.21249 12.9576 6.21335 12.6977 6.45073C12.4377 6.68811 12.4387 7.07212 12.6998 7.30844L13.0743 7.64742H6.29356Z" fill="black"/>
<path d="M10.4146 10.2041C10.4146 9.86916 10.116 9.59762 9.74754 9.59762C9.37912 9.59762 9.08045 9.86916 9.08045 10.2041V14.2725C9.08045 14.6075 9.37912 14.879 9.74754 14.879C10.116 14.879 10.4146 14.6075 10.4146 14.2725V10.2041Z" fill="black"/>
</g>
</svg>
