<svg width="25" height="25" viewBox="0 0 25 25" fill="none" xmlns="http://www.w3.org/2000/svg">
<mask id="mask0_331_1198" style="mask-type:alpha" maskUnits="userSpaceOnUse" x="0" y="0" width="25" height="25">
<rect x="0.861816" y="0.836792" width="24" height="24" fill="#DCDCDC"/>
</mask>
<g mask="url(#mask0_331_1198)">
<path d="M10.7617 18.0255C10.7617 17.4523 11.2542 16.9877 11.8617 16.9877H13.8617C14.4692 16.9877 14.9617 17.4523 14.9617 18.0255C14.9617 18.5986 14.4692 19.0632 13.8617 19.0632H11.8617C11.2542 19.0632 10.7617 18.5986 10.7617 18.0255Z" fill="black"/>
<path fill-rule="evenodd" clip-rule="evenodd" d="M7.76172 3.87453C7.76172 3.3014 8.25421 2.83679 8.86172 2.83679H16.8617C17.4692 2.83679 17.9617 3.3014 17.9617 3.87453V6.61038H21.8617C23.0215 6.61038 23.9617 7.49735 23.9617 8.59151V16.1387C23.9617 17.2328 23.0215 18.1198 21.8617 18.1198H17.9617V21.7991C17.9617 22.3722 17.4692 22.8368 16.8617 22.8368H8.86172C8.25421 22.8368 7.76172 22.3722 7.76172 21.7991V18.1198H3.86172C2.70193 18.1198 1.76172 17.2329 1.76172 16.1387V8.59151C1.76172 7.49734 2.70193 6.61038 3.86172 6.61038H7.76172V3.87453ZM7.76172 15.2896H7.36172C6.75421 15.2896 6.26172 14.825 6.26172 14.2519C6.26172 13.6788 6.75421 13.2142 7.36172 13.2142H18.3617C18.9692 13.2142 19.4617 13.6788 19.4617 14.2519C19.4617 14.825 18.9692 15.2896 18.3617 15.2896H17.9617V16.0443H21.7617V8.68585H19.9617V10.4783C19.9617 11.0514 19.4692 11.516 18.8617 11.516H6.86172C6.25421 11.516 5.76172 11.0514 5.76172 10.4783V8.68585H3.96172V16.0443H7.76172V15.2896ZM9.96172 15.2896V20.7613H15.7617V15.2896H9.96172ZM15.7617 7.64811C15.7617 8.22124 16.2542 8.68585 16.8617 8.68585H17.7617V9.44057H7.96172V8.68585H8.86172C9.46923 8.68585 9.96172 8.22124 9.96172 7.64811V4.91226H15.7617V7.64811Z" fill="black"/>
</g>
</svg>
