<svg width="17" height="17" viewBox="0 0 17 17" fill="none" xmlns="http://www.w3.org/2000/svg">
<mask id="mask0_102_662" style="mask-type:alpha" maskUnits="userSpaceOnUse" x="0" y="0" width="17" height="17">
<rect x="0.0695801" y="0.0600586" width="16" height="16" fill="#DCDCDC"/>
</mask>
<g mask="url(#mask0_102_662)">
<path d="M6.74493 11.5491C6.74493 11.1876 7.05556 10.8945 7.43875 10.8945H8.70023C9.08342 10.8945 9.39405 11.1876 9.39405 11.5491C9.39405 11.9106 9.08342 12.2036 8.70023 12.2036H7.43875C7.05556 12.2036 6.74493 11.9106 6.74493 11.5491Z" fill="black"/>
<path fill-rule="evenodd" clip-rule="evenodd" d="M4.8527 2.19061C4.8527 1.82911 5.16333 1.53606 5.54652 1.53606H10.5925C10.9756 1.53606 11.2863 1.82911 11.2863 2.19061L11.2863 4.34906H13.7462C14.4777 4.34906 15.0707 4.90851 15.0707 5.59865V10.359C15.0707 11.0491 14.4777 11.6086 13.7462 11.6086H11.2863V13.9292C11.2863 14.2907 10.9756 14.5838 10.5925 14.5838H5.54651C5.16333 14.5838 4.8527 14.2907 4.8527 13.9292V11.6086H2.3928C1.66127 11.6086 1.06824 11.0491 1.06824 10.359V5.59865C1.06824 4.90851 1.66127 4.34906 2.3928 4.34906H4.8527L4.8527 2.19061ZM4.8527 9.82344H4.6004C4.21722 9.82344 3.90658 9.53039 3.90658 9.16889C3.90658 8.8074 4.21722 8.51435 4.6004 8.51435H11.5386C11.9218 8.51435 12.2324 8.8074 12.2324 9.16889C12.2324 9.53039 11.9218 9.82344 11.5386 9.82344H11.2863V10.2995H13.6831V5.65815H12.5478V6.78873C12.5478 7.15023 12.2371 7.44328 11.8539 7.44328H4.28503C3.90184 7.44328 3.59121 7.15023 3.59121 6.78873V5.65815H2.45587V10.2995H4.8527V9.82344ZM6.24033 9.82344V13.2747H9.89864V9.82344H6.24033ZM9.89864 5.00361C9.89864 5.3651 10.2093 5.65815 10.5925 5.65815H11.1601V6.13419H4.97885V5.65815H5.54651C5.9297 5.65815 6.24033 5.3651 6.24033 5.00361L6.24033 2.84515H9.89865L9.89864 5.00361Z" fill="black"/>
</g>
</svg>
