<svg width="15" height="14" viewBox="0 0 15 14" fill="none" xmlns="http://www.w3.org/2000/svg">
<path fill-rule="evenodd" clip-rule="evenodd" d="M0.800171 10.8102L0.800171 12.1743C0.800171 12.8371 1.33743 13.3743 2.00017 13.3743L3.3643 13.3743L3.3643 12.0443L2.13017 12.0443L2.13017 10.8102L0.800171 10.8102ZM3.3643 0.0612792L2.00017 0.0612793C1.33743 0.0612793 0.800171 0.598538 0.800171 1.26128L0.800171 2.62541L2.13017 2.62541L2.13017 1.39128L3.3643 1.39128L3.3643 0.0612792ZM0.800171 8.08192L2.13017 8.08192L2.13017 5.35367L0.800171 5.35367L0.800171 8.08192ZM6.09256 0.0612792L6.09256 1.39128L8.82081 1.39128L8.82081 0.0612791L6.09256 0.0612792ZM11.5491 0.0612791L11.5491 1.39128L12.7832 1.39128L12.7832 2.62541L14.1132 2.62541L14.1132 1.26128C14.1132 0.598537 13.5759 0.061279 12.9132 0.061279L11.5491 0.0612791ZM14.1132 5.35367L12.7832 5.35367L12.7832 8.08192L14.1132 8.08192L14.1132 5.35367ZM14.1132 10.8102L12.7832 10.8102L12.7832 12.0443L11.5491 12.0443L11.5491 13.3743L12.9132 13.3743C13.5759 13.3743 14.1132 12.8371 14.1132 12.1743L14.1132 10.8102ZM8.82082 13.3743L8.82082 12.0443L6.09256 12.0443L6.09256 13.3743L8.82082 13.3743Z" fill="#E5E5E5"/>
</svg>
