<svg width="14" height="15" viewBox="0 0 14 15" fill="none" xmlns="http://www.w3.org/2000/svg">
<path fill-rule="evenodd" clip-rule="evenodd" d="M3.2603 0.824951L1.89617 0.824951C1.23343 0.824951 0.696171 1.36221 0.696171 2.02495L0.696171 3.38908L2.02617 3.38908L2.02617 2.15495L3.2603 2.15495L3.2603 0.824951ZM14.0092 3.38908L14.0092 2.02495C14.0092 1.36221 13.4719 0.824951 12.8092 0.824951L11.4451 0.824951L11.4451 2.15495L12.6792 2.15495L12.6792 3.38908L14.0092 3.38908ZM5.98856 0.824951L5.98856 2.15495L8.71681 2.15495L8.71681 0.824951L5.98856 0.824951ZM14.0092 6.11734L12.6792 6.11734L12.6792 8.84559L14.0092 8.84559L14.0092 6.11734ZM14.0092 11.5739L12.6792 11.5739L12.6792 12.808L11.4451 12.808L11.4451 14.138L12.8092 14.138C13.4719 14.138 14.0092 13.6007 14.0092 12.938L14.0092 11.5739ZM8.71681 14.138L8.71681 12.808L5.98856 12.808L5.98856 14.138L8.71681 14.138ZM3.2603 14.138L3.2603 12.808L2.02617 12.808L2.02617 11.5739L0.696171 11.5739L0.696171 12.938C0.696171 13.6007 1.23343 14.138 1.89617 14.138L3.2603 14.138ZM0.696171 8.8456L2.02617 8.8456L2.02617 6.11734L0.696171 6.11734L0.696171 8.8456Z" fill="#E5E5E5"/>
</svg>
