<svg width="15" height="15" viewBox="0 0 15 15" fill="none" xmlns="http://www.w3.org/2000/svg">
<path fill-rule="evenodd" clip-rule="evenodd" d="M3.44524 0.824951L2.08111 0.824951C1.41837 0.824951 0.881107 1.36221 0.881107 2.02495L0.881107 3.38908L2.21111 3.38908L2.21111 2.15495L3.44524 2.15495L3.44524 0.824951ZM14.1941 3.38908L14.1941 2.02495C14.1941 1.36221 13.6569 0.824951 12.9941 0.824951L11.63 0.824951L11.63 2.15495L12.8641 2.15495L12.8641 3.38908L14.1941 3.38908ZM6.17349 0.824951L6.17349 2.15495L8.90175 2.15495L8.90175 0.824951L6.17349 0.824951ZM14.1941 6.11734L12.8641 6.11734L12.8641 8.84559L14.1941 8.84559L14.1941 6.11734ZM14.1941 11.5739L12.8641 11.5739L12.8641 12.808L11.63 12.808L11.63 14.138L12.9941 14.138C13.6569 14.138 14.1941 13.6007 14.1941 12.938L14.1941 11.5739ZM8.90175 14.138L8.90175 12.808L6.17349 12.808L6.17349 14.138L8.90175 14.138ZM3.44524 14.138L3.44524 12.808L2.21111 12.808L2.21111 11.5739L0.881107 11.5739L0.881107 12.938C0.881107 13.6007 1.41837 14.138 2.08111 14.138L3.44524 14.138ZM0.881107 8.8456L2.21111 8.8456L2.21111 6.11734L0.881107 6.11734L0.881107 8.8456Z" fill="#E5E5E5"/>
</svg>
