<svg width="14" height="14" viewBox="0 0 14 14" fill="none" xmlns="http://www.w3.org/2000/svg">
<path fill-rule="evenodd" clip-rule="evenodd" d="M0.696289 10.8102L0.696289 12.1743C0.696289 12.8371 1.23355 13.3743 1.89629 13.3743L3.26042 13.3743L3.26042 12.0443L2.02629 12.0443L2.02629 10.8102L0.696289 10.8102ZM3.26042 0.0612792L1.89629 0.0612793C1.23355 0.0612793 0.696289 0.598538 0.696289 1.26128L0.696289 2.62541L2.02629 2.62541L2.02629 1.39128L3.26042 1.39128L3.26042 0.0612792ZM0.696289 8.08192L2.02629 8.08192L2.02629 5.35367L0.696289 5.35367L0.696289 8.08192ZM5.98868 0.0612792L5.98868 1.39128L8.71693 1.39128L8.71693 0.0612791L5.98868 0.0612792ZM11.4452 0.0612791L11.4452 1.39128L12.6793 1.39128L12.6793 2.62541L14.0093 2.62541L14.0093 1.26128C14.0093 0.598537 13.4721 0.061279 12.8093 0.061279L11.4452 0.0612791ZM14.0093 5.35367L12.6793 5.35367L12.6793 8.08192L14.0093 8.08192L14.0093 5.35367ZM14.0093 10.8102L12.6793 10.8102L12.6793 12.0443L11.4452 12.0443L11.4452 13.3743L12.8093 13.3743C13.4721 13.3743 14.0093 12.8371 14.0093 12.1743L14.0093 10.8102ZM8.71693 13.3743L8.71693 12.0443L5.98868 12.0443L5.98868 13.3743L8.71693 13.3743Z" fill="#E5E5E5"/>
</svg>
