<svg width="14" height="14" viewBox="0 0 14 14" fill="none" xmlns="http://www.w3.org/2000/svg">
<path fill-rule="evenodd" clip-rule="evenodd" d="M0.675904 10.8102L0.675904 12.1743C0.675904 12.8371 1.21316 13.3743 1.8759 13.3743L3.24003 13.3743L3.24003 12.0443L2.0059 12.0443L2.0059 10.8102L0.675904 10.8102ZM3.24003 0.0612792L1.8759 0.0612793C1.21316 0.0612793 0.675903 0.598538 0.675903 1.26128L0.675903 2.62541L2.0059 2.62541L2.0059 1.39128L3.24003 1.39128L3.24003 0.0612792ZM0.675903 8.08192L2.0059 8.08192L2.0059 5.35367L0.675903 5.35367L0.675903 8.08192ZM5.96829 0.0612792L5.96829 1.39128L8.69655 1.39128L8.69655 0.0612791L5.96829 0.0612792ZM11.4248 0.0612791L11.4248 1.39128L12.6589 1.39128L12.6589 2.62541L13.9889 2.62541L13.9889 1.26128C13.9889 0.598537 13.4517 0.061279 12.7889 0.061279L11.4248 0.0612791ZM13.9889 5.35367L12.6589 5.35367L12.6589 8.08192L13.9889 8.08192L13.9889 5.35367ZM13.9889 10.8102L12.6589 10.8102L12.6589 12.0443L11.4248 12.0443L11.4248 13.3743L12.7889 13.3743C13.4517 13.3743 13.9889 12.8371 13.9889 12.1743L13.9889 10.8102ZM8.69655 13.3743L8.69655 12.0443L5.96829 12.0443L5.96829 13.3743L8.69655 13.3743Z" fill="#E5E5E5"/>
</svg>
