<svg width="17" height="17" viewBox="0 0 17 17" fill="none" xmlns="http://www.w3.org/2000/svg">
<mask id="mask0_102_745" style="mask-type:alpha" maskUnits="userSpaceOnUse" x="0" y="0" width="17" height="17">
<rect x="0.882446" y="0.236328" width="16" height="16" fill="#DCDCDC"/>
</mask>
<g mask="url(#mask0_102_745)">
<path d="M2.2157 4.236L2.2157 2.90267C2.2157 2.16629 2.81265 1.56934 3.54903 1.56934L4.88237 1.56934L4.88237 2.90267L3.54903 2.90267L3.54903 4.236L2.2157 4.236Z" fill="black"/>
<path d="M10.2157 1.56934L10.2157 2.90267L7.54903 2.90267L7.54903 1.56934L10.2157 1.56934Z" fill="black"/>
<path d="M2.2157 6.90267L3.54903 6.90267L3.54903 7.56934L6.2157 7.56934L6.2157 8.90267L3.54903 8.90267L3.54903 9.56934L2.2157 9.56934L2.2157 6.90267Z" fill="black"/>
<path d="M2.2157 12.236L3.54903 12.236L3.54903 13.5693L4.88237 13.5693L4.88237 14.9027L3.54903 14.9027C2.81265 14.9027 2.2157 14.3057 2.2157 13.5693L2.2157 12.236Z" fill="black"/>
<path d="M7.54903 14.9027L7.54903 13.5693L8.2157 13.5693L8.2157 10.9027L9.54903 10.9027L9.54903 13.5693L10.2157 13.5693L10.2157 14.9027L7.54903 14.9027Z" fill="black"/>
<path d="M14.2157 7.56934L11.549 7.56934L11.549 8.90267L14.2157 8.90267L14.2157 7.56934Z" fill="black"/>
<path d="M8.2157 5.56934L8.2157 2.90267L9.54903 2.90267L9.54903 5.56934L8.2157 5.56934Z" fill="black"/>
<path d="M14.2158 1.56934L12.8824 1.56934L12.8824 2.90267L14.2158 2.90267L14.2158 13.5693L12.8824 13.5693L12.8824 14.9027L14.2158 14.9027C14.9522 14.9027 15.5491 14.3057 15.5491 13.5693L15.5491 2.90267C15.5491 2.16629 14.9522 1.56934 14.2158 1.56934Z" fill="black"/>
</g>
</svg>
