<svg width="17" height="17" viewBox="0 0 17 17" fill="none" xmlns="http://www.w3.org/2000/svg">
<path fill-rule="evenodd" clip-rule="evenodd" d="M15.8672 8.10658C15.8672 8.38029 15.7077 8.62889 15.4588 8.74293L11.4588 10.5763L11.4588 10.5763L10.1255 11.1874L10.1255 11.1874L7.45885 12.4096C7.1074 12.5707 6.69192 12.4164 6.53084 12.0649C6.36976 11.7135 6.52408 11.298 6.87553 11.1369L9.13385 10.1018L9.13385 6.11134L6.87553 5.07626C6.52408 4.91518 6.36976 4.4997 6.53084 4.14826C6.69192 3.79681 7.1074 3.64249 7.45885 3.80357L10.1255 5.0258L10.1255 5.02581L11.4588 5.6369L11.4588 5.6369L15.4588 7.47024C15.7077 7.58428 15.8672 7.83288 15.8672 8.10658ZM10.5339 6.753L10.5339 9.46017L10.8755 9.30357L10.8755 9.30357L13.4871 8.10658L10.8755 6.9096L10.8755 6.90959L10.5339 6.753Z" fill="black"/>
<path fill-rule="evenodd" clip-rule="evenodd" d="M4.50068 1.40625C4.88728 1.40625 5.20068 1.71965 5.20068 2.10625L5.20068 14.1062C5.20068 14.3894 5.03013 14.6446 4.76856 14.753C4.50699 14.8613 4.20591 14.8014 4.00571 14.6012L2.00571 12.6012C1.73234 12.3279 1.73234 11.8846 2.00571 11.6113C2.27908 11.3379 2.72229 11.3379 2.99566 11.6113L3.80068 12.4163L3.80068 2.10625C3.80068 1.71965 4.11408 1.40625 4.50068 1.40625Z" fill="black"/>
</svg>
