<svg width="17" height="17" viewBox="0 0 17 17" fill="none" xmlns="http://www.w3.org/2000/svg">
<mask id="mask0_102_805" style="mask-type:alpha" maskUnits="userSpaceOnUse" x="0" y="0" width="17" height="17">
<rect x="0.342407" y="0.178711" width="16" height="16" fill="#DCDCDC"/>
</mask>
<g mask="url(#mask0_102_805)">
<path fill-rule="evenodd" clip-rule="evenodd" d="M14.7178 3.08155C14.8072 2.82318 14.7346 2.52754 14.5318 2.32479C14.3291 2.12203 14.0334 2.04936 13.7751 2.13877L5.84568 4.88269C5.48075 5.00897 5.30471 5.41365 5.45249 5.78656C5.60026 6.15947 6.01588 6.35941 6.38081 6.23313L8.59994 5.46522L11.3914 8.25667L10.6235 10.4758C10.4972 10.8407 10.6971 11.2563 11.07 11.4041C11.443 11.5519 11.8476 11.3759 11.9739 11.0109L14.7178 3.08155ZM11.8944 6.80295L10.0537 4.96216L12.8685 3.98808L11.8944 6.80295Z" fill="black"/>
<path d="M3.17352 5.19756C2.88713 4.91117 2.43595 4.89803 2.16578 5.16821C1.8956 5.43838 1.90875 5.88956 2.19513 6.17594L9.42853 13.4093L8.40047 13.3794C8.00693 13.3679 7.69719 13.6777 7.70865 14.0712C7.72011 14.4648 8.04843 14.7931 8.44198 14.8046L11.1904 14.8846C11.4786 14.893 11.7333 14.727 11.8359 14.4639C11.9384 14.2008 11.8685 13.8926 11.6588 13.6828L3.17352 5.19756Z" fill="black"/>
</g>
</svg>
