<svg width="25" height="25" viewBox="0 0 25 25" fill="none" xmlns="http://www.w3.org/2000/svg">
<mask id="mask0_331_1458" style="mask-type:alpha" maskUnits="userSpaceOnUse" x="0" y="0" width="25" height="25">
<rect x="0.0327148" y="0.943848" width="24" height="24" fill="#DCDCDC"/>
</mask>
<g mask="url(#mask0_331_1458)">
<path fill-rule="evenodd" clip-rule="evenodd" d="M21.5959 5.15137C21.73 4.76383 21.621 4.32037 21.3168 4.01624C21.0127 3.7121 20.5692 3.60309 20.1817 3.7372L8.28763 7.8531C7.74023 8.04252 7.47617 8.64953 7.69783 9.2089C7.91949 9.76827 8.54292 10.0682 9.09032 9.87874L12.419 8.72688L16.6062 12.9141L15.4543 16.2427C15.2649 16.7901 15.5648 17.4136 16.1242 17.6352C16.6835 17.8569 17.2906 17.5928 17.48 17.0454L21.5959 5.15137ZM17.3608 10.7335L14.5996 7.97229L18.8219 6.51117L17.3608 10.7335Z" fill="black"/>
<path d="M4.27937 8.32539C3.8498 7.89582 3.17303 7.87611 2.76777 8.28137C2.3625 8.68663 2.38222 9.3634 2.81179 9.79297L13.6619 20.6431L12.1198 20.5982C11.5295 20.581 11.0649 21.0456 11.0821 21.6359C11.0993 22.2262 11.5918 22.7187 12.1821 22.7359L16.3046 22.856C16.737 22.8686 17.1191 22.6195 17.2729 22.2249C17.4267 21.8303 17.3219 21.3679 17.0073 21.0533L4.27937 8.32539Z" fill="black"/>
</g>
</svg>
