<svg width="25" height="25" viewBox="0 0 25 25" fill="none" xmlns="http://www.w3.org/2000/svg">
<mask id="mask0_331_1433" style="mask-type:alpha" maskUnits="userSpaceOnUse" x="0" y="0" width="25" height="25">
<rect x="0.61377" y="0.0263672" width="24" height="24" fill="#DCDCDC"/>
</mask>
<g mask="url(#mask0_331_1433)">
<path fill-rule="evenodd" clip-rule="evenodd" d="M2.61377 3.93113C2.61377 2.87916 3.46656 2.02637 4.51853 2.02637H20.709C21.761 2.02637 22.6138 2.87916 22.6138 3.93113V20.1216C22.6138 21.1736 21.761 22.0264 20.709 22.0264H4.51853C3.46656 22.0264 2.61377 21.1736 2.61377 20.1216V3.93113ZM16.4233 20.1216H20.709V15.8359H16.4233V20.1216ZM14.5185 15.8359V20.1216H10.2328V15.8359H14.5185ZM16.4233 13.9311H20.709V10.1216H16.4233V13.9311ZM14.5185 10.1216V13.9311H10.2328V10.1216H14.5185ZM16.4233 8.21684H20.709V3.93113H16.4233V8.21684ZM14.5185 3.93113V8.21684H10.2328V3.93113H14.5185ZM4.51853 3.93113H8.32806V8.21684H4.51853V3.93113ZM4.51853 10.1216H8.32806V13.9311H4.51853V10.1216ZM4.51853 15.8359H8.32806V20.1216H4.51853V15.8359Z" fill="black"/>
</g>
</svg>
