<svg width="17" height="16" viewBox="0 0 17 16" fill="none" xmlns="http://www.w3.org/2000/svg">
<path d="M10.7914 11.9302C10.4814 11.9302 10.2301 11.5394 10.2301 11.0574V6.74679C10.2301 6.28864 10.4689 5.91723 10.7635 5.91723H10.7914C11.0361 5.91723 11.2449 6.19232 11.2851 6.56765L11.294 6.6501C11.2957 6.66626 11.3047 6.6781 11.3152 6.6781Lnan nanLnan nanL11.3152 6.6781C11.3209 6.6781 11.3264 6.67455 11.3305 6.66828C11.6479 6.176 11.9799 5.76929 12.4997 5.76929C13.0366 5.76929 13.3627 6.11802 13.5598 6.76264C13.8928 6.23426 14.2529 5.76929 14.7693 5.76929C15.612 5.76929 15.9789 6.7098 15.9789 8.2104V10.9897C15.9789 11.5091 15.7081 11.9302 15.3741 11.9302Lnan nanLnan nanL15.3741 11.9302C15.0401 11.9302 14.7693 11.5091 14.7693 10.9897V8.44289C14.7693 7.61862 14.6334 7.37556 14.3277 7.37556Lnan nanL14.3277 7.37556C13.8616 7.37556 13.7093 8.31995 13.7093 9.04476V10.9844C13.7093 11.5068 13.437 11.9302 13.1011 11.9302Lnan nanLnan nanL13.1011 11.9302C12.7652 11.9302 12.4929 11.5068 12.4929 10.9844V8.44289C12.4929 7.61862 12.357 7.37556 12.0512 7.37556Lnan nanLnan nanL12.0512 7.37556C11.5852 7.37556 11.4329 8.31995 11.4329 9.04476V10.995C11.4329 11.5115 11.1636 11.9302 10.8315 11.9302H10.7914Z" fill="black"/>
<path d="M6.94556 12.0782C6.10295 12.0782 5.7428 11.1376 5.7428 9.63703V6.85775C5.7428 6.33832 6.01357 5.91724 6.34758 5.91724V5.91724C6.68159 5.91724 6.95236 6.33832 6.95236 6.85775V9.40455C6.95236 10.2394 7.09506 10.4719 7.40085 10.4719C7.46459 10.4719 7.52272 10.4626 7.57701 10.4426C7.96634 10.2995 8.0464 9.5245 8.0464 8.90233V6.85775C8.0464 6.33832 8.31717 5.91724 8.65118 5.91724V5.91724C8.98519 5.91724 9.25596 6.33832 9.25596 6.85775V11.1006C9.25596 11.5588 9.01713 11.9302 8.72252 11.9302H8.53931C8.38427 11.9302 8.25196 11.7559 8.22647 11.5181L8.18518 11.1328C8.18352 11.1173 8.17489 11.1059 8.16477 11.1059V11.1059C8.15865 11.1059 8.15283 11.1102 8.14888 11.1175C7.83105 11.7027 7.47214 12.0782 6.94556 12.0782Z" fill="black"/>
<path d="M3.10861 12.0781C2.61145 12.0781 2.08723 11.8617 1.63509 11.4334C1.38543 11.1969 1.3645 10.6728 1.55002 10.3215V10.3215C1.74558 9.95108 2.09683 9.91256 2.3715 10.1299C2.62501 10.3304 2.89287 10.4507 3.13579 10.4507C3.58428 10.4507 3.79493 10.1865 3.79493 9.76381C3.79493 9.3094 3.51633 9.16145 3.08143 8.87613L2.43588 8.45342C1.90585 8.12583 1.40979 7.43893 1.40979 6.29763C1.40979 4.97668 2.17086 3.91992 3.24451 3.91992C3.68279 3.91992 4.14017 4.11606 4.52781 4.50389C4.7503 4.72649 4.76469 5.19876 4.6001 5.52088V5.52088C4.42438 5.86477 4.10925 5.908 3.85051 5.73186C3.66222 5.60368 3.46628 5.53677 3.24451 5.53677C2.87077 5.53677 2.63973 5.76925 2.63973 6.19196C2.63973 6.62523 2.95911 6.79431 3.4076 7.06907L4.03956 7.46007C4.66473 7.85107 5.03847 8.50626 5.03847 9.61586C5.03847 10.9262 4.33176 12.0781 3.10861 12.0781Z" fill="black"/>
</svg>
