<svg width="25" height="25" viewBox="0 0 25 25" fill="none" xmlns="http://www.w3.org/2000/svg">
<mask id="mask0_331_1338" style="mask-type:alpha" maskUnits="userSpaceOnUse" x="0" y="0" width="25" height="25">
<rect x="0.295898" y="0.13623" width="24" height="24" fill="#DCDCDC"/>
</mask>
<g mask="url(#mask0_331_1338)">
<path d="M13.385 3.22534C13.385 2.62384 12.8974 2.13623 12.2959 2.13623C11.6944 2.13623 11.2068 2.62384 11.2068 3.22534V11.9821L10.0957 10.8711C9.67039 10.4457 8.98081 10.4457 8.55548 10.8711C8.13016 11.2964 8.13016 11.986 8.55548 12.4113L11.5249 15.3807C11.5276 15.3834 11.5302 15.386 11.5329 15.3887C11.6348 15.4888 11.7516 15.5648 11.8759 15.6167C12.0052 15.6707 12.1471 15.7006 12.2959 15.7006C12.593 15.7006 12.8624 15.5816 13.0589 15.3887C13.0616 15.386 13.0642 15.3834 13.0669 15.3807L16.0363 12.4113C16.4616 11.986 16.4616 11.2964 16.0363 10.8711C15.611 10.4457 14.9214 10.4457 14.4961 10.8711L13.385 11.9821V3.22534Z" fill="black"/>
<path d="M3.38501 17.139C2.78351 17.139 2.2959 17.6266 2.2959 18.2281C2.2959 18.8296 2.78351 19.3173 3.38501 19.3173H21.2068C21.8083 19.3173 22.2959 18.8296 22.2959 18.2281C22.2959 17.6266 21.8083 17.139 21.2068 17.139H3.38501Z" fill="black"/>
<path d="M3.38501 19.958C2.78351 19.958 2.2959 20.4456 2.2959 21.0471C2.2959 21.6486 2.78351 22.1362 3.38501 22.1362H21.2068C21.8083 22.1362 22.2959 21.6486 22.2959 21.0471C22.2959 20.4456 21.8083 19.958 21.2068 19.958H3.38501Z" fill="black"/>
</g>
</svg>
