<svg width="25" height="25" viewBox="0 0 25 25" fill="none" xmlns="http://www.w3.org/2000/svg">
<mask id="mask0_331_1211" style="mask-type:alpha" maskUnits="userSpaceOnUse" x="0" y="0" width="25" height="25">
<rect x="0.958984" y="0.836792" width="24" height="24" fill="#DCDCDC"/>
</mask>
<g mask="url(#mask0_331_1211)">
<path d="M21.5521 7.47113C22.0539 7.47113 22.3048 7.16611 22.3048 6.55607C22.3048 6.26089 22.2409 6.03459 22.113 5.87716C21.985 5.70989 21.803 5.62625 21.5669 5.62625H19.6039V3.5895C19.6039 3.0877 19.2989 2.83679 18.6889 2.83679C18.3838 2.83679 18.1526 2.90567 17.9952 3.04342C17.8378 3.17133 17.759 3.34844 17.759 3.57474V5.62625H15.9584C15.6436 5.62625 15.4124 5.70497 15.2648 5.8624C15.127 6.01983 15.0581 6.25105 15.0581 6.55607C15.0581 6.85125 15.127 7.07756 15.2648 7.23499C15.4025 7.39242 15.6288 7.47113 15.9437 7.47113H17.759V9.47837C17.759 9.79323 17.8378 10.0244 17.9952 10.172C18.1526 10.3098 18.3838 10.3787 18.6889 10.3787C18.984 10.3787 19.2103 10.3098 19.3678 10.172C19.5252 10.0343 19.6039 9.80798 19.6039 9.49312V7.47113H21.5521Z" fill="black"/>
<path fill-rule="evenodd" clip-rule="evenodd" d="M6.86771 20.9371L7.90506 18.0274H14.6099L16.0015 21.8985C16.0858 22.1853 16.2123 22.413 16.381 22.5817C16.5665 22.7672 16.8027 22.8516 17.0894 22.8347C17.528 22.8347 17.8063 22.6997 17.9243 22.4299C18.0424 22.1431 18.034 21.7973 17.899 21.3925L12.5605 5.88286C12.4761 5.61298 12.3243 5.40213 12.1051 5.25033C11.8858 5.08165 11.599 4.99731 11.2448 4.99731C10.9075 4.99731 10.6292 5.08165 10.4099 5.25033C10.2075 5.40213 10.0641 5.61298 9.97976 5.88286L4.6665 21.3419C4.48096 21.9154 4.48096 22.3034 4.6665 22.5058C4.85204 22.725 5.11349 22.8347 5.45084 22.8347C5.63638 22.8347 5.79662 22.7756 5.93156 22.6576C6.08337 22.5564 6.20988 22.413 6.31108 22.2275C6.42915 22.0419 6.53036 21.8395 6.6147 21.6202C6.69903 21.4009 6.78337 21.1732 6.86771 20.9371ZM11.2701 7.57804L14.1545 16.2564H8.38578L11.2701 7.57804Z" fill="black"/>
</g>
</svg>
