<svg width="25" height="25" viewBox="0 0 25 25" fill="none" xmlns="http://www.w3.org/2000/svg">
<mask id="mask0_331_1214" style="mask-type:alpha" maskUnits="userSpaceOnUse" x="0" y="0" width="25" height="25">
<rect x="0.577026" y="0.836792" width="24" height="24" fill="#DCDCDC"/>
</mask>
<g mask="url(#mask0_331_1214)">
<path fill-rule="evenodd" clip-rule="evenodd" d="M5.65139 20.707L6.81437 17.445H14.3312L15.8913 21.7849C15.9859 22.1064 16.1277 22.3617 16.3168 22.5508C16.5248 22.7588 16.7896 22.8533 17.111 22.8344C17.6027 22.8344 17.9147 22.6831 18.0471 22.3806C18.1795 22.0591 18.17 21.6714 18.0187 21.2176L12.0336 3.82958C11.9391 3.52702 11.7689 3.29064 11.523 3.12045C11.2772 2.93134 10.9557 2.83679 10.5586 2.83679C10.1804 2.83679 9.86839 2.93134 9.62255 3.12045C9.39563 3.29064 9.23489 3.52702 9.14034 3.82958L3.1836 21.1609C2.97558 21.8038 2.97558 22.2388 3.1836 22.4657C3.39161 22.7115 3.68472 22.8344 4.06293 22.8344C4.27094 22.8344 4.45059 22.7682 4.60187 22.6359C4.77206 22.5224 4.91389 22.3617 5.02735 22.1537C5.15972 21.9456 5.27319 21.7187 5.36774 21.4729C5.46229 21.2271 5.55684 20.9718 5.65139 20.707ZM10.587 5.73007L13.8206 15.4594H7.35332L10.587 5.73007Z" fill="black"/>
<path d="M21.2825 5.62554C21.8451 5.62554 22.1264 5.28358 22.1264 4.59965C22.1264 4.26872 22.0547 4.01501 21.9113 3.83852C21.7679 3.65099 21.5638 3.55722 21.299 3.55722H15.8387C15.4857 3.55722 15.2265 3.64547 15.061 3.82197C14.9066 3.99846 14.8294 4.25769 14.8294 4.59965C14.8294 4.94162 14.9066 5.20084 15.061 5.37734C15.2154 5.54281 15.4691 5.62554 15.8221 5.62554H21.2825Z" fill="black"/>
</g>
</svg>
