<svg width="25" height="25" viewBox="0 0 25 25" fill="none" xmlns="http://www.w3.org/2000/svg">
<mask id="mask0_331_1344" style="mask-type:alpha" maskUnits="userSpaceOnUse" x="0" y="0" width="25" height="25">
<rect x="0.56543" y="0.13623" width="24" height="24" fill="#DCDCDC"/>
</mask>
<g mask="url(#mask0_331_1344)">
<path d="M12.5655 2.13623C13.1128 2.13623 13.5565 2.57992 13.5565 3.12723V7.0409L14.5675 6.02991C14.9545 5.6429 15.582 5.6429 15.969 6.02991C16.356 6.41692 16.356 7.04439 15.969 7.4314L13.2663 10.1341C12.8792 10.5211 12.2518 10.5211 11.8648 10.1341L9.16203 7.4314C8.77502 7.04439 8.77502 6.41692 9.16203 6.02991C9.54904 5.6429 10.1765 5.6429 10.5635 6.02991L11.5745 7.0409V3.12723C11.5745 2.57992 12.0182 2.13623 12.5655 2.13623Z" fill="black"/>
<path d="M9.16203 16.8408L11.8648 14.1381C12.2518 13.7511 12.8792 13.7511 13.2663 14.1381L15.969 16.8408C16.356 17.2279 16.356 17.8553 15.969 18.2423C15.582 18.6293 14.9545 18.6293 14.5675 18.2423L13.5565 17.2313V21.1452C13.5565 21.6925 13.1128 22.1362 12.5655 22.1362C12.0182 22.1362 11.5745 21.6925 11.5745 21.1452V17.2313L10.5635 18.2423C10.1765 18.6293 9.54904 18.6293 9.16203 18.2423C8.77502 17.8553 8.77502 17.2279 9.16203 16.8408Z" fill="black"/>
<path d="M4.45731 11.1453C3.91 11.1453 3.46631 11.589 3.46631 12.1363C3.46631 12.6837 3.91 13.1273 4.45731 13.1273H20.6737C21.221 13.1273 21.6647 12.6837 21.6647 12.1363C21.6647 11.589 21.221 11.1453 20.6737 11.1453H4.45731Z" fill="black"/>
</g>
</svg>
