<svg width="25" height="25" viewBox="0 0 25 25" fill="none" xmlns="http://www.w3.org/2000/svg">
<mask id="mask0_331_1347" style="mask-type:alpha" maskUnits="userSpaceOnUse" x="0" y="0" width="25" height="25">
<rect x="0.0263672" y="0.13623" width="24" height="24" fill="#DCDCDC"/>
</mask>
<g mask="url(#mask0_331_1347)">
<path d="M3.23516 2.13623C3.90276 2.13623 4.44395 2.67742 4.44395 3.34502V20.9274C4.44395 21.595 3.90276 22.1362 3.23516 22.1362C2.56756 22.1362 2.02637 21.595 2.02637 20.9274V3.34502C2.02637 2.67742 2.56756 2.13623 3.23516 2.13623Z" fill="black"/>
<path d="M20.8176 2.13623C21.4852 2.13623 22.0264 2.67742 22.0264 3.34502V20.9274C22.0264 21.595 21.4852 22.1362 20.8176 22.1362C20.15 22.1362 19.6088 21.595 19.6088 20.9274V13.3496H9.857C9.18941 13.3496 8.64821 12.8084 8.64821 12.1408C8.64821 11.4732 9.18941 10.932 9.857 10.932H19.6088V3.34502C19.6088 2.67742 20.15 2.13623 20.8176 2.13623Z" fill="black"/>
</g>
</svg>
