<svg width="17" height="17" viewBox="0 0 17 17" fill="none" xmlns="http://www.w3.org/2000/svg">
<mask id="mask0_102_796" style="mask-type:alpha" maskUnits="userSpaceOnUse" x="0" y="0" width="17" height="17">
<rect x="0.874756" y="0.236328" width="15.9998" height="15.9998" fill="#DCDCDC"/>
</mask>
<g mask="url(#mask0_102_796)">
<path d="M2.82736 1.5498C3.18027 1.5498 3.46636 1.8359 3.46636 2.18881V14.2834C3.46636 14.6364 3.18027 14.9224 2.82736 14.9224C2.47445 14.9224 2.18835 14.6364 2.18835 14.2834V2.18881C2.18835 1.8359 2.47445 1.5498 2.82736 1.5498Z" fill="black"/>
<path d="M14.922 1.5498C15.2749 1.5498 15.561 1.8359 15.561 2.18881V14.2834C15.561 14.6364 15.2749 14.9224 14.922 14.9224C14.5691 14.9224 14.283 14.6364 14.283 14.2834V8.87754H6.92788C6.57496 8.87754 6.28887 8.59144 6.28887 8.23853C6.28887 7.88562 6.57496 7.59952 6.92788 7.59952H14.283V2.18881C14.283 1.8359 14.5691 1.5498 14.922 1.5498Z" fill="black"/>
</g>
</svg>
