<svg width="17" height="17" viewBox="0 0 17 17" fill="none" xmlns="http://www.w3.org/2000/svg">
<mask id="mask0_102_730" style="mask-type:alpha" maskUnits="userSpaceOnUse" x="0" y="0" width="17" height="17">
<rect x="0.882446" y="0.236328" width="16" height="16" fill="#DCDCDC"/>
</mask>
<g mask="url(#mask0_102_730)">
<path d="M4.88261 14.9033H3.54928C2.8129 14.9033 2.21594 14.3064 2.21594 13.57V12.2367H3.54928V13.57L4.88261 13.57V14.9033Z" fill="black"/>
<path d="M2.21594 6.90332H3.54928V9.56999H2.21594V6.90332Z" fill="black"/>
<path d="M7.54928 14.9033V13.57H8.21594V10.9033H9.54928V13.57H10.2159V14.9033H7.54928Z" fill="black"/>
<path d="M12.8826 14.9033V13.57H14.2159V12.2367H15.5493V13.57C15.5493 14.3064 14.9523 14.9033 14.2159 14.9033H12.8826Z" fill="black"/>
<path d="M15.5493 9.56999H14.2159V8.90332H11.5493V7.56999H14.2159V6.90332H15.5493V9.56999Z" fill="black"/>
<path d="M8.21594 2.90332V5.56999H9.54928V2.90332H8.21594Z" fill="black"/>
<path d="M6.21594 8.90332H3.54928V7.56999H6.21594V8.90332Z" fill="black"/>
<path d="M2.21594 2.90397V4.2373H3.54928L3.54928 2.90397H14.2159V4.2373H15.5493V2.90397C15.5493 2.16759 14.9523 1.57064 14.2159 1.57064H3.54928C2.8129 1.57064 2.21594 2.16759 2.21594 2.90397Z" fill="black"/>
</g>
</svg>
