<svg width="17" height="17" viewBox="0 0 17 17" fill="none" xmlns="http://www.w3.org/2000/svg">
<mask id="mask0_102_834" style="mask-type:alpha" maskUnits="userSpaceOnUse" x="0" y="0" width="17" height="17">
<rect x="0.867188" y="0.236328" width="15.9997" height="15.9997" fill="#DCDCDC"/>
</mask>
<g mask="url(#mask0_102_834)">
<path d="M8.8673 1.56885C9.23217 1.56885 9.52796 1.86463 9.52796 2.2295V4.83857L10.2019 4.16459C10.4599 3.90659 10.8782 3.90659 11.1362 4.16459C11.3942 4.42259 11.3942 4.8409 11.1362 5.0989L9.33445 6.90069C9.07645 7.15869 8.65815 7.15869 8.40015 6.90069L6.59835 5.0989C6.34035 4.8409 6.34035 4.42259 6.59835 4.16459C6.85636 3.90659 7.27466 3.90659 7.53266 4.16459L8.20664 4.83857V2.2295C8.20664 1.86463 8.50243 1.56885 8.8673 1.56885Z" fill="black"/>
<path d="M6.59835 11.3718L8.40015 9.56996C8.65815 9.31196 9.07645 9.31196 9.33445 9.56996L11.1362 11.3718C11.3942 11.6298 11.3942 12.0481 11.1362 12.3061C10.8782 12.5641 10.4599 12.5641 10.2019 12.3061L9.52796 11.6321V14.2413C9.52796 14.6062 9.23217 14.902 8.8673 14.902C8.50243 14.902 8.20664 14.6062 8.20664 14.2413V11.6321L7.53266 12.3061C7.27466 12.5641 6.85636 12.5641 6.59835 12.3061C6.34035 12.0481 6.34035 11.6298 6.59835 11.3718Z" fill="black"/>
<path d="M3.46193 7.57482C3.09706 7.57482 2.80127 7.8706 2.80127 8.23547C2.80127 8.60034 3.09706 8.89613 3.46193 8.89613H14.2727C14.6375 8.89613 14.9333 8.60034 14.9333 8.23547C14.9333 7.8706 14.6375 7.57482 14.2727 7.57482H3.46193Z" fill="black"/>
</g>
</svg>
