<svg width="17" height="17" viewBox="0 0 17 17" fill="none" xmlns="http://www.w3.org/2000/svg">
<mask id="mask0_102_799" style="mask-type:alpha" maskUnits="userSpaceOnUse" x="0" y="0" width="17" height="17">
<rect x="0.453491" y="0.706055" width="16" height="16" fill="#D9D9D9"/>
</mask>
<g mask="url(#mask0_102_799)">
<path d="M3.09877 3.42446C3.09877 3.0668 3.38871 2.77686 3.74638 2.77686H3.74825C4.10591 2.77686 4.39586 3.0668 4.39586 3.42446V12.4206L5.05904 11.7575C5.31195 11.5046 5.72199 11.5046 5.97489 11.7575C6.2278 12.0104 6.2278 12.4204 5.97489 12.6733L4.20618 14.442C4.0821 14.5661 3.91612 14.6319 3.74731 14.6317C3.57851 14.6319 3.41253 14.5661 3.28845 14.442L1.51975 12.6733C1.26685 12.4204 1.26685 12.0104 1.51975 11.7575C1.77266 11.5046 2.1827 11.5046 2.43561 11.7575L3.09877 12.4206V3.42446Z" fill="black"/>
<path fill-rule="evenodd" clip-rule="evenodd" d="M15.1877 13.6584C14.8529 13.8118 14.4573 13.6649 14.3038 13.3302L13.1535 10.8203H8.69466L7.54428 13.3302C7.39087 13.6649 6.99518 13.8118 6.66047 13.6584C6.32576 13.505 6.17879 13.1093 6.3322 12.7746L10.318 4.07827C10.4266 3.8413 10.6634 3.68937 10.9241 3.68937C11.1847 3.68937 11.4215 3.8413 11.5301 4.07827L15.5159 12.7746C15.6693 13.1093 15.5224 13.505 15.1877 13.6584ZM9.30576 9.48694H12.5424L10.9241 5.95609L9.30576 9.48694Z" fill="black"/>
</g>
</svg>
