<svg width="25" height="25" viewBox="0 0 25 25" fill="none" xmlns="http://www.w3.org/2000/svg">
<mask id="mask0_331_1353" style="mask-type:alpha" maskUnits="userSpaceOnUse" x="0" y="0" width="25" height="25">
<rect x="0.756958" y="0.13623" width="24" height="24" fill="#DCDCDC"/>
</mask>
<g mask="url(#mask0_331_1353)">
<path d="M4.09365 2.13623C4.7073 2.13623 5.20477 2.63369 5.20477 3.24734V21.0251C5.20477 21.6388 4.7073 22.1362 4.09365 22.1362C3.48001 22.1362 2.98254 21.6388 2.98254 21.0251V3.24734C2.98254 2.63369 3.48001 2.13623 4.09365 2.13623Z" fill="black"/>
<path d="M21.4202 2.13623C22.0339 2.13623 22.5314 2.63369 22.5314 3.24734V21.0251C22.5314 21.6388 22.0339 22.1362 21.4202 22.1362C20.8066 22.1362 20.3091 21.6388 20.3091 21.0251V3.24734C20.3091 2.63369 20.8066 2.13623 21.4202 2.13623Z" fill="black"/>
<path d="M7.01111 7.14521C7.01111 6.53156 7.50857 6.0341 8.12222 6.0341H13.4668C16.2478 6.0341 18.5023 8.28857 18.5023 11.0696C18.5023 13.8506 16.2478 16.1051 13.4668 16.1051H11.5001L13.1773 17.7823C13.6113 18.2162 13.6113 18.9197 13.1773 19.3537C12.7434 19.7876 12.0399 19.7876 11.606 19.3537L7.94537 15.693C7.51145 15.2591 7.51145 14.5556 7.94537 14.1217L11.606 10.461C12.0399 10.0271 12.7434 10.0271 13.1773 10.461C13.6113 10.895 13.6113 11.5985 13.1773 12.0324L11.3269 13.8829H13.4668C15.0205 13.8829 16.2801 12.6233 16.2801 11.0696C16.2801 9.51586 15.0205 8.25632 13.4668 8.25632H8.12222C7.50857 8.25632 7.01111 7.75886 7.01111 7.14521Z" fill="black"/>
</g>
</svg>
