<svg width="25" height="25" viewBox="0 0 25 25" fill="none" xmlns="http://www.w3.org/2000/svg">
<mask id="mask0_331_1208" style="mask-type:alpha" maskUnits="userSpaceOnUse" x="0" y="0" width="25" height="25">
<rect x="0.708496" y="0.836792" width="24" height="24" fill="#DCDCDC"/>
</mask>
<g mask="url(#mask0_331_1208)">
<path d="M3.35206 3.89624C2.72049 3.89624 2.2085 4.40823 2.2085 5.0398C2.2085 5.67138 2.72049 6.18337 3.35206 6.18337H22.0649C22.6965 6.18337 23.2085 5.67138 23.2085 5.0398C23.2085 4.40823 22.6965 3.89624 22.0649 3.89624H3.35206Z" fill="black"/>
<path d="M3.35206 9.09426C2.72049 9.09426 2.2085 9.60625 2.2085 10.2378C2.2085 10.8694 2.72049 11.3814 3.35206 11.3814H17.9065C18.5381 11.3814 19.0501 10.8694 19.0501 10.2378C19.0501 9.60625 18.5381 9.09426 17.9065 9.09426H3.35206Z" fill="black"/>
<path d="M2.2085 15.4358C2.2085 14.8043 2.72049 14.2923 3.35206 14.2923H22.0649C22.6965 14.2923 23.2085 14.8043 23.2085 15.4358C23.2085 16.0674 22.6965 16.5794 22.0649 16.5794H3.35206C2.72049 16.5794 2.2085 16.0674 2.2085 15.4358Z" fill="black"/>
<path d="M3.35206 19.4903C2.72049 19.4903 2.2085 20.0023 2.2085 20.6339C2.2085 21.2654 2.72049 21.7774 3.35206 21.7774H17.9065C18.5381 21.7774 19.0501 21.2654 19.0501 20.6339C19.0501 20.0023 18.5381 19.4903 17.9065 19.4903H3.35206Z" fill="black"/>
</g>
</svg>
