<svg width="25" height="25" viewBox="0 0 25 25" fill="none" xmlns="http://www.w3.org/2000/svg">
<mask id="mask0_331_1195" style="mask-type:alpha" maskUnits="userSpaceOnUse" x="0" y="0" width="25" height="25">
<rect x="0.243774" y="0.836792" width="24" height="24" fill="#DCDCDC"/>
</mask>
<g mask="url(#mask0_331_1195)">
<path fill-rule="evenodd" clip-rule="evenodd" d="M21.525 10.5455C21.9156 10.1725 21.9156 9.56775 21.525 9.19476L15.1611 3.11653C14.7706 2.74354 14.1374 2.74354 13.7469 3.11653C13.3563 3.48952 13.3563 4.09426 13.7469 4.46725L18.4037 8.91501H9.95774C5.93262 8.91501 2.66962 12.0315 2.66962 15.8759C2.66962 19.7203 5.93262 22.8368 9.95774 22.8368H14.9327C15.4602 22.8368 15.8878 22.4092 15.8878 21.8817C15.8878 21.3542 15.4602 20.9266 14.9327 20.9266H9.95774C7.03719 20.9266 4.66962 18.6653 4.66962 15.8759C4.66962 13.0865 7.03719 10.8252 9.95774 10.8252H18.4037L13.7469 15.273C13.3563 15.646 13.3563 16.2507 13.7469 16.6237C14.1374 16.9967 14.7706 16.9967 15.1611 16.6237L21.525 10.5455Z" fill="black"/>
</g>
</svg>
