<svg width="25" height="25" viewBox="0 0 25 25" fill="none" xmlns="http://www.w3.org/2000/svg">
<mask id="mask0_331_1446" style="mask-type:alpha" maskUnits="userSpaceOnUse" x="0" y="0" width="25" height="25">
<rect x="0.339355" y="0.943848" width="24" height="24" fill="#D9D9D9"/>
</mask>
<g mask="url(#mask0_331_1446)">
<path d="M4.30746 5.02414C4.30746 4.48765 4.74237 4.05273 5.27887 4.05273H5.28168C5.81817 4.05273 6.25309 4.48765 6.25309 5.02414V18.5184L7.24786 17.5236C7.62722 17.1443 8.24228 17.1443 8.62164 17.5236C9.001 17.903 9.001 18.518 8.62164 18.8974L5.96857 21.5505C5.78244 21.7366 5.53348 21.8353 5.28027 21.835C5.02706 21.8353 4.7781 21.7366 4.59198 21.5505L1.93893 18.8974C1.55957 18.518 1.55957 17.903 1.93893 17.5236C2.31829 17.1443 2.93335 17.1443 3.31271 17.5236L4.30746 18.5184V5.02414Z" fill="black"/>
<path fill-rule="evenodd" clip-rule="evenodd" d="M22.4408 20.3751C21.9387 20.6052 21.3452 20.3847 21.1151 19.8827L19.3895 16.1178H12.7013L10.9757 19.8827C10.7456 20.3847 10.1521 20.6052 9.65 20.3751C9.14794 20.145 8.92749 19.5514 9.1576 19.0494L15.1363 6.00485C15.2992 5.6494 15.6544 5.42151 16.0454 5.42151C16.4364 5.42151 16.7915 5.6494 16.9545 6.00485L22.9332 19.0494C23.1633 19.5514 22.9428 20.145 22.4408 20.3751ZM13.6179 14.1178H18.4728L16.0454 8.82158L13.6179 14.1178Z" fill="black"/>
</g>
</svg>
