<svg width="25" height="25" viewBox="0 0 25 25" fill="none" xmlns="http://www.w3.org/2000/svg">
<mask id="mask0_331_1341" style="mask-type:alpha" maskUnits="userSpaceOnUse" x="0" y="0" width="25" height="25">
<rect x="0.834961" y="0.13623" width="24" height="24" fill="#DCDCDC"/>
</mask>
<g mask="url(#mask0_331_1341)">
<path d="M13.8564 2.84656C13.7025 2.4318 13.3033 2.13623 12.835 2.13623C12.3665 2.13623 11.9672 2.43194 11.8134 2.84687L9.16465 5.49563C8.778 5.88228 8.778 6.50918 9.16465 6.89584C9.55131 7.2825 10.1782 7.2825 10.5649 6.89584L11.7459 5.71485V14.6115C11.7459 15.213 12.2335 15.7006 12.835 15.7006C13.4365 15.7006 13.9241 15.213 13.9241 14.6115V5.71466L15.1052 6.89584C15.4919 7.2825 16.1188 7.2825 16.5055 6.89584C16.8921 6.50918 16.8921 5.88228 16.5055 5.49563L13.8564 2.84656Z" fill="black"/>
<path d="M3.92407 17.139C3.32257 17.139 2.83496 17.6266 2.83496 18.2281C2.83496 18.8296 3.32257 19.3173 3.92407 19.3173H21.7459C22.3473 19.3173 22.835 18.8296 22.835 18.2281C22.835 17.6266 22.3473 17.139 21.7459 17.139H3.92407Z" fill="black"/>
<path d="M3.92407 19.958C3.32257 19.958 2.83496 20.4456 2.83496 21.0471C2.83496 21.6486 3.32257 22.1362 3.92407 22.1362H21.7459C22.3473 22.1362 22.835 21.6486 22.835 21.0471C22.835 20.4456 22.3473 19.958 21.7459 19.958H3.92407Z" fill="black"/>
</g>
</svg>
