<svg width="17" height="17" viewBox="0 0 17 17" fill="none" xmlns="http://www.w3.org/2000/svg">
<mask id="mask0_331_1075" style="mask-type:alpha" maskUnits="userSpaceOnUse" x="0" y="0" width="17" height="17">
<rect x="0.14093" y="0.617432" width="16" height="16" fill="#DCDCDC"/>
</mask>
<g mask="url(#mask0_331_1075)">
<path d="M8.14093 15.6174C7.45225 15.6174 6.89397 15.0591 6.89397 14.3705V9.75697H2.28047C1.65112 9.75697 1.14093 9.24678 1.14093 8.61743V8.61743C1.14093 7.98808 1.65112 7.4779 2.28047 7.4779H6.89397V2.8644C6.89397 2.17572 7.45225 1.61743 8.14093 1.61743V1.61743C8.82961 1.61743 9.38789 2.17572 9.38789 2.8644V7.4779H14.0014C14.6307 7.4779 15.1409 7.98808 15.1409 8.61743V8.61743C15.1409 9.24678 14.6307 9.75697 14.0014 9.75697H9.38789V14.3705C9.38789 15.0591 8.82961 15.6174 8.14093 15.6174V15.6174Z" fill="white"/>
</g>
</svg>
