<svg width="25" height="25" viewBox="0 0 25 25" fill="none" xmlns="http://www.w3.org/2000/svg">
<mask id="mask0_331_971" style="mask-type:alpha" maskUnits="userSpaceOnUse" x="0" y="0" width="25" height="25">
<rect x="0.55835" y="0.862305" width="24" height="24" fill="#DCDCDC"/>
</mask>
<g mask="url(#mask0_331_971)">
<path d="M5.30857 4.16284C4.90818 3.76245 4.25903 3.76245 3.85864 4.16284C3.45825 4.56322 3.45825 5.21238 3.85864 5.61277L11.1084 12.8625L3.85894 20.112C3.45855 20.5124 3.45855 21.1616 3.85894 21.562C4.25932 21.9623 4.90848 21.9623 5.30887 21.562L12.5583 14.3125L19.8078 21.562C20.2082 21.9623 20.8574 21.9623 21.2578 21.562C21.6581 21.1616 21.6581 20.5124 21.2578 20.112L14.0083 12.8625L21.2581 5.61277C21.6584 5.21238 21.6584 4.56322 21.2581 4.16284C20.8577 3.76245 20.2085 3.76245 19.8081 4.16284L12.5583 11.4126L5.30857 4.16284Z" fill="#999999"/>
</g>
</svg>
