<svg width="25" height="25" viewBox="0 0 25 25" fill="none" xmlns="http://www.w3.org/2000/svg">
<mask id="mask0_331_1007" style="mask-type:alpha" maskUnits="userSpaceOnUse" x="0" y="0" width="25" height="25">
<rect x="0.825745" y="0.260742" width="24" height="24" fill="#DCDCDC"/>
</mask>
<g mask="url(#mask0_331_1007)">
<path d="M18.3857 12.2107C18.3857 12.7243 17.9694 13.1407 17.4557 13.1407H13.8057V17.1307C13.8057 17.6664 13.3715 18.1007 12.8357 18.1007C12.3 18.1007 11.8657 17.6664 11.8657 17.1307V13.1407H8.19575C7.68212 13.1407 7.26575 12.7243 7.26575 12.2107C7.26575 11.6971 7.68212 11.2807 8.19575 11.2807H11.8657V7.39072C11.8657 6.855 12.3 6.42072 12.8357 6.42072C13.3715 6.42072 13.8057 6.855 13.8057 7.39072V11.2807H17.4557C17.9694 11.2807 18.3857 11.6971 18.3857 12.2107Z" fill="#999999"/>
<path fill-rule="evenodd" clip-rule="evenodd" d="M2.82574 4.26074C2.82574 3.15617 3.72118 2.26074 4.82574 2.26074H20.8257C21.9303 2.26074 22.8257 3.15617 22.8257 4.26074V20.2607C22.8257 21.3653 21.9303 22.2607 20.8257 22.2607H4.82575C3.72118 22.2607 2.82574 21.3653 2.82574 20.2607V4.26074ZM5.02574 20.0607V4.46074H20.6257V20.0607H5.02574Z" fill="#999999"/>
</g>
</svg>
