<svg width="25" height="25" viewBox="0 0 25 25" fill="none" xmlns="http://www.w3.org/2000/svg">
<mask id="mask0_331_878" style="mask-type:alpha" maskUnits="userSpaceOnUse" x="0" y="0" width="25" height="25">
<rect x="0.614624" y="0.100098" width="24" height="24" fill="#DCDCDC"/>
</mask>
<g mask="url(#mask0_331_878)">
<path fill-rule="evenodd" clip-rule="evenodd" d="M12.1519 8.27217C12.1519 7.71988 11.7042 7.27217 11.1519 7.27217H5.49641C4.94412 7.27217 4.49641 7.71988 4.49641 8.27217V15.9277C4.49641 16.48 4.94412 16.9277 5.49641 16.9277H11.1519C11.7042 16.9277 12.1519 16.48 12.1519 15.9277V8.27217ZM4.49641 5.35828C3.4394 5.35828 2.58252 6.21515 2.58252 7.27217V16.9277C2.58252 17.9847 3.4394 18.8416 4.49641 18.8416H12.1519C13.2089 18.8416 14.0658 17.9847 14.0658 16.9277V7.27217C14.0658 6.21515 13.2089 5.35828 12.1519 5.35828H4.49641Z" fill="#35322B"/>
<path fill-rule="evenodd" clip-rule="evenodd" d="M18.4524 15.7835C18.5652 15.8303 18.689 15.8561 18.8187 15.8561C18.9485 15.8561 19.0722 15.8303 19.185 15.7835C19.2979 15.7368 19.4036 15.6676 19.4954 15.5758L22.3662 12.705C22.7399 12.3313 22.7399 11.7254 22.3662 11.3517C21.9925 10.978 21.3866 10.978 21.0129 11.3517L19.7756 12.5889V9.30106C19.7756 8.77255 19.3472 8.34412 18.8187 8.34412C18.2902 8.34412 17.8618 8.77255 17.8618 9.30106V12.5889L16.6245 11.3517C16.2508 10.978 15.6449 10.978 15.2712 11.3517C14.8975 11.7254 14.8975 12.3313 15.2712 12.705L18.1416 15.5754M11.0739 14.8628C10.6625 15.2852 9.99538 15.2852 9.58394 14.8628L8.38258 13.6296L7.18113 14.8629C6.76969 15.2853 6.1026 15.2853 5.69115 14.8629C5.27971 14.4405 5.27971 13.7558 5.69115 13.3334L6.8926 12.1001L5.69118 10.8668C5.27973 10.4444 5.27973 9.75964 5.69118 9.33728C6.10262 8.91492 6.76971 8.91492 7.18116 9.33728L8.38258 10.5706L9.58391 9.33737C9.99536 8.91501 10.6624 8.91501 11.0739 9.33737C11.4853 9.75974 11.4853 10.4445 11.0739 10.8669L9.87256 12.1001L11.0739 13.3333C11.4854 13.7557 11.4854 14.4404 11.0739 14.8628Z" fill="#409F11"/>
</g>
</svg>
