<svg width="25" height="25" viewBox="0 0 25 25" fill="none" xmlns="http://www.w3.org/2000/svg">
<mask id="mask0_331_888" style="mask-type:alpha" maskUnits="userSpaceOnUse" x="0" y="0" width="25" height="25">
<rect x="0.863647" y="0.100098" width="24" height="24" fill="#DCDCDC"/>
</mask>
<g mask="url(#mask0_331_888)">
<path fill-rule="evenodd" clip-rule="evenodd" d="M22.8636 18.0256C22.8636 19.1302 21.9682 20.0256 20.8636 20.0256H4.86365C3.75908 20.0256 2.86365 19.1302 2.86365 18.0256V14.0256C2.86365 12.9211 3.75908 12.0256 4.86365 12.0256L20.8636 12.0256C21.9682 12.0256 22.8636 12.9211 22.8636 14.0256V18.0256ZM20.8636 18.0256H4.86365V14.0256H20.8636V18.0256Z" fill="#35322B"/>
<path fill-rule="evenodd" clip-rule="evenodd" d="M15.2656 5.88167C15.6561 5.49114 15.6561 4.85798 15.2656 4.46745C14.875 4.07693 14.2419 4.07693 13.8513 4.46745L12.7111 5.60772L11.5708 4.46748C11.1803 4.07695 10.5472 4.07695 10.1566 4.46748C9.7661 4.858 9.7661 5.49117 10.1566 5.88169L11.2969 7.02193L10.1565 8.16226C9.76602 8.55279 9.76602 9.18595 10.1565 9.57648C10.5471 9.967 11.1802 9.967 11.5708 9.57648L12.7111 8.43615L13.8514 9.5765C14.242 9.96703 14.8751 9.96703 15.2656 9.5765C15.6562 9.18598 15.6562 8.55281 15.2656 8.16229L14.1253 7.02193L15.2656 5.88167Z" fill="#409F11"/>
</g>
</svg>
