<svg width="25" height="25" viewBox="0 0 25 25" fill="none" xmlns="http://www.w3.org/2000/svg">
<mask id="mask0_331_873" style="mask-type:alpha" maskUnits="userSpaceOnUse" x="0" y="0" width="25" height="25">
<rect x="0.697632" y="0.100098" width="24" height="24" fill="#DCDCDC"/>
</mask>
<g mask="url(#mask0_331_873)">
<path fill-rule="evenodd" clip-rule="evenodd" d="M12.2624 8.27217C12.2624 7.71988 11.8147 7.27217 11.2624 7.27217H5.60688C5.05459 7.27217 4.60688 7.71988 4.60688 8.27217V15.9277C4.60688 16.48 5.05459 16.9277 5.60688 16.9277H11.2624C11.8147 16.9277 12.2624 16.48 12.2624 15.9277V8.27217ZM4.60688 5.35828C3.54987 5.35828 2.69299 6.21515 2.69299 7.27217V16.9277C2.69299 17.9847 3.54987 18.8416 4.60688 18.8416H12.2624C13.3194 18.8416 14.1763 17.9847 14.1763 16.9277V7.27217C14.1763 6.21515 13.3194 5.35828 12.2624 5.35828H4.60688Z" fill="#35322B"/>
<path fill-rule="evenodd" clip-rule="evenodd" d="M22.6293 12.4662C22.6761 12.3533 22.702 12.2296 22.702 12.0999C22.702 11.9701 22.6761 11.8464 22.6293 11.7336C22.5826 11.6207 22.5134 11.515 22.4217 11.4232L19.5508 8.55238C19.1771 8.17867 18.5712 8.17867 18.1975 8.55238C17.8238 8.92609 17.8238 9.53198 18.1975 9.90569L19.4347 11.1429H16.1469C15.6184 11.1429 15.19 11.5714 15.19 12.0999C15.19 12.6284 15.6184 13.0568 16.1469 13.0568H19.4347L18.1975 14.294C17.8238 14.6677 17.8238 15.2736 18.1975 15.6474C18.5712 16.0211 19.1771 16.0211 19.5508 15.6474L22.4212 12.777M11.1844 14.8626C10.7729 15.285 10.1059 15.285 9.69441 14.8626L8.49305 13.6294L7.2916 14.8627C6.88016 15.285 6.21307 15.285 5.80163 14.8627C5.39018 14.4403 5.39018 13.7555 5.80163 13.3332L7.00307 12.0999L5.80165 10.8666C5.3902 10.4442 5.3902 9.75942 5.80165 9.33705C6.2131 8.9147 6.88018 8.9147 7.29163 9.33705L8.49305 10.5704L9.69438 9.33715C10.1058 8.91479 10.7729 8.91479 11.1844 9.33715C11.5958 9.75951 11.5958 10.4443 11.1844 10.8667L9.98303 12.0999L11.1844 13.3331C11.5958 13.7554 11.5958 14.4402 11.1844 14.8626Z" fill="#409F11"/>
</g>
</svg>
