<svg width="25" height="25" viewBox="0 0 25 25" fill="none" xmlns="http://www.w3.org/2000/svg">
<mask id="mask0_331_1170" style="mask-type:alpha" maskUnits="userSpaceOnUse" x="0" y="0" width="25" height="25">
<rect x="0.30249" y="0.900146" width="24" height="24" fill="#D9D9D9"/>
</mask>
<g mask="url(#mask0_331_1170)">
<path d="M13.423 4.04163C13.423 3.43008 12.9214 2.93433 12.3027 2.93433C11.684 2.93433 11.1825 3.43008 11.1825 4.04163V11.7928H3.34036C2.72165 11.7928 2.22009 12.2886 2.22009 12.9001C2.22009 13.5117 2.72165 14.0074 3.34036 14.0074H11.1825V21.7585C11.1825 22.3701 11.684 22.8658 12.3027 22.8658C12.9214 22.8658 13.423 22.3701 13.423 21.7585V14.0074H21.2647C21.8834 14.0074 22.385 13.5117 22.385 12.9001C22.385 12.2886 21.8834 11.7928 21.2647 11.7928H13.423V4.04163Z" fill="#999999"/>
</g>
</svg>
