<svg width="25" height="25" viewBox="0 0 25 25" fill="none" xmlns="http://www.w3.org/2000/svg">
<mask id="mask0_331_983" style="mask-type:alpha" maskUnits="userSpaceOnUse" x="0" y="0" width="25" height="25">
<rect x="0.446289" y="0.100098" width="24" height="24" fill="#DCDCDC"/>
</mask>
<g mask="url(#mask0_331_983)">
<path d="M11.953 13.8636C11.953 14.4159 12.4007 14.8636 12.953 14.8636H17.9233C18.4756 14.8636 18.9233 14.4159 18.9233 13.8636V13.8636C18.9233 13.3114 18.4756 12.8636 17.9233 12.8636H12.953C12.4007 12.8636 11.953 13.3114 11.953 13.8636V13.8636Z" fill="#409F11"/>
<path d="M16.9425 16.7073C16.9425 17.2596 16.4948 17.7073 15.9425 17.7073H12.953C12.4007 17.7073 11.953 17.2596 11.953 16.7073V16.7073C11.953 16.155 12.4007 15.7073 12.953 15.7073H15.9425C16.4948 15.7073 16.9425 16.155 16.9425 16.7073V16.7073Z" fill="#409F11"/>
<path fill-rule="evenodd" clip-rule="evenodd" d="M8.32239 2.10852C8.32243 1.66841 8.96279 1.31165 9.7527 1.31165C10.5426 1.31165 11.183 1.66841 11.183 2.10852H11.7528C12.7148 2.10852 13.5182 2.78772 13.7095 3.69275H14.7526C15.8571 3.69275 16.7526 4.58818 16.7526 5.69275V8.55029H19.1399C20.7968 8.55029 22.1399 9.89344 22.1399 11.5503V17.5001C22.1399 18.2957 21.8239 19.0588 21.2613 19.6214L18.8728 22.0098C18.3102 22.5724 17.5471 22.8885 16.7515 22.8885H12.2159C10.8377 22.8885 9.67648 21.9591 9.32496 20.6927H4.75256C3.64799 20.6927 2.75256 19.7973 2.75256 18.6927V5.69275C2.75256 4.58818 3.64799 3.69275 4.75256 3.69275H5.79608C5.98744 2.78772 6.7908 2.10852 7.75281 2.10852H8.32239ZM5.91042 5.69275H4.75256L4.75256 18.6927H9.21594V11.5503C9.21594 9.89344 10.5591 8.55029 12.2159 8.55029H14.7526V5.69275H13.5952C13.2913 6.41002 12.5808 6.91321 11.7528 6.91321H7.75281C6.92478 6.91321 6.21428 6.41002 5.91042 5.69275ZM7.75281 3.60852H11.7528C12.0289 3.60852 12.2528 3.83238 12.2528 4.10852V4.91321C12.2528 5.18936 12.0289 5.41321 11.7528 5.41321H7.75281C7.47667 5.41321 7.25281 5.18936 7.25281 4.91321V4.10852C7.25281 3.83238 7.47667 3.60852 7.75281 3.60852ZM12.2159 10.5503C11.6637 10.5503 11.2159 10.998 11.2159 11.5503V19.8885C11.2159 20.4408 11.6637 20.8885 12.2159 20.8885H16.7515C16.9049 20.8885 17.0547 20.8532 17.1901 20.7872C17.3808 20.6941 17.4586 20.4764 17.4586 20.2642V18.6072C17.4586 18.3863 17.6377 18.2072 17.8586 18.2072H19.5157C19.7278 18.2072 19.9456 18.1293 20.0386 17.9386C20.1047 17.8033 20.1399 17.6535 20.1399 17.5001V11.5503C20.1399 10.998 19.6922 10.5503 19.1399 10.5503H12.2159Z" fill="#409F11"/>
</g>
</svg>
