<svg width="25" height="25" viewBox="0 0 25 25" fill="none" xmlns="http://www.w3.org/2000/svg">
<mask id="mask0_331_913" style="mask-type:alpha" maskUnits="userSpaceOnUse" x="0" y="0" width="25" height="25">
<rect x="0.279541" y="0.100098" width="24" height="24" fill="#DCDCDC"/>
</mask>
<g mask="url(#mask0_331_913)">
<path fill-rule="evenodd" clip-rule="evenodd" d="M8.15551 2.10852C8.15556 1.66841 8.79591 1.31165 9.58582 1.31165C10.3757 1.31165 11.0161 1.66841 11.0161 2.10852H11.5859C12.5479 2.10852 13.3513 2.78773 13.5427 3.69275H14.5857C15.6903 3.69275 16.5857 4.58818 16.5857 5.69275V8.5503H18.9731C20.6299 8.5503 21.9731 9.89344 21.9731 11.5502V17.5C21.9731 18.2957 21.657 19.0587 21.0944 19.6213L18.706 22.0098C18.1433 22.5724 17.3803 22.8885 16.5846 22.8885H12.0491C10.6708 22.8885 9.50961 21.959 9.15809 20.6927H4.58569C3.48112 20.6927 2.58569 19.7973 2.58569 18.6927V5.69275C2.58569 4.58818 3.48112 3.69275 4.58569 3.69275H5.62921C5.82056 2.78773 6.62393 2.10852 7.58593 2.10852H8.15551ZM5.74355 5.69275H4.58569V18.6927H9.04907V11.5502C9.04907 9.89344 10.3922 8.5503 12.0491 8.5503H14.5857V5.69275H13.4283C13.1245 6.41003 12.414 6.91322 11.5859 6.91322H7.58593C6.75791 6.91322 6.04741 6.41003 5.74355 5.69275ZM7.58593 3.60853H11.5859C11.8621 3.60853 12.0859 3.83238 12.0859 4.10852V4.91322C12.0859 5.18936 11.8621 5.41322 11.5859 5.41322H7.58593C7.30979 5.41322 7.08593 5.18936 7.08593 4.91322V4.10853C7.08593 3.83238 7.30979 3.60853 7.58593 3.60853ZM12.0491 10.5503C11.4968 10.5503 11.0491 10.998 11.0491 11.5502V19.8885C11.0491 20.4407 11.4968 20.8885 12.0491 20.8885H16.5846C16.7381 20.8885 16.8879 20.8532 17.0232 20.7872C17.2139 20.6941 17.2917 20.4764 17.2917 20.2642V18.6071C17.2917 18.3862 17.4708 18.2071 17.6917 18.2071H19.3488C19.561 18.2071 19.7787 18.1293 19.8718 17.9386C19.9378 17.8033 19.9731 17.6535 19.9731 17.5V11.5502C19.9731 10.998 19.5254 10.5503 18.9731 10.5503H12.0491Z" fill="#35322B"/>
<path fill-rule="evenodd" clip-rule="evenodd" d="M13.0973 14.9113C14.4196 14.9113 16.7219 14.9113 18.0442 14.9113C18.5964 14.9113 19.0559 14.456 19.0559 13.9038C19.0559 13.3665 18.5964 12.9113 18.0442 12.9113C16.7219 12.9113 14.4196 12.9113 13.0973 12.9113C12.545 12.9113 12.0856 13.3665 12.0856 13.9188C12.0856 14.456 12.545 14.9113 13.0973 14.9113ZM16.0903 17.7549C15.2159 17.7549 13.9448 17.7549 13.0704 17.7549C12.5181 17.7549 12.0856 17.2997 12.0856 16.7474C12.0856 16.2101 12.5181 15.7549 13.0704 15.7549C13.9448 15.7549 15.2159 15.7549 16.0903 15.7549C16.6426 15.7549 17.0751 16.2101 17.0751 16.7624C17.0751 17.2997 16.6426 17.7549 16.0903 17.7549Z" fill="#409F11"/>
</g>
</svg>
