<svg width="21" height="21" viewBox="0 0 21 21" fill="none" xmlns="http://www.w3.org/2000/svg">
<mask id="mask0_331_1179" style="mask-type:alpha" maskUnits="userSpaceOnUse" x="0" y="0" width="21" height="21">
<rect x="0.699951" y="0.617432" width="20" height="20" fill="#D9D9D9"/>
</mask>
<g mask="url(#mask0_331_1179)">
<path fill-rule="evenodd" clip-rule="evenodd" d="M10.7 3.28418C8.95107 3.28418 7.53329 4.70195 7.53329 6.45085V8.78418H13.8666V6.45085C13.8666 4.70195 12.4488 3.28418 10.7 3.28418ZM15.8666 8.78418V6.45085C15.8666 3.59737 13.5534 1.28418 10.7 1.28418C7.84651 1.28418 5.53329 3.59737 5.53329 6.45085V8.78418H4.03328C3.02076 8.78418 2.19995 9.60499 2.19995 10.6175V18.1175C2.19995 19.13 3.02076 19.9508 4.03328 19.9508H17.3666C18.3791 19.9508 19.2 19.13 19.2 18.1175V10.6175C19.2 9.60499 18.3791 8.78418 17.3666 8.78418H15.8666ZM4.19995 10.7842V17.9508H17.2V10.7842H4.19995ZM10.7 12.1176C11.2522 12.1176 11.7 12.5653 11.7 13.1176V15.6176C11.7 16.1698 11.2522 16.6176 10.7 16.6176C10.1477 16.6176 9.69995 16.1698 9.69995 15.6176V13.1176C9.69995 12.5653 10.1477 12.1176 10.7 12.1176Z" fill="white"/>
</g>
</svg>
