<svg width="17" height="17" viewBox="0 0 17 17" fill="none" xmlns="http://www.w3.org/2000/svg">
<mask id="mask0_331_998" style="mask-type:alpha" maskUnits="userSpaceOnUse" x="0" y="0" width="17" height="17">
<rect x="0.139282" y="0.00732422" width="16" height="16" fill="#DCDCDC"/>
</mask>
<g mask="url(#mask0_331_998)">
<path fill-rule="evenodd" clip-rule="evenodd" d="M1.21097 14.096C1.26077 14.3288 1.35186 14.5263 1.49769 14.6702L1.50415 14.6763C1.65882 14.8151 1.85577 14.8992 2.08342 14.9374C2.30279 14.985 2.56881 15.0073 2.87804 15.0073H13.4343C13.7444 15.0073 14.0093 14.9795 14.223 14.9183C14.4497 14.8677 14.6415 14.7704 14.784 14.6172C14.9264 14.4752 15.0173 14.2858 15.0674 14.0637C15.1164 13.8459 15.1393 13.576 15.1393 13.258V2.83984C15.1393 2.50031 15.1165 2.21443 15.0678 1.98627C15.018 1.75289 14.9277 1.55343 14.787 1.4007C14.6439 1.24534 14.4505 1.14696 14.2217 1.096C13.9979 1.03531 13.7225 1.00732 13.4005 1.00732H2.8949C2.57507 1.00732 2.30323 1.02957 2.0834 1.07724C1.85153 1.11622 1.6524 1.20837 1.49769 1.36105C1.35186 1.50498 1.26077 1.70253 1.21097 1.93533C1.16201 2.15331 1.13928 2.42862 1.13928 2.75663V13.258C1.13928 13.5966 1.16193 13.8776 1.21097 14.096ZM13.3964 2.64285L13.4067 2.65809L13.4198 2.67104C13.4361 2.68716 13.4492 2.70989 13.4492 2.75663V7.08182H9.03489V2.62534H13.3829C13.3864 2.62918 13.391 2.63484 13.3964 2.64285ZM2.87804 2.62534H7.34485V7.08182H2.82933V2.75663C2.82933 2.66851 2.84726 2.63531 2.85233 2.62852C2.85402 2.62785 2.86143 2.62534 2.87804 2.62534ZM13.4005 13.3893H9.03489V8.69984H13.4492V13.258C13.4492 13.3461 13.4313 13.3793 13.4262 13.3861C13.4246 13.3868 13.4171 13.3893 13.4005 13.3893ZM7.34485 8.69984V13.3893H2.8949C2.87222 13.3893 2.86105 13.3857 2.85712 13.3841C2.85432 13.3829 2.85358 13.3822 2.85226 13.3806C2.84739 13.3745 2.82933 13.3441 2.82933 13.258V8.69984H7.34485Z" fill="#666666"/>
</g>
</svg>
