<svg width="21" height="21" viewBox="0 0 21 21" fill="none" xmlns="http://www.w3.org/2000/svg">
<mask id="mask0_331_1176" style="mask-type:alpha" maskUnits="userSpaceOnUse" x="0" y="0" width="21" height="21">
<rect x="0.414124" y="0.617432" width="20" height="20" fill="#D9D9D9"/>
</mask>
<g mask="url(#mask0_331_1176)">
<path fill-rule="evenodd" clip-rule="evenodd" d="M1.08081 3.32568C1.08081 2.7734 1.52853 2.32568 2.08081 2.32568H18.7475C19.2998 2.32568 19.7475 2.7734 19.7475 3.32568V15.8257C19.7475 16.378 19.2998 16.8257 18.7475 16.8257H10.2335L6.27802 18.8034C5.96804 18.9584 5.5999 18.9419 5.30508 18.7597C5.01026 18.5775 4.83081 18.2556 4.83081 17.909V16.8257H2.08081C1.52853 16.8257 1.08081 16.378 1.08081 15.8257V3.32568ZM6.83081 16.291L9.55026 14.9313C9.68912 14.8618 9.84223 14.8257 9.99748 14.8257H17.7475V4.32568H3.08081V14.8257H5.83081C6.3831 14.8257 6.83081 15.2734 6.83081 15.8257V16.291ZM6.24748 7.95068C6.79977 7.95068 7.24748 8.3984 7.24748 8.95068V10.2007C7.24748 10.753 6.79977 11.2007 6.24748 11.2007C5.6952 11.2007 5.24748 10.753 5.24748 10.2007V8.95068C5.24748 8.3984 5.6952 7.95068 6.24748 7.95068ZM10.4141 7.95068C10.9664 7.95068 11.4141 8.3984 11.4141 8.95068V10.2007C11.4141 10.753 10.9664 11.2007 10.4141 11.2007C9.86186 11.2007 9.41415 10.753 9.41415 10.2007V8.95068C9.41415 8.3984 9.86186 7.95068 10.4141 7.95068ZM14.5808 7.95068C15.1331 7.95068 15.5808 8.3984 15.5808 8.95068V10.2007C15.5808 10.753 15.1331 11.2007 14.5808 11.2007C14.0285 11.2007 13.5808 10.753 13.5808 10.2007V8.95068C13.5808 8.3984 14.0285 7.95068 14.5808 7.95068Z" fill="white"/>
</g>
</svg>
