<svg width="17" height="17" viewBox="0 0 17 17" fill="none" xmlns="http://www.w3.org/2000/svg">
<mask id="mask0_107_1287" style="mask-type:alpha" maskUnits="userSpaceOnUse" x="0" y="0" width="17" height="17">
<rect x="0.0825195" y="0.248047" width="16" height="16" fill="#DCDCDC"/>
</mask>
<g mask="url(#mask0_107_1287)">
<path d="M4.08244 1.58105H2.7491C2.01273 1.58105 1.41577 2.17801 1.41577 2.91439V4.24772H2.7491V2.91439L4.08244 2.91439V1.58105Z" fill="#E5E5E5"/>
<path d="M1.41577 9.58105H2.7491V6.91439H1.41577V9.58105Z" fill="#E5E5E5"/>
<path d="M6.7491 1.58105V2.91439H7.41577V5.58105H8.74911V2.91439H9.41577V1.58105H6.7491Z" fill="#E5E5E5"/>
<path d="M12.0824 1.58105V2.91439H13.4158V4.24772H14.7491V2.91439C14.7491 2.17801 14.1522 1.58105 13.4158 1.58105H12.0824Z" fill="#E5E5E5"/>
<path d="M14.7491 6.91439H13.4158V7.58105H10.7491V8.91439H13.4158V9.58105H14.7491V6.91439Z" fill="#E5E5E5"/>
<path d="M7.41577 13.5811V10.9144H8.74911V13.5811H7.41577Z" fill="#E5E5E5"/>
<path d="M5.41577 7.58105H2.74911V8.91439H5.41577V7.58105Z" fill="#E5E5E5"/>
<path d="M1.41577 13.5814V12.248H2.7491L2.74911 13.5814H13.4158V12.248H14.7491V13.5814C14.7491 14.3178 14.1522 14.9147 13.4158 14.9147H2.74911C2.01273 14.9147 1.41577 14.3178 1.41577 13.5814Z" fill="black"/>
</g>
</svg>
