<svg width="17" height="17" viewBox="0 0 17 17" fill="none" xmlns="http://www.w3.org/2000/svg">
<mask id="mask0_107_1307" style="mask-type:alpha" maskUnits="userSpaceOnUse" x="0" y="0" width="17" height="17">
<rect x="0.0824585" y="0.248047" width="16" height="16" fill="#DCDCDC"/>
</mask>
<g mask="url(#mask0_107_1307)">
<path fill-rule="evenodd" clip-rule="evenodd" d="M1.41571 12.2477V13.5811C1.41571 14.3174 2.01266 14.9144 2.74904 14.9144H4.08238V13.5811H2.74904L2.74904 12.2477H1.41571ZM4.08238 1.58105H2.74904C2.01266 1.58105 1.41571 2.17801 1.41571 2.91439V4.24772H2.74904V2.91439L4.08238 2.91439V1.58105ZM1.41571 9.58105H2.74904V6.91439H1.41571V9.58105ZM6.74904 1.58105V2.91439H9.41571V1.58105H6.74904ZM12.0824 1.58105V2.91439H13.4157V4.24772H14.749V2.91439C14.749 2.17801 14.1521 1.58105 13.4157 1.58105H12.0824ZM14.749 6.91439H13.4157V9.58105H14.749V6.91439ZM14.749 12.2477H13.4157V13.5811H12.0824V14.9144H13.4157C14.1521 14.9144 14.749 14.3174 14.749 13.5811V12.2477ZM9.41571 14.9144V13.5811H6.74904V14.9144H9.41571Z" fill="#E5E5E5"/>
<path d="M8.74939 7.58219V2.91553H7.41606V7.58219H2.74939V8.91553H7.41606V13.5822H8.74939V8.91553H13.4161V7.58219H8.74939Z" fill="black"/>
</g>
</svg>
