<svg width="17" height="17" viewBox="0 0 17 17" fill="none" xmlns="http://www.w3.org/2000/svg">
<mask id="mask0_107_1292" style="mask-type:alpha" maskUnits="userSpaceOnUse" x="0" y="0" width="17" height="17">
<rect x="0.0825195" y="0.248047" width="16" height="16" fill="#DCDCDC"/>
</mask>
<g mask="url(#mask0_107_1292)">
<path d="M14.7489 4.24772L14.7489 2.91439C14.7489 2.17801 14.1519 1.58105 13.4156 1.58105L12.0822 1.58105L12.0822 2.91439L13.4156 2.91439L13.4156 4.24772L14.7489 4.24772Z" fill="#E5E5E5"/>
<path d="M6.7489 1.58105L6.7489 2.91439L9.41557 2.91439L9.41557 1.58105L6.7489 1.58105Z" fill="#E5E5E5"/>
<path d="M14.7489 6.91439L13.4156 6.91439L13.4156 7.58105L10.7489 7.58105L10.7489 8.91439L13.4156 8.91439L13.4156 9.58105L14.7489 9.58105L14.7489 6.91439Z" fill="#E5E5E5"/>
<path d="M14.7489 12.2477L13.4156 12.2477L13.4156 13.5811L12.0822 13.5811L12.0822 14.9144L13.4156 14.9144C14.1519 14.9144 14.7489 14.3174 14.7489 13.5811L14.7489 12.2477Z" fill="#E5E5E5"/>
<path d="M9.41557 14.9144L9.41557 13.5811L8.7489 13.5811L8.7489 10.9144L7.41557 10.9144L7.41557 13.5811L6.7489 13.5811L6.7489 14.9144L9.41557 14.9144Z" fill="#E5E5E5"/>
<path d="M2.7489 7.58105L5.41557 7.58105L5.41557 8.91439L2.7489 8.91439L2.7489 7.58105Z" fill="#E5E5E5"/>
<path d="M8.7489 5.58106L8.7489 2.91439L7.41557 2.91439L7.41557 5.58106L8.7489 5.58106Z" fill="#E5E5E5"/>
<path d="M2.74919 1.58105L4.08252 1.58105L4.08252 2.91439L2.74919 2.91439L2.74919 13.5811L4.08252 13.5811L4.08252 14.9144L2.74919 14.9144C2.01281 14.9144 1.41585 14.3174 1.41585 13.5811L1.41585 2.91439C1.41585 2.17801 2.01281 1.58105 2.74919 1.58105Z" fill="black"/>
</g>
</svg>
