<svg width="17" height="17" viewBox="0 0 17 17" fill="none" xmlns="http://www.w3.org/2000/svg">
<mask id="mask0_107_1302" style="mask-type:alpha" maskUnits="userSpaceOnUse" x="0" y="0" width="17" height="17">
<rect x="0.0824585" y="0.248047" width="16" height="16" fill="#DCDCDC"/>
</mask>
<g mask="url(#mask0_107_1302)">
<path fill-rule="evenodd" clip-rule="evenodd" d="M13.4157 2.91439H2.74904V13.5811H13.4157V2.91439ZM2.74904 1.58105C2.01266 1.58105 1.41571 2.17801 1.41571 2.91439V13.5811C1.41571 14.3174 2.01266 14.9144 2.74904 14.9144H13.4157C14.1521 14.9144 14.749 14.3174 14.749 13.5811V2.91439C14.749 2.17801 14.1521 1.58105 13.4157 1.58105H2.74904Z" fill="black"/>
<path d="M7.41557 2.91553V5.58219H8.7489V2.91553H7.41557Z" fill="#E5E5E5"/>
<path d="M7.41557 10.9155V13.5822H8.7489V10.9155H7.41557Z" fill="#E5E5E5"/>
<path d="M13.4156 7.58219H10.7489V8.91553H13.4156V7.58219Z" fill="#E5E5E5"/>
<path d="M5.41557 7.58219H2.7489V8.91553H5.41557V7.58219Z" fill="#E5E5E5"/>
</g>
</svg>
