<svg width="17" height="17" viewBox="0 0 17 17" fill="none" xmlns="http://www.w3.org/2000/svg">
<mask id="mask0_107_1297" style="mask-type:alpha" maskUnits="userSpaceOnUse" x="0" y="0" width="17" height="17">
<rect x="0.0825195" y="0.248047" width="16" height="16" fill="#DCDCDC"/>
</mask>
<g mask="url(#mask0_107_1297)">
<path d="M1.41577 4.24772L1.41577 2.91439C1.41577 2.17801 2.01273 1.58105 2.74911 1.58105L4.08244 1.58105L4.08244 2.91439L2.74911 2.91439L2.7491 4.24772L1.41577 4.24772Z" fill="#E5E5E5"/>
<path d="M9.41577 1.58105L9.41577 2.91439L6.74911 2.91439L6.7491 1.58105L9.41577 1.58105Z" fill="#E5E5E5"/>
<path d="M1.41577 6.91439L2.74911 6.91439L2.74911 7.58105L5.41577 7.58105L5.41577 8.91439L2.74911 8.91439L2.74911 9.58105L1.41577 9.58105L1.41577 6.91439Z" fill="#E5E5E5"/>
<path d="M1.41577 12.2477L2.74911 12.2477L2.74911 13.5811L4.08244 13.5811L4.08244 14.9144L2.74911 14.9144C2.01273 14.9144 1.41577 14.3174 1.41577 13.5811L1.41577 12.2477Z" fill="#E5E5E5"/>
<path d="M6.74911 14.9144L6.74911 13.5811L7.41577 13.5811L7.41577 10.9144L8.74911 10.9144L8.74911 13.5811L9.41577 13.5811L9.41577 14.9144L6.74911 14.9144Z" fill="#E5E5E5"/>
<path d="M13.4158 7.58105L10.7491 7.58105L10.7491 8.91439L13.4158 8.91439L13.4158 7.58105Z" fill="#E5E5E5"/>
<path d="M7.41577 5.58106L7.41577 2.91439L8.7491 2.91439L8.7491 5.58106L7.41577 5.58106Z" fill="#E5E5E5"/>
<path d="M13.4159 1.58105L12.0825 1.58105L12.0825 2.91439L13.4159 2.91439L13.4159 13.5811L12.0825 13.5811L12.0825 14.9144L13.4159 14.9144C14.1522 14.9144 14.7492 14.3174 14.7492 13.5811L14.7492 2.91439C14.7492 2.17801 14.1522 1.58105 13.4159 1.58105Z" fill="black"/>
</g>
</svg>
