<svg width="17" height="17" viewBox="0 0 17 17" fill="none" xmlns="http://www.w3.org/2000/svg">
<mask id="mask0_107_1282" style="mask-type:alpha" maskUnits="userSpaceOnUse" x="0" y="0" width="17" height="17">
<rect x="0.0824585" y="0.248047" width="16" height="16" fill="#DCDCDC"/>
</mask>
<g mask="url(#mask0_107_1282)">
<path d="M4.08256 14.915H2.74923C2.01285 14.915 1.41589 14.3181 1.41589 13.5817V12.2484H2.74923V13.5817L4.08256 13.5817V14.915Z" fill="#E5E5E5"/>
<path d="M1.41589 6.91504H2.74923V9.58171H1.41589V6.91504Z" fill="#E5E5E5"/>
<path d="M6.74923 14.915V13.5817H7.41589V10.915H8.74923V13.5817H9.41589V14.915H6.74923Z" fill="#E5E5E5"/>
<path d="M12.0826 14.915V13.5817H13.4159V12.2484H14.7492V13.5817C14.7492 14.3181 14.1523 14.915 13.4159 14.915H12.0826Z" fill="#E5E5E5"/>
<path d="M14.7492 9.58171H13.4159V8.91504H10.7492V7.58171H13.4159V6.91504H14.7492V9.58171Z" fill="#E5E5E5"/>
<path d="M7.41589 2.91504V5.58171H8.74923V2.91504H7.41589Z" fill="#E5E5E5"/>
<path d="M5.41589 8.91504H2.74923V7.58171H5.41589V8.91504Z" fill="#E5E5E5"/>
<path d="M1.41589 2.91569V4.24902H2.74923L2.74923 2.91569H13.4159V4.24902H14.7492V2.91569C14.7492 2.17931 14.1523 1.58236 13.4159 1.58236H2.74923C2.01285 1.58236 1.41589 2.17931 1.41589 2.91569Z" fill="black"/>
</g>
</svg>
