<svg width="17" height="17" viewBox="0 0 17 17" fill="none" xmlns="http://www.w3.org/2000/svg">
<mask id="mask0_102_571" style="mask-type:alpha" maskUnits="userSpaceOnUse" x="0" y="0" width="17" height="17">
<rect x="0.504761" y="0.800293" width="16" height="16" fill="#DCDCDC"/>
</mask>
<g mask="url(#mask0_102_571)">
<path d="M2.85479 8.70029C2.85479 8.33091 3.15423 8.03147 3.52361 8.03147L7.87804 8.03147L7.87804 3.42704C7.87804 3.0809 8.15864 2.80029 8.50479 2.80029V2.80029C8.85093 2.80029 9.13153 3.0809 9.13153 3.42704L9.13153 8.03147L13.486 8.03147C13.8553 8.03147 14.1548 8.33091 14.1548 8.70029V8.70029C14.1548 9.06968 13.8553 9.36912 13.486 9.36912L9.13153 9.36912L9.13153 14.1735C9.13153 14.5197 8.85093 14.8003 8.50478 14.8003V14.8003C8.15864 14.8003 7.87804 14.5197 7.87804 14.1735L7.87804 9.36912L3.52361 9.36912C3.15423 9.36912 2.85479 9.06968 2.85479 8.70029V8.70029Z" fill="black"/>
</g>
</svg>
