<svg width="17" height="17" viewBox="0 0 17 17" fill="none" xmlns="http://www.w3.org/2000/svg">
<mask id="mask0_532_157" style="mask-type:alpha" maskUnits="userSpaceOnUse" x="0" y="0" width="17" height="17">
<rect x="0.142822" y="0.420776" width="16" height="16" fill="black"/>
</mask>
<g mask="url(#mask0_532_157)">
<path fill-rule="evenodd" clip-rule="evenodd" d="M8.14282 1.42078C4.2772 1.42078 1.14282 4.55515 1.14282 8.42078C1.14282 12.2864 4.2772 15.4208 8.14282 15.4208C12.0084 15.4208 15.1428 12.2864 15.1428 8.42078C15.1428 4.55515 12.0084 1.42078 8.14282 1.42078ZM10.7272 11.0802L9.69595 11.0755L8.14282 9.2239L6.59126 11.0739L5.55845 11.0786C5.4897 11.0786 5.43345 11.0239 5.43345 10.9536C5.43345 10.9239 5.44438 10.8958 5.46313 10.8723L7.49595 8.45046L5.46313 6.03015C5.44438 6.00671 5.43345 5.97859 5.43345 5.9489C5.43345 5.88015 5.4897 5.8239 5.55845 5.8239L6.59126 5.82859L8.14282 7.68015L9.69439 5.83015L10.7256 5.82546C10.7944 5.82546 10.8506 5.88015 10.8506 5.95046C10.8506 5.98015 10.8397 6.00828 10.8209 6.03171L8.79126 8.45203L10.8225 10.8739C10.8413 10.8973 10.8522 10.9255 10.8522 10.9552C10.8522 11.0239 10.7959 11.0802 10.7272 11.0802Z" fill="black"/>
</g>
</svg>
