<svg width="17" height="17" viewBox="0 0 17 17" fill="none" xmlns="http://www.w3.org/2000/svg">
<mask id="mask0_532_152" style="mask-type:alpha" maskUnits="userSpaceOnUse" x="0" y="0" width="17" height="17">
<rect x="0.149414" y="0.420776" width="16" height="16" fill="black"/>
</mask>
<g mask="url(#mask0_532_152)">
<path fill-rule="evenodd" clip-rule="evenodd" d="M8.14941 1.42078C4.28379 1.42078 1.14941 4.55515 1.14941 8.42078C1.14941 12.2864 4.28379 15.4208 8.14941 15.4208C12.015 15.4208 15.1494 12.2864 15.1494 8.42078C15.1494 4.55515 12.015 1.42078 8.14941 1.42078ZM11.1729 6.13484L7.88223 10.6973C7.68379 10.9739 7.27285 10.9739 7.07441 10.6973L5.12598 7.99734C5.0666 7.91453 5.12598 7.7989 5.22754 7.7989H5.96035C6.11973 7.7989 6.27129 7.87546 6.36504 8.00671L7.47754 9.55046L9.93379 6.14421C10.0275 6.01453 10.1775 5.9364 10.3385 5.9364H11.0713C11.1729 5.9364 11.2322 6.05203 11.1729 6.13484Z" fill="black"/>
</g>
</svg>
