<svg width="17" height="17" viewBox="0 0 17 17" fill="none" xmlns="http://www.w3.org/2000/svg">
<mask id="mask0_532_166" style="mask-type:alpha" maskUnits="userSpaceOnUse" x="0" y="0" width="17" height="17">
<rect x="0.523926" y="0.420776" width="16" height="16" fill="#35322B"/>
</mask>
<g mask="url(#mask0_532_166)">
<path fill-rule="evenodd" clip-rule="evenodd" d="M1.52393 8.42078C1.52393 4.55515 4.6583 1.42078 8.52393 1.42078C12.3896 1.42078 15.5239 4.55515 15.5239 8.42078C15.5239 12.2864 12.3896 15.4208 8.52393 15.4208C4.6583 15.4208 1.52393 12.2864 1.52393 8.42078ZM7.89197 5.55344L8.15818 9.85719H8.89026L9.16756 5.55344L9.18975 4.24457H7.85869L7.89197 5.55344ZM7.63685 11.7207C7.63685 12.2642 8.03617 12.5969 8.52422 12.5969C9.01227 12.5969 9.41159 12.2642 9.41159 11.7207C9.41159 11.1993 9.01227 10.8555 8.52422 10.8555C8.03617 10.8555 7.63685 11.1993 7.63685 11.7207Z" fill="black"/>
</g>
</svg>
