<svg width="45" height="45" viewBox="0 0 45 45" fill="none" xmlns="http://www.w3.org/2000/svg">
<path d="M12.8401 13.7261L18.7266 19.6126M33.0225 33.9085L27.136 28.022" stroke="black" stroke-width="2.7" stroke-linecap="round" stroke-linejoin="round"/>
<path d="M33.0225 13.7261L27.136 19.6126M12.8401 33.9085L18.7266 28.022" stroke="black" stroke-width="2.7" stroke-linecap="round" stroke-linejoin="round"/>
<path d="M27.1365 19.6123H18.7272V28.0217H27.1365V19.6123Z" stroke="black" stroke-width="2.7" stroke-linecap="round" stroke-linejoin="round"/>
<path d="M33.0229 19.6124C34.1872 19.6124 35.3252 19.2672 36.2933 18.6204C37.2613 17.9735 38.0158 17.0542 38.4614 15.9786C38.9069 14.903 39.0235 13.7193 38.7963 12.5775C38.5692 11.4356 38.0086 10.3867 37.1853 9.56349C36.3621 8.74024 35.3132 8.1796 34.1713 7.95247C33.0295 7.72533 31.8458 7.8419 30.7702 8.28745C29.6946 8.73298 28.7753 9.48748 28.1284 10.4555C27.4816 11.4235 27.1364 12.5616 27.1364 13.7259" stroke="black" stroke-width="2.7" stroke-linecap="round" stroke-linejoin="round"/>
<path d="M33.0229 28.022C34.1872 28.022 35.3252 28.3672 36.2933 29.014C37.2613 29.6609 38.0158 30.5802 38.4614 31.6558C38.9069 32.7315 39.0235 33.9151 38.7963 35.0569C38.5692 36.1988 38.0086 37.2477 37.1853 38.0709C36.3621 38.8942 35.3132 39.4548 34.1713 39.682C33.0295 39.9091 31.8458 39.7925 30.7702 39.347C29.6946 38.9014 28.7753 38.1469 28.1284 37.1789C27.4816 36.2108 27.1364 35.0728 27.1364 33.9085" stroke="black" stroke-width="2.7" stroke-linecap="round" stroke-linejoin="round"/>
<path d="M12.8408 28.022C11.6765 28.022 10.5384 28.3672 9.57038 29.014C8.60235 29.6609 7.84785 30.5802 7.40232 31.6558C6.95677 32.7315 6.8402 33.9151 7.06734 35.0569C7.29447 36.1988 7.85511 37.2477 8.67836 38.0709C9.5016 38.8942 10.5505 39.4548 11.6924 39.682C12.8342 39.9091 14.0178 39.7925 15.0935 39.347C16.1691 38.9014 17.0884 38.1469 17.7353 37.1789C18.3821 36.2108 18.7273 35.0728 18.7273 33.9085" stroke="black" stroke-width="2.7" stroke-linecap="round" stroke-linejoin="round"/>
<path d="M12.8408 19.6124C11.6765 19.6124 10.5384 19.2672 9.57038 18.6204C8.60235 17.9735 7.84785 17.0542 7.40232 15.9786C6.95677 14.903 6.8402 13.7193 7.06734 12.5775C7.29447 11.4356 7.85511 10.3867 8.67836 9.56349C9.5016 8.74024 10.5505 8.1796 11.6924 7.95247C12.8342 7.72533 14.0178 7.8419 15.0935 8.28745C16.1691 8.73298 17.0884 9.48748 17.7353 10.4555C18.3821 11.4235 18.7273 12.5616 18.7273 13.7259" stroke="black" stroke-width="2.7" stroke-linecap="round" stroke-linejoin="round"/>
</svg>
