<svg width="45" height="45" viewBox="0 0 45 45" fill="none" xmlns="http://www.w3.org/2000/svg">
<path d="M33.7725 9.96045H11.5144C10.6364 9.96045 9.92456 10.6723 9.92456 11.5503V33.8083C9.92456 34.6864 10.6364 35.3982 11.5144 35.3982H33.7725C34.6505 35.3982 35.3623 34.6864 35.3623 33.8083V11.5503C35.3623 10.6723 34.6505 9.96045 33.7725 9.96045Z" stroke="black" stroke-width="2.7" stroke-linejoin="round"/>
<path d="M27.4122 17.9097H17.873V27.4488H27.4122V17.9097Z" stroke="black" stroke-width="2.7" stroke-linejoin="round"/>
<path d="M15.4165 5.19092V9.9605" stroke="black" stroke-width="2.7" stroke-linecap="round" stroke-linejoin="round"/>
<path d="M15.4165 35.3979V40.1675" stroke="black" stroke-width="2.7" stroke-linecap="round" stroke-linejoin="round"/>
<path d="M22.6431 5.19092V9.9605" stroke="black" stroke-width="2.7" stroke-linecap="round" stroke-linejoin="round"/>
<path d="M22.6431 35.3979V40.1675" stroke="black" stroke-width="2.7" stroke-linecap="round" stroke-linejoin="round"/>
<path d="M29.8696 5.19092V9.9605" stroke="black" stroke-width="2.7" stroke-linecap="round" stroke-linejoin="round"/>
<path d="M29.8696 35.3979V40.1675" stroke="black" stroke-width="2.7" stroke-linecap="round" stroke-linejoin="round"/>
<path d="M5.1543 15.4526H9.92388" stroke="black" stroke-width="2.7" stroke-linecap="round" stroke-linejoin="round"/>
<path d="M35.3616 15.4526H40.1312" stroke="black" stroke-width="2.7" stroke-linecap="round" stroke-linejoin="round"/>
<path d="M5.1543 22.6792H9.92388" stroke="black" stroke-width="2.7" stroke-linecap="round" stroke-linejoin="round"/>
<path d="M35.3616 22.6792H40.1312" stroke="black" stroke-width="2.7" stroke-linecap="round" stroke-linejoin="round"/>
<path d="M5.1543 29.9058H9.92388" stroke="black" stroke-width="2.7" stroke-linecap="round" stroke-linejoin="round"/>
<path d="M35.3616 29.9058H40.1312" stroke="black" stroke-width="2.7" stroke-linecap="round" stroke-linejoin="round"/>
</svg>
