<svg width="45" height="44" viewBox="0 0 45 44" fill="none" xmlns="http://www.w3.org/2000/svg">
<path d="M22.6424 39.7816C32.2589 39.7816 40.0546 32.0522 40.0546 22.5175C40.0546 12.9828 32.2589 5.25342 22.6424 5.25342C13.0258 5.25342 5.2301 12.9828 5.2301 22.5175C5.2301 32.0522 13.0258 39.7816 22.6424 39.7816Z" stroke="black" stroke-width="2.7" stroke-linecap="round" stroke-linejoin="round"/>
<path d="M26.9958 38.9186C26.9958 36.5349 25.0469 34.6025 22.6427 34.6025C20.2386 34.6025 18.2897 36.5349 18.2897 38.9186" stroke="black" stroke-width="2.7" stroke-linecap="round" stroke-linejoin="round"/>
<path d="M15.2428 38.1494C17.4887 39.1965 19.997 39.7816 22.643 39.7816C25.2891 39.7816 27.7973 39.1965 30.0432 38.1494" stroke="black" stroke-width="2.7" stroke-linecap="round" stroke-linejoin="round"/>
<path d="M14.8073 17.3384C16.2498 17.3384 17.4191 16.179 17.4191 14.7488C17.4191 13.3186 16.2498 12.1592 14.8073 12.1592C13.3648 12.1592 12.1954 13.3186 12.1954 14.7488C12.1954 16.179 13.3648 17.3384 14.8073 17.3384Z" fill="black"/>
<path d="M11.3249 24.2442C12.7673 24.2442 13.9367 23.0848 13.9367 21.6546C13.9367 20.2244 12.7673 19.0649 11.3249 19.0649C9.88237 19.0649 8.71301 20.2244 8.71301 21.6546C8.71301 23.0848 9.88237 24.2442 11.3249 24.2442Z" fill="black"/>
<path d="M22.6427 13.8858C24.0852 13.8858 25.2546 12.7264 25.2546 11.2962C25.2546 9.86595 24.0852 8.70654 22.6427 8.70654C21.2002 8.70654 20.0309 9.86595 20.0309 11.2962C20.0309 12.7264 21.2002 13.8858 22.6427 13.8858Z" fill="black"/>
<path d="M30.4782 17.3384C31.9207 17.3384 33.09 16.179 33.09 14.7488C33.09 13.3186 31.9207 12.1592 30.4782 12.1592C29.0357 12.1592 27.8663 13.3186 27.8663 14.7488C27.8663 16.179 29.0357 17.3384 30.4782 17.3384Z" fill="black"/>
<path d="M33.9606 24.2442C35.4031 24.2442 36.5724 23.0848 36.5724 21.6546C36.5724 20.2244 35.4031 19.0649 33.9606 19.0649C32.5181 19.0649 31.3488 20.2244 31.3488 21.6546C31.3488 23.0848 32.5181 24.2442 33.9606 24.2442Z" fill="black"/>
</svg>
