<svg width="17" height="17" viewBox="0 0 17 17" fill="none" xmlns="http://www.w3.org/2000/svg">
<mask id="mask0_102_855" style="mask-type:alpha" maskUnits="userSpaceOnUse" x="0" y="0" width="17" height="17">
<rect x="0.506409" y="0.497314" width="16" height="16" fill="#DCDCDC"/>
</mask>
<g mask="url(#mask0_102_855)">
<path d="M6.27618 7.22295C6.27618 6.87102 6.56147 6.58572 6.9134 6.58572H8.18785C8.53978 6.58572 8.82508 6.87102 8.82508 7.22295C8.82508 7.57488 8.53978 7.86017 8.18785 7.86017H6.9134C6.56147 7.86017 6.27618 7.57488 6.27618 7.22295Z" fill="black"/>
<path d="M6.9134 9.13463C6.56147 9.13463 6.27618 9.41992 6.27618 9.77185C6.27618 10.1238 6.56147 10.4091 6.9134 10.4091H10.7368C11.0887 10.4091 11.374 10.1238 11.374 9.77185C11.374 9.41992 11.0887 9.13463 10.7368 9.13463H6.9134Z" fill="black"/>
<path fill-rule="evenodd" clip-rule="evenodd" d="M14.5601 5.9485C14.5601 5.74874 14.4682 5.57044 14.3243 5.45361L10.9462 1.76837C10.8316 1.59914 10.6379 1.48792 10.4181 1.48792H5.00172C4.64979 1.48792 4.3645 1.77321 4.3645 2.12514V12.958C4.3645 13.3099 4.64979 13.5952 5.00172 13.5952H13.9229C14.2748 13.5952 14.5601 13.3099 14.5601 12.958V5.9485ZM11.0554 5.31127V3.7735L12.465 5.31127H11.0554ZM5.63895 2.76237V12.3208H13.2857V6.58572H10.4181C10.0662 6.58572 9.78092 6.30043 9.78092 5.9485V2.76237H5.63895Z" fill="black"/>
<path d="M3.72727 7.22295C3.72727 6.87102 3.44198 6.58572 3.09005 6.58572C2.73812 6.58572 2.45282 6.87102 2.45282 7.22295V14.8697C2.45282 15.2216 2.73812 15.5069 3.09005 15.5069H9.78092C10.1328 15.5069 10.4181 15.2216 10.4181 14.8697C10.4181 14.5177 10.1328 14.2324 9.78092 14.2324H3.72727V7.22295Z" fill="black"/>
</g>
</svg>
