<svg width="17" height="16" viewBox="0 0 17 16" fill="none" xmlns="http://www.w3.org/2000/svg">
<mask id="mask0_102_855" style="mask-type:alpha" maskUnits="userSpaceOnUse" x="0" y="0" width="17" height="16">
<rect x="0.506409" y="0.013916" width="15.9245" height="15.9245" fill="#DCDCDC"/>
</mask>
<g mask="url(#mask0_102_855)">
<path d="M6.24891 6.70796C6.24891 6.35769 6.53286 6.07375 6.88313 6.07375H8.15157C8.50184 6.07375 8.78579 6.35769 8.78579 6.70796C8.78579 7.05823 8.50184 7.34218 8.15157 7.34218H6.88313C6.53286 7.34218 6.24891 7.05823 6.24891 6.70796Z" fill="black"/>
<path d="M6.88313 8.61062C6.53286 8.61062 6.24891 8.89457 6.24891 9.24484C6.24891 9.59511 6.53286 9.87906 6.88313 9.87906H10.6884C11.0387 9.87906 11.3227 9.59511 11.3227 9.24484C11.3227 8.89457 11.0387 8.61062 10.6884 8.61062H6.88313Z" fill="black"/>
<path fill-rule="evenodd" clip-rule="evenodd" d="M14.4937 5.43953C14.4937 5.24071 14.4023 5.06326 14.2591 4.94698L10.8969 1.27913C10.7829 1.1107 10.59 1 10.3713 1H4.98048C4.63021 1 4.34626 1.28395 4.34626 1.63422V12.4159C4.34626 12.7662 4.63021 13.0501 4.98048 13.0501H13.8595C14.2098 13.0501 14.4937 12.7662 14.4937 12.4159V5.43953ZM11.0055 4.80531V3.2748L12.4085 4.80531H11.0055ZM5.61469 2.26844V11.7817H13.2253V6.07375H10.3713C10.0211 6.07375 9.73711 5.7898 9.73711 5.43953V2.26844H5.61469Z" fill="black"/>
<path d="M3.71204 6.70796C3.71204 6.35769 3.42809 6.07375 3.07782 6.07375C2.72755 6.07375 2.4436 6.35769 2.4436 6.70796V14.3186C2.4436 14.6689 2.72755 14.9528 3.07782 14.9528H9.73711C10.0874 14.9528 10.3713 14.6689 10.3713 14.3186C10.3713 13.9683 10.0874 13.6844 9.73711 13.6844H3.71204V6.70796Z" fill="black"/>
</g>
</svg>
