<svg width="17" height="16" viewBox="0 0 17 16" fill="none" xmlns="http://www.w3.org/2000/svg">
<mask id="mask0_102_859" style="mask-type:alpha" maskUnits="userSpaceOnUse" x="0" y="0" width="17" height="16">
<rect x="0.506714" y="0.013916" width="15.9245" height="15.9245" fill="#DCDCDC"/>
</mask>
<g mask="url(#mask0_102_859)">
<path d="M5.9322 1.95136C5.9322 1.60109 6.21615 1.31714 6.56642 1.31714H10.3717C10.722 1.31714 11.0059 1.60109 11.0059 1.95136C11.0059 2.30163 10.722 2.58558 10.3717 2.58558H6.56642C6.21615 2.58558 5.9322 2.30163 5.9322 1.95136Z" fill="black"/>
<path d="M2.76111 3.85401C2.76111 3.50374 3.04506 3.21979 3.39533 3.21979H13.5428C13.8931 3.21979 14.177 3.50374 14.177 3.85401C14.177 4.20428 13.8931 4.48823 13.5428 4.48823H3.39533C3.04506 4.48823 2.76111 4.20428 2.76111 3.85401Z" fill="black"/>
<path d="M6.75218 7.84508C6.99985 7.5974 7.40142 7.5974 7.6491 7.84508L8.46907 8.66506L9.28905 7.84508C9.53673 7.5974 9.93829 7.5974 10.186 7.84508C10.4336 8.09276 10.4336 8.49432 10.186 8.742L9.36599 9.56198L10.186 10.382C10.4336 10.6296 10.4336 11.0312 10.186 11.2789C9.93829 11.5265 9.53673 11.5265 9.28905 11.2789L8.46907 10.4589L7.6491 11.2789C7.40142 11.5265 6.99985 11.5265 6.75218 11.2789C6.5045 11.0312 6.5045 10.6296 6.75218 10.382L7.57215 9.56198L6.75218 8.742C6.5045 8.49432 6.5045 8.09276 6.75218 7.84508Z" fill="black"/>
<path fill-rule="evenodd" clip-rule="evenodd" d="M4.66376 5.12245C4.31349 5.12245 4.02954 5.4064 4.02954 5.75667V13.0502C4.02954 13.9259 4.7394 14.6357 5.61509 14.6357H11.3231C12.1987 14.6357 12.9086 13.9259 12.9086 13.0502V5.75667C12.9086 5.4064 12.6247 5.12245 12.2744 5.12245H4.66376ZM5.29798 13.0502V6.39088H11.6402V13.0502C11.6402 13.2253 11.4982 13.3673 11.3231 13.3673H5.61509C5.43994 13.3673 5.29798 13.2253 5.29798 13.0502Z" fill="black"/>
</g>
</svg>
