<svg width="17" height="17" viewBox="0 0 17 17" fill="none" xmlns="http://www.w3.org/2000/svg">
<mask id="mask0_102_891" style="mask-type:alpha" maskUnits="userSpaceOnUse" x="0" y="0" width="17" height="17">
<rect x="0.506409" y="0.013916" width="16" height="16" fill="#DCDCDC"/>
</mask>
<g mask="url(#mask0_102_891)">
<path d="M9.30291 5.30567C9.30291 5.74558 8.94629 6.1022 8.50637 6.1022C8.06646 6.1022 7.70984 5.74558 7.70984 5.30567C7.70984 4.86576 8.06646 4.50914 8.50637 4.50914C8.94629 4.50914 9.30291 4.86576 9.30291 5.30567Z" fill="black"/>
<path d="M9.1436 7.69527C9.1436 7.34334 8.8583 7.05804 8.50637 7.05804C8.15444 7.05804 7.86915 7.34334 7.86915 7.69527V11.5186C7.86915 11.8706 8.15444 12.1558 8.50637 12.1558C8.8583 12.1558 9.1436 11.8706 9.1436 11.5186V7.69527Z" fill="black"/>
<path fill-rule="evenodd" clip-rule="evenodd" d="M1.49689 8.01388C1.49689 4.14265 4.63514 1.00439 8.50637 1.00439C12.3776 1.00439 15.5159 4.14265 15.5159 8.01388C15.5159 11.8851 12.3776 15.0234 8.50637 15.0234C4.63514 15.0234 1.49689 11.8851 1.49689 8.01388ZM8.50637 2.27885C5.339 2.27885 2.77134 4.84651 2.77134 8.01388C2.77134 11.1813 5.339 13.7489 8.50637 13.7489C11.6737 13.7489 14.2414 11.1813 14.2414 8.01388C14.2414 4.84651 11.6737 2.27885 8.50637 2.27885Z" fill="black"/>
</g>
</svg>
