<svg width="17" height="17" viewBox="0 0 17 17" fill="none" xmlns="http://www.w3.org/2000/svg">
<mask id="mask0_102_843" style="mask-type:alpha" maskUnits="userSpaceOnUse" x="0" y="0" width="17" height="17">
<rect x="0.491089" y="0.013916" width="16" height="16" fill="#DCDCDC"/>
</mask>
<g mask="url(#mask0_102_843)">
<path fill-rule="evenodd" clip-rule="evenodd" d="M1.0625 2.33983C1.0625 1.95151 1.37729 1.63672 1.76561 1.63672H15.2165C15.6048 1.63672 15.9196 1.95151 15.9196 2.33983C15.9196 2.72815 15.6048 3.04294 15.2165 3.04294H1.76561C1.37729 3.04294 1.0625 2.72815 1.0625 2.33983Z" fill="black"/>
<path fill-rule="evenodd" clip-rule="evenodd" d="M7.788 6.12287C7.788 5.73455 8.10279 5.41975 8.49111 5.41975H15.2165C15.6048 5.41975 15.9196 5.73455 15.9196 6.12287C15.9196 6.51118 15.6048 6.82598 15.2165 6.82598H8.49111C8.10279 6.82598 7.788 6.51118 7.788 6.12287Z" fill="black"/>
<path fill-rule="evenodd" clip-rule="evenodd" d="M7.788 9.90594C7.788 9.51762 8.10279 9.20283 8.49111 9.20283H15.2165C15.6048 9.20283 15.9196 9.51762 15.9196 9.90594C15.9196 10.2943 15.6048 10.6091 15.2165 10.6091H8.49111C8.10279 10.6091 7.788 10.2943 7.788 9.90594Z" fill="black"/>
<path fill-rule="evenodd" clip-rule="evenodd" d="M1.0625 13.689C1.0625 13.3007 1.37729 12.9859 1.76561 12.9859H15.2165C15.6048 12.9859 15.9196 13.3007 15.9196 13.689C15.9196 14.0773 15.6048 14.3921 15.2165 14.3921H1.76561C1.37729 14.3921 1.0625 14.0773 1.0625 13.689Z" fill="black"/>
<path fill-rule="evenodd" clip-rule="evenodd" d="M5.46917 5.29773C5.69273 5.42164 5.83144 5.6571 5.83144 5.9127V10.1161C5.83144 10.3717 5.69273 10.6072 5.46917 10.7311C5.24561 10.855 4.97242 10.8478 4.75567 10.7123L1.39296 8.61064C1.18739 8.48215 1.0625 8.25682 1.0625 8.0144C1.0625 7.77197 1.18739 7.54665 1.39296 7.41816L4.75567 5.31647C4.97242 5.181 5.24561 5.17383 5.46917 5.29773ZM3.09224 8.0144L4.42521 8.8475V7.18129L3.09224 8.0144Z" fill="black"/>
</g>
</svg>
