<svg width="17" height="17" viewBox="0 0 17 17" fill="none" xmlns="http://www.w3.org/2000/svg">
<mask id="mask0_102_871" style="mask-type:alpha" maskUnits="userSpaceOnUse" x="0" y="0" width="17" height="17">
<rect x="0.506714" y="0.497314" width="16" height="16" fill="#DCDCDC"/>
</mask>
<g mask="url(#mask0_102_871)">
<path fill-rule="evenodd" clip-rule="evenodd" d="M3.71769 1.48792C3.01383 1.48792 2.44324 2.05851 2.44324 2.76237V14.2324C2.44324 14.9363 3.01383 15.5069 3.71769 15.5069H7.54104C7.89297 15.5069 8.17827 15.2216 8.17827 14.8697C8.17827 14.5177 7.89297 14.2324 7.54104 14.2324H3.71769V2.76237H9.45272V5.31127C9.45272 5.6632 9.73802 5.9485 10.0899 5.9485H12.6389V8.17879C12.6389 8.53072 12.9241 8.81601 13.2761 8.81601C13.628 8.81601 13.9133 8.53072 13.9133 8.17879V5.31127C13.9133 5.14647 13.8507 4.99629 13.7481 4.88317L10.8822 1.69886C10.7614 1.56459 10.5892 1.48792 10.4086 1.48792H3.71769ZM10.7272 4.67404V3.43171L11.8453 4.67404H10.7272Z" fill="black"/>
<path d="M13.0147 10.5675C12.7991 10.352 12.4497 10.352 12.2341 10.5675C12.0186 10.783 12.0186 11.1325 12.2341 11.348L12.6811 11.795H8.09426C7.78945 11.795 7.54234 12.0421 7.54234 12.3469C7.54234 12.6517 7.78945 12.8988 8.09426 12.8988H12.686L12.2341 13.3507C12.0186 13.5663 12.0186 13.9157 12.2341 14.1313C12.4496 14.3468 12.7991 14.3468 13.0146 14.1313L14.3644 12.7815C14.3796 12.7692 14.3944 12.756 14.4085 12.7418C14.5158 12.6345 14.5697 12.494 14.5701 12.3533L14.5702 12.3469C14.5702 12.1725 14.4894 12.0171 14.3631 11.9159L13.0147 10.5675Z" fill="black"/>
</g>
</svg>
