<svg width="17" height="16" viewBox="0 0 17 16" fill="none" xmlns="http://www.w3.org/2000/svg">
<mask id="mask0_102_871" style="mask-type:alpha" maskUnits="userSpaceOnUse" x="0" y="0" width="17" height="16">
<rect x="0.506714" y="0.013916" width="15.9245" height="15.9245" fill="#DCDCDC"/>
</mask>
<g mask="url(#mask0_102_871)">
<path fill-rule="evenodd" clip-rule="evenodd" d="M3.70252 1C3.00198 1 2.43408 1.5679 2.43408 2.26844V13.6844C2.43408 14.3849 3.00199 14.9528 3.70252 14.9528H7.50783C7.8581 14.9528 8.14205 14.6689 8.14205 14.3186C8.14205 13.9683 7.8581 13.6844 7.50783 13.6844H3.70252V2.26844H9.41048V4.80531C9.41048 5.15558 9.69443 5.43953 10.0447 5.43953H12.5816V7.65929C12.5816 8.00956 12.8655 8.29351 13.2158 8.29351C13.5661 8.29351 13.85 8.00956 13.85 7.65929V4.80531C13.85 4.64129 13.7877 4.49181 13.6856 4.37923L10.8332 1.20995C10.7129 1.07631 10.5416 1 10.3618 1H3.70252ZM10.6789 4.17109V2.93462L11.7917 4.17109H10.6789Z" fill="black"/>
<path d="M12.9556 10.0367C12.7411 9.8222 12.3933 9.8222 12.1788 10.0367C11.9643 10.2512 11.9643 10.5991 12.1788 10.8136L12.6236 11.2584H8.05844C7.75506 11.2584 7.50912 11.5043 7.50912 11.8077C7.50912 12.1111 7.75506 12.357 8.05844 12.357H12.6285L12.1787 12.8068C11.9642 13.0214 11.9642 13.3692 12.1787 13.5837C12.3932 13.7982 12.7411 13.7982 12.9556 13.5837L14.299 12.2403C14.3141 12.228 14.3288 12.2149 14.3429 12.2008C14.4497 12.094 14.5033 11.9541 14.5038 11.8141L14.5038 11.8077C14.5038 11.6342 14.4233 11.4795 14.2977 11.3788L12.9556 10.0367Z" fill="black"/>
</g>
</svg>
