<svg width="17" height="17" viewBox="0 0 17 17" fill="none" xmlns="http://www.w3.org/2000/svg">
<mask id="mask0_102_851" style="mask-type:alpha" maskUnits="userSpaceOnUse" x="0" y="0" width="17" height="17">
<rect x="0.506714" y="0.497314" width="16" height="16" fill="#DCDCDC"/>
</mask>
<g mask="url(#mask0_102_851)">
<path fill-rule="evenodd" clip-rule="evenodd" d="M2.77164 2.44385C2.06778 2.44385 1.49719 3.01444 1.49719 3.7183V13.9139C1.49719 14.2289 1.72713 14.4956 2.03646 14.5436C2.04869 14.5455 2.061 14.547 2.07338 14.5482C2.09661 14.5505 2.11971 14.5514 2.1426 14.5511H13.6045C13.9082 14.5511 14.1698 14.3367 14.2293 14.0389L15.5038 7.66663C15.5412 7.47942 15.4928 7.2853 15.3717 7.13766C15.2507 6.99002 15.0699 6.90443 14.8789 6.90443H14.0824V5.62998C14.0824 4.92611 13.5118 4.35553 12.808 4.35553H8.80514L7.40314 2.67313C7.28207 2.52785 7.10273 2.44385 6.91361 2.44385H2.77164ZM12.808 6.90443V5.62998H8.50668C8.31756 5.62998 8.13822 5.54598 8.01715 5.40069L6.61515 3.7183H2.77164V8.54193L3.04821 7.39258C3.11711 7.10625 3.37324 6.90443 3.66775 6.90443H12.808ZM2.95056 13.2767H13.0821L14.1017 8.17888H4.22501L2.95056 13.2767Z" fill="black"/>
</g>
</svg>
