<svg width="17" height="16" viewBox="0 0 17 16" fill="none" xmlns="http://www.w3.org/2000/svg">
<mask id="mask0_102_875" style="mask-type:alpha" maskUnits="userSpaceOnUse" x="0" y="0" width="17" height="16">
<rect x="0.506409" y="0.013916" width="15.9245" height="15.9245" fill="#DCDCDC"/>
</mask>
<g mask="url(#mask0_102_875)">
<path d="M5.0094 4.17117H4.214C5.2597 3.0027 6.7787 2.26844 8.46871 2.26844C11.6211 2.26844 14.1767 4.82398 14.1767 7.9764C14.1767 11.1288 11.6211 13.6844 8.46871 13.6844C5.31629 13.6844 2.76075 11.1288 2.76075 7.9764C2.76075 7.62613 2.4768 7.34218 2.12653 7.34218C1.77626 7.34218 1.49231 7.62613 1.49231 7.9764C1.49231 11.8294 4.61575 14.9528 8.46871 14.9528C12.3217 14.9528 15.4451 11.8294 15.4451 7.9764C15.4451 4.12344 12.3217 1 8.46871 1C6.4387 1 4.61168 1.86725 3.33736 3.25V2.49915C3.33736 2.14888 3.05342 1.86493 2.70315 1.86493C2.35288 1.86493 2.06893 2.14888 2.06893 2.49915V4.80539C2.06893 5.15566 2.35288 5.43961 2.70315 5.43961H5.0094C5.35967 5.43961 5.64362 5.15566 5.64362 4.80539C5.64362 4.45512 5.35967 4.17117 5.0094 4.17117Z" fill="black"/>
<path d="M9.10455 4.17115C9.10458 3.82089 8.82066 3.53691 8.47039 3.53687C8.12012 3.53684 7.83615 3.82076 7.83611 4.17103L7.83573 7.97913C7.83571 8.14735 7.90253 8.3087 8.02149 8.42765L10.7104 11.1165C10.9581 11.3642 11.3596 11.3642 11.6073 11.1165C11.855 10.8689 11.855 10.4673 11.6073 10.2196L9.10419 7.71652L9.10455 4.17115Z" fill="black"/>
</g>
</svg>
