<svg width="17" height="17" viewBox="0 0 17 17" fill="none" xmlns="http://www.w3.org/2000/svg">
<mask id="mask0_106_1267" style="mask-type:alpha" maskUnits="userSpaceOnUse" x="0" y="0" width="17" height="17">
<rect x="0.461304" y="0.013916" width="16" height="16" fill="#DCDCDC"/>
</mask>
<g mask="url(#mask0_106_1267)">
<path fill-rule="evenodd" clip-rule="evenodd" d="M1.6239 2.79096C1.6239 2.43354 1.91365 2.1438 2.27106 2.1438H14.6515C15.009 2.1438 15.2987 2.43354 15.2987 2.79096C15.2987 3.14838 15.009 3.43812 14.6515 3.43812H2.27106C1.91365 3.43812 1.6239 3.14838 1.6239 2.79096Z" fill="black"/>
<path fill-rule="evenodd" clip-rule="evenodd" d="M7.81422 6.27296C7.81422 5.91554 8.10396 5.6258 8.46138 5.6258H14.6516C15.009 5.6258 15.2988 5.91554 15.2988 6.27296C15.2988 6.63038 15.009 6.92012 14.6516 6.92012H8.46138C8.10396 6.92012 7.81422 6.63038 7.81422 6.27296Z" fill="black"/>
<path fill-rule="evenodd" clip-rule="evenodd" d="M7.81422 9.75499C7.81422 9.39758 8.10396 9.10783 8.46138 9.10783H14.6516C15.009 9.10783 15.2988 9.39758 15.2988 9.75499C15.2988 10.1124 15.009 10.4022 14.6516 10.4022H8.46138C8.10396 10.4022 7.81422 10.1124 7.81422 9.75499Z" fill="black"/>
<path fill-rule="evenodd" clip-rule="evenodd" d="M1.6239 13.237C1.6239 12.8796 1.91365 12.5898 2.27106 12.5898H14.6515C15.009 12.5898 15.2987 12.8796 15.2987 13.237C15.2987 13.5944 15.009 13.8842 14.6515 13.8842H2.27106C1.91365 13.8842 1.6239 13.5944 1.6239 13.237Z" fill="black"/>
<path fill-rule="evenodd" clip-rule="evenodd" d="M5.67991 5.51349C5.88568 5.62753 6.01335 5.84426 6.01335 6.07952V9.94842C6.01335 10.1837 5.88568 10.4004 5.67991 10.5145C5.47414 10.6285 5.22269 10.6219 5.02319 10.4972L1.92807 8.56277C1.73885 8.4445 1.6239 8.23711 1.6239 8.01397C1.6239 7.79084 1.73885 7.58344 1.92807 7.46518L5.02319 5.53073C5.22269 5.40604 5.47414 5.39944 5.67991 5.51349ZM3.49213 8.01397L4.71902 8.78078V7.24716L3.49213 8.01397Z" fill="black"/>
</g>
</svg>
