<svg width="17" height="16" viewBox="0 0 17 16" fill="none" xmlns="http://www.w3.org/2000/svg">
<mask id="mask0_102_847" style="mask-type:alpha" maskUnits="userSpaceOnUse" x="0" y="0" width="17" height="16">
<rect x="0.506714" y="0.013916" width="15.9245" height="15.9245" fill="#DCDCDC"/>
</mask>
<g mask="url(#mask0_102_847)">
<path d="M7.51741 1.47534C6.81686 1.47534 6.24898 2.04325 6.24898 2.74378V3.69511C6.24898 4.04537 6.53292 4.32932 6.88319 4.32932C7.23346 4.32932 7.51741 4.04537 7.51741 3.69511V2.74378H13.8596V9.72018H12.5912C12.2409 9.72018 11.9569 10.0041 11.9569 10.3544C11.9569 10.7047 12.2409 10.9886 12.5912 10.9886H13.8596C14.5601 10.9886 15.128 10.4207 15.128 9.72018V2.74378C15.128 2.04325 14.5601 1.47534 13.8596 1.47534H7.51741Z" fill="black"/>
<path d="M6.24898 7.81752C6.59924 7.81752 6.88319 8.10147 6.88319 8.45174V9.40307H7.83452C8.18479 9.40307 8.46874 9.68702 8.46874 10.0373C8.46874 10.3876 8.18479 10.6715 7.83452 10.6715H6.88319V11.6228C6.88319 11.9731 6.59924 12.2571 6.24898 12.2571C5.89871 12.2571 5.61476 11.9731 5.61476 11.6228V10.6715H4.66343C4.31316 10.6715 4.02921 10.3876 4.02921 10.0373C4.02921 9.68702 4.31316 9.40307 4.66343 9.40307H5.61476V8.45174C5.61476 8.10147 5.89871 7.81752 6.24898 7.81752Z" fill="black"/>
<path fill-rule="evenodd" clip-rule="evenodd" d="M3.07788 5.59776C2.37735 5.59776 1.80945 6.16566 1.80945 6.8662V13.2084C1.80945 13.9089 2.37735 14.4768 3.07788 14.4768H9.42007C10.1206 14.4768 10.6885 13.9089 10.6885 13.2084V6.8662C10.6885 6.16566 10.1206 5.59776 9.42007 5.59776H3.07788ZM3.07788 13.2084V6.8662H9.42007V13.2084H3.07788Z" fill="black"/>
</g>
</svg>
