<svg width="17" height="16" viewBox="0 0 17 16" fill="none" xmlns="http://www.w3.org/2000/svg">
<mask id="mask0_102_851" style="mask-type:alpha" maskUnits="userSpaceOnUse" x="0" y="0" width="17" height="16">
<rect x="0.506714" y="0.013916" width="15.9245" height="15.9245" fill="#DCDCDC"/>
</mask>
<g mask="url(#mask0_102_851)">
<path fill-rule="evenodd" clip-rule="evenodd" d="M2.76099 1.95117C2.06045 1.95117 1.49255 2.51907 1.49255 3.21961V13.3671C1.49255 13.6806 1.72141 13.946 2.02927 13.9938C2.04145 13.9957 2.0537 13.9972 2.06603 13.9984C2.08914 14.0006 2.11213 14.0016 2.13491 14.0013H13.5427C13.845 14.0013 14.1053 13.7879 14.1646 13.4915L15.433 7.1493C15.4703 6.96298 15.4221 6.76977 15.3016 6.62283C15.1811 6.47589 15.0011 6.3907 14.8111 6.3907H14.0184V5.12226C14.0184 4.42172 13.4505 3.85383 12.7499 3.85383H8.76601L7.37063 2.17937C7.25013 2.03478 7.07163 1.95117 6.88341 1.95117H2.76099ZM12.7499 6.3907V5.12226H8.46895C8.28073 5.12226 8.10223 5.03866 7.98173 4.89406L6.58636 3.21961H2.76099V8.02047L3.03625 6.87654C3.10482 6.59156 3.35975 6.3907 3.65287 6.3907H12.7499ZM2.93906 12.7329H13.0228L14.0375 7.65914H4.2075L2.93906 12.7329Z" fill="black"/>
</g>
</svg>
