<svg width="17" height="16" viewBox="0 0 17 16" fill="none" xmlns="http://www.w3.org/2000/svg">
<mask id="mask0_102_863" style="mask-type:alpha" maskUnits="userSpaceOnUse" x="0" y="0" width="17" height="16">
<rect x="0.506714" y="0.013916" width="15.9245" height="15.9245" fill="#DCDCDC"/>
</mask>
<g mask="url(#mask0_102_863)">
<path d="M7.20058 11.4646C7.20058 11.1144 7.48453 10.8304 7.8348 10.8304H9.10323C9.4535 10.8304 9.73745 11.1144 9.73745 11.4646C9.73745 11.8149 9.4535 12.0988 9.10323 12.0988H7.8348C7.48453 12.0988 7.20058 11.8149 7.20058 11.4646Z" fill="black"/>
<path fill-rule="evenodd" clip-rule="evenodd" d="M5.29792 1.95136C5.29792 1.60109 5.58187 1.31714 5.93214 1.31714H11.0059C11.3562 1.31714 11.6401 1.60109 11.6401 1.95136V3.85401H14.177C14.8775 3.85401 15.4454 4.4219 15.4454 5.12245V10.1962C15.4454 10.8967 14.8775 11.4646 14.177 11.4646H11.6401V14.0015C11.6401 14.3518 11.3562 14.6357 11.0059 14.6357H5.93214C5.58187 14.6357 5.29792 14.3518 5.29792 14.0015V11.4646H2.76105C2.06052 11.4646 1.49261 10.8967 1.49261 10.1962V5.12245C1.49261 4.42189 2.06052 3.85401 2.76105 3.85401H5.29792V1.95136ZM5.29792 9.56198H4.98081C4.63055 9.56198 4.3466 9.27803 4.3466 8.92776C4.3466 8.57749 4.63055 8.29354 4.98081 8.29354H11.9572C12.3075 8.29354 12.5914 8.57749 12.5914 8.92776C12.5914 9.27803 12.3075 9.56198 11.9572 9.56198H11.6401V10.1962H14.177V5.12245H12.9085V6.39088C12.9085 6.74115 12.6246 7.0251 12.2743 7.0251H4.66371C4.31344 7.0251 4.02949 6.74115 4.02949 6.39088V5.12245H2.76105V10.1962H5.29792V9.56198ZM6.56636 9.56198V13.3673H10.3717V9.56198H6.56636ZM10.3717 4.48823C10.3717 4.8385 10.6556 5.12245 11.0059 5.12245H11.6401V5.75667H5.29792V5.12245H5.93214C6.28241 5.12245 6.56636 4.8385 6.56636 4.48823V2.58558H10.3717V4.48823Z" fill="black"/>
</g>
</svg>
