<svg width="17" height="17" viewBox="0 0 17 17" fill="none" xmlns="http://www.w3.org/2000/svg">
<mask id="mask0_102_867" style="mask-type:alpha" maskUnits="userSpaceOnUse" x="0" y="0" width="17" height="17">
<rect x="0.506409" y="0.497314" width="16" height="16" fill="#DCDCDC"/>
</mask>
<g mask="url(#mask0_102_867)">
<path fill-rule="evenodd" clip-rule="evenodd" d="M2.4527 2.76237C2.4527 2.05851 3.02329 1.48792 3.72715 1.48792H10.418C10.5987 1.48792 10.7708 1.56459 10.8917 1.69886L13.7575 4.88317C13.8602 4.99629 13.9228 5.14647 13.9228 5.31127V8.17879C13.9228 8.53072 13.6375 8.81601 13.2855 8.81601C12.9336 8.81601 12.6483 8.53072 12.6483 8.17879V5.9485H10.0994C9.74748 5.9485 9.46218 5.6632 9.46218 5.31127V2.76237H3.72715V14.2324H7.55051C7.90243 14.2324 8.18773 14.5177 8.18773 14.8697C8.18773 15.2216 7.90243 15.5069 7.55051 15.5069H3.72715C3.0233 15.5069 2.4527 14.9363 2.4527 14.2324V2.76237ZM10.7366 3.43171V4.67404H11.8547L10.7366 3.43171Z" fill="black"/>
<path fill-rule="evenodd" clip-rule="evenodd" d="M13.0989 9.95849L14.3734 11.2329C14.6222 11.4818 14.6222 11.8853 14.3734 12.1341L11.1872 15.3202C11.0677 15.4397 10.9056 15.5069 10.7366 15.5069H9.46218C9.11025 15.5069 8.82496 15.2216 8.82496 14.8697V13.5952C8.82496 13.4262 8.89209 13.2641 9.0116 13.1446L12.1977 9.95849C12.4466 9.70964 12.85 9.70964 13.0989 9.95849ZM10.0994 13.8592V14.2324H10.4727L13.0216 11.6835L12.6483 11.3103L10.0994 13.8592Z" fill="black"/>
</g>
</svg>
