<svg width="17" height="16" viewBox="0 0 17 16" fill="none" xmlns="http://www.w3.org/2000/svg">
<mask id="mask0_102_867" style="mask-type:alpha" maskUnits="userSpaceOnUse" x="0" y="0" width="17" height="16">
<rect x="0.506409" y="0.013916" width="15.9245" height="15.9245" fill="#DCDCDC"/>
</mask>
<g mask="url(#mask0_102_867)">
<path fill-rule="evenodd" clip-rule="evenodd" d="M2.44348 2.26844C2.44348 1.5679 3.01138 1 3.71192 1H10.3712C10.551 1 10.7223 1.07631 10.8426 1.20995L13.695 4.37923C13.7971 4.49181 13.8594 4.64129 13.8594 4.80531V7.65929C13.8594 8.00956 13.5755 8.29351 13.2252 8.29351C12.8749 8.29351 12.591 8.00956 12.591 7.65929V5.43953H10.0541C9.70383 5.43953 9.41988 5.15558 9.41988 4.80531V2.26844H3.71192V13.6844H7.51723C7.8675 13.6844 8.15145 13.9683 8.15145 14.3186C8.15145 14.6689 7.8675 14.9528 7.51723 14.9528H3.71192C3.01139 14.9528 2.44348 14.3849 2.44348 13.6844V2.26844ZM10.6883 2.93462V4.17109H11.8011L10.6883 2.93462Z" fill="black"/>
<path fill-rule="evenodd" clip-rule="evenodd" d="M13.0394 9.4306L14.3079 10.699C14.5555 10.9467 14.5555 11.3483 14.3079 11.596L11.1368 14.767C11.0178 14.886 10.8565 14.9528 10.6883 14.9528H9.41988C9.06961 14.9528 8.78566 14.6689 8.78566 14.3186V13.0501C8.78566 12.8819 8.85248 12.7206 8.97142 12.6017L12.1425 9.4306C12.3902 9.18292 12.7918 9.18292 13.0394 9.4306ZM10.0541 13.3128V13.6844H10.4256L12.9625 11.1475L12.591 10.776L10.0541 13.3128Z" fill="black"/>
</g>
</svg>
