<svg width="17" height="16" viewBox="0 0 17 16" fill="none" xmlns="http://www.w3.org/2000/svg">
<mask id="mask0_102_887" style="mask-type:alpha" maskUnits="userSpaceOnUse" x="0" y="0" width="17" height="16">
<rect x="0.506592" y="0.013916" width="15.9245" height="15.9245" fill="#DCDCDC"/>
</mask>
<g mask="url(#mask0_102_887)">
<path d="M8.46859 1.63403C6.67684 1.63403 5.05775 2.37786 3.90512 3.57187C3.66185 3.82388 3.66893 4.22538 3.92094 4.46865C4.17295 4.71192 4.57445 4.70484 4.81772 4.45283C5.74121 3.49618 7.03501 2.90247 8.46859 2.90247C11.2707 2.90247 13.5423 5.17407 13.5423 7.97622C13.5423 8.32648 13.8263 8.61043 14.1765 8.61043C14.5268 8.61043 14.8108 8.32648 14.8108 7.97622V2.90247C14.8108 2.5522 14.5268 2.26825 14.1765 2.26825C13.8263 2.26825 13.5423 2.5522 13.5423 2.90247V4.17029C12.3852 2.6302 10.5432 1.63403 8.46859 1.63403Z" fill="black"/>
<path d="M3.39484 7.97622C3.39484 7.62595 3.11089 7.342 2.76062 7.342C2.41035 7.342 2.1264 7.62595 2.1264 7.97622V13.05C2.1264 13.4002 2.41035 13.6842 2.76062 13.6842C3.11089 13.6842 3.39484 13.4002 3.39484 13.05V11.7821C4.55195 13.3222 6.39394 14.3184 8.46859 14.3184C10.1792 14.3184 11.7327 13.6403 12.8729 12.5397C13.1249 12.2964 13.132 11.8949 12.8888 11.6429C12.6455 11.3909 12.244 11.3838 11.992 11.6271C11.0787 12.5087 9.83751 13.05 8.46859 13.05C5.66644 13.05 3.39484 10.7784 3.39484 7.97622Z" fill="black"/>
</g>
</svg>
