<svg width="17" height="16" viewBox="0 0 17 16" fill="none" xmlns="http://www.w3.org/2000/svg">
<mask id="mask0_102_879" style="mask-type:alpha" maskUnits="userSpaceOnUse" x="0" y="0" width="17" height="16">
<rect x="0.506409" y="0.013916" width="15.9245" height="15.9245" fill="#DCDCDC"/>
</mask>
<g mask="url(#mask0_102_879)">
<path d="M4.66334 8.61043C4.66334 8.26016 4.94729 7.97622 5.29756 7.97622H11.6397C11.99 7.97622 12.274 8.26016 12.274 8.61043C12.274 8.9607 11.99 9.24465 11.6397 9.24465H5.29756C4.94729 9.24465 4.66334 8.9607 4.66334 8.61043Z" fill="black"/>
<path d="M5.29756 10.5131C4.94729 10.5131 4.66334 10.797 4.66334 11.1473C4.66334 11.4976 4.94729 11.7815 5.29756 11.7815H8.47128C8.82155 11.7815 9.1055 11.4976 9.1055 11.1473C9.1055 10.797 8.82155 10.5131 8.47128 10.5131H5.29756Z" fill="black"/>
<path fill-rule="evenodd" clip-rule="evenodd" d="M12.1629 1.80575L14.6094 4.08992C14.7379 4.20987 14.8108 4.37774 14.8108 4.5535V12.7329C14.8108 13.6085 14.101 14.3184 13.2253 14.3184H3.71201C2.83635 14.3184 2.12646 13.6085 2.12646 12.7329V3.21958C2.12646 2.34391 2.83634 1.63403 3.71201 1.63403H11.729C11.8969 1.63403 12.0495 1.69926 12.1629 1.80575ZM3.71201 2.90247C3.53688 2.90247 3.3949 3.04445 3.3949 3.21958V12.7329C3.3949 12.908 3.53687 13.05 3.71201 13.05H13.2253C13.4004 13.05 13.5424 12.908 13.5424 12.7329V4.82903L11.4789 2.90247H9.1055V4.80512C9.1055 5.15539 8.82155 5.43934 8.47128 5.43934H5.30019C4.94992 5.43934 4.66597 5.15539 4.66597 4.80512V2.90247H3.71201ZM5.93441 2.90247V4.17091H7.83706V2.90247H5.93441Z" fill="black"/>
</g>
</svg>
