<svg width="17" height="16" viewBox="0 0 17 16" fill="none" xmlns="http://www.w3.org/2000/svg">
<mask id="mask0_102_883" style="mask-type:alpha" maskUnits="userSpaceOnUse" x="0" y="0" width="17" height="16">
<rect x="0.506592" y="0.013916" width="15.9245" height="15.9245" fill="#DCDCDC"/>
</mask>
<g mask="url(#mask0_102_883)">
<path d="M4.35674 6.4574C4.26782 6.49423 4.17252 6.51319 4.07628 6.51319V6.51172C3.88211 6.51172 3.69588 6.43459 3.55858 6.29728C3.42128 6.15998 3.34414 5.97376 3.34414 5.77958C3.34414 5.58541 3.42128 5.39919 3.55858 5.26188C3.69588 5.12458 3.88211 5.04745 4.07628 5.04745C4.17252 5.04745 4.26782 5.0664 4.35674 5.10323C4.44565 5.14006 4.52645 5.19404 4.5945 5.2621C4.66255 5.33015 4.71654 5.41094 4.75337 5.49986C4.7902 5.58878 4.80915 5.68407 4.80915 5.78032C4.80915 5.87656 4.7902 5.97186 4.75337 6.06077C4.71654 6.14969 4.66255 6.23048 4.5945 6.29853C4.52645 6.36659 4.44565 6.42057 4.35674 6.4574Z" fill="black"/>
<path d="M4.59398 8.4937C4.73128 8.3564 4.80842 8.17018 4.80842 7.976C4.80842 7.78183 4.73128 7.5956 4.59398 7.4583C4.45668 7.321 4.27046 7.24386 4.07628 7.24386C3.88211 7.24386 3.69588 7.321 3.55858 7.4583C3.42128 7.5956 3.34414 7.78183 3.34414 7.976C3.34414 8.17018 3.42128 8.3564 3.55858 8.4937C3.69588 8.631 3.88211 8.70814 4.07628 8.70814C4.27046 8.70814 4.45668 8.631 4.59398 8.4937Z" fill="black"/>
<path d="M4.59398 10.6901C4.45668 10.8274 4.27046 10.9046 4.07628 10.9046C3.88211 10.9046 3.69588 10.8274 3.55858 10.6901C3.42128 10.5528 3.34414 10.3666 3.34414 10.1724C3.34414 9.97824 3.42128 9.79202 3.55858 9.65472C3.69588 9.51741 3.88211 9.44028 4.07628 9.44028C4.27046 9.44028 4.45668 9.51741 4.59398 9.65472C4.73128 9.79202 4.80842 9.97824 4.80842 10.1724C4.80842 10.3666 4.73128 10.5528 4.59398 10.6901Z" fill="black"/>
<path d="M6.94939 6.05982C6.98609 5.97095 7.00493 5.87573 7.00484 5.77958C7.00464 5.58541 6.92732 5.39926 6.78988 5.2621C6.65244 5.12493 6.46614 5.04798 6.27197 5.04818C6.07779 5.04837 5.89165 5.12569 5.75448 5.26313C5.61732 5.40057 5.54037 5.58687 5.54056 5.78105C5.54066 5.87719 5.55969 5.97238 5.59657 6.06117C5.63345 6.14996 5.68746 6.23062 5.75552 6.29853C5.82357 6.36645 5.90433 6.4203 5.9932 6.45701C6.08206 6.49371 6.17728 6.51255 6.27343 6.51246C6.36958 6.51236 6.46476 6.49333 6.55355 6.45644C6.64234 6.41956 6.723 6.36555 6.79092 6.2975C6.85883 6.22945 6.91268 6.14868 6.94939 6.05982Z" fill="black"/>
<path d="M6.55288 8.65241C6.46405 8.6892 6.36884 8.70814 6.2727 8.70814C6.07852 8.70814 5.8923 8.631 5.755 8.4937C5.6177 8.3564 5.54056 8.17018 5.54056 7.976C5.54056 7.78183 5.6177 7.5956 5.755 7.4583C5.8923 7.321 6.07852 7.24386 6.2727 7.24386C6.36884 7.24386 6.46405 7.2628 6.55288 7.29959C6.6417 7.33639 6.72241 7.39032 6.7904 7.4583C6.85838 7.52629 6.91231 7.607 6.94911 7.69582C6.9859 7.78465 7.00484 7.87986 7.00484 7.976C7.00484 8.07215 6.9859 8.16735 6.94911 8.25618C6.91231 8.34501 6.85838 8.42572 6.7904 8.4937C6.72241 8.56169 6.6417 8.61562 6.55288 8.65241Z" fill="black"/>
<path d="M9.1458 6.05982C9.18251 5.97095 9.20135 5.87573 9.20126 5.77958C9.20106 5.58541 9.12374 5.39926 8.9863 5.2621C8.84886 5.12493 8.66256 5.04798 8.46838 5.04818C8.27421 5.04837 8.08806 5.12569 7.9509 5.26313C7.81373 5.40057 7.73678 5.58687 7.73698 5.78105C7.73707 5.87719 7.75611 5.97238 7.79299 6.06117C7.82987 6.14996 7.88388 6.23062 7.95193 6.29853C8.01999 6.36645 8.10075 6.4203 8.18961 6.45701C8.27848 6.49371 8.3737 6.51255 8.46985 6.51246C8.56599 6.51236 8.66118 6.49333 8.74997 6.45644C8.83876 6.41956 8.91942 6.36555 8.98733 6.2975C9.05525 6.22945 9.1091 6.14868 9.1458 6.05982Z" fill="black"/>
<path d="M8.74929 8.65241C8.66047 8.6892 8.56526 8.70814 8.46912 8.70814C8.27494 8.70814 8.08872 8.631 7.95142 8.4937C7.81411 8.3564 7.73698 8.17018 7.73698 7.976C7.73698 7.78183 7.81411 7.5956 7.95142 7.4583C8.08872 7.321 8.27494 7.24386 8.46912 7.24386C8.56526 7.24386 8.66047 7.2628 8.74929 7.29959C8.83812 7.33639 8.91883 7.39032 8.98682 7.4583C9.0548 7.52629 9.10873 7.607 9.14552 7.69582C9.18232 7.78465 9.20126 7.87986 9.20126 7.976C9.20126 8.07215 9.18232 8.16735 9.14552 8.25618C9.10873 8.34501 9.0548 8.42572 8.98682 8.4937C8.91883 8.56169 8.83812 8.61562 8.74929 8.65241Z" fill="black"/>
<path d="M11.3422 6.05982C11.3789 5.97095 11.3978 5.87573 11.3977 5.77958C11.3975 5.58541 11.3202 5.39926 11.1827 5.2621C11.0453 5.12493 10.859 5.04798 10.6648 5.04818C10.4706 5.04837 10.2845 5.12569 10.1473 5.26313C10.0101 5.40057 9.9332 5.58687 9.93339 5.78105C9.93349 5.87719 9.95252 5.97238 9.98941 6.06117C10.0263 6.14996 10.0803 6.23062 10.1484 6.29853C10.2164 6.36645 10.2972 6.4203 10.386 6.45701C10.4749 6.49371 10.5701 6.51255 10.6663 6.51246C10.7624 6.51236 10.8576 6.49333 10.9464 6.45644C11.0352 6.41956 11.1158 6.36555 11.1838 6.2975C11.2517 6.22945 11.3055 6.14868 11.3422 6.05982Z" fill="black"/>
<path d="M10.9457 8.65241C10.8569 8.6892 10.7617 8.70814 10.6655 8.70814C10.4714 8.70814 10.2851 8.631 10.1478 8.4937C10.0105 8.3564 9.93339 8.17018 9.93339 7.976C9.93339 7.78183 10.0105 7.5956 10.1478 7.4583C10.2851 7.321 10.4714 7.24386 10.6655 7.24386C10.7617 7.24386 10.8569 7.2628 10.9457 7.29959C11.0345 7.33639 11.1152 7.39032 11.1832 7.4583C11.2512 7.52629 11.3051 7.607 11.3419 7.69582C11.3787 7.78465 11.3977 7.87986 11.3977 7.976C11.3977 8.07215 11.3787 8.16735 11.3419 8.25618C11.3051 8.34501 11.2512 8.42572 11.1832 8.4937C11.1152 8.56169 11.0345 8.61562 10.9457 8.65241Z" fill="black"/>
<path d="M13.5386 6.05982C13.5753 5.97095 13.5942 5.87573 13.5941 5.77958C13.5939 5.58541 13.5166 5.39926 13.3791 5.2621C13.2417 5.12493 13.0554 5.04798 12.8612 5.04818C12.667 5.04837 12.4809 5.12569 12.3437 5.26313C12.2066 5.40057 12.1296 5.58687 12.1298 5.78105C12.1299 5.87719 12.1489 5.97238 12.1858 6.06117C12.2227 6.14996 12.2767 6.23062 12.3448 6.29853C12.4128 6.36645 12.4936 6.4203 12.5825 6.45701C12.6713 6.49371 12.7665 6.51255 12.8627 6.51246C12.9588 6.51236 13.054 6.49333 13.1428 6.45644C13.2316 6.41956 13.3123 6.36555 13.3802 6.2975C13.4481 6.22945 13.5019 6.14868 13.5386 6.05982Z" fill="black"/>
<path d="M13.1421 8.65241C13.0533 8.6892 12.9581 8.70814 12.862 8.70814C12.6678 8.70814 12.4816 8.631 12.3443 8.4937C12.2069 8.3564 12.1298 8.17018 12.1298 7.976C12.1298 7.78183 12.2069 7.5956 12.3443 7.4583C12.4816 7.321 12.6678 7.24386 12.862 7.24386C12.9581 7.24386 13.0533 7.2628 13.1421 7.29959C13.231 7.33639 13.3117 7.39032 13.3797 7.4583C13.4476 7.52629 13.5016 7.607 13.5384 7.69582C13.5752 7.78465 13.5941 7.87986 13.5941 7.976C13.5941 8.07215 13.5752 8.16735 13.5384 8.25618C13.5016 8.34501 13.4476 8.42572 13.3797 8.4937C13.3117 8.56169 13.231 8.61562 13.1421 8.65241Z" fill="black"/>
<path d="M13.3797 10.6901C13.517 10.5528 13.5941 10.3666 13.5941 10.1724C13.5941 9.97824 13.517 9.79202 13.3797 9.65472C13.2423 9.51741 13.0561 9.44028 12.862 9.44028C12.6678 9.44028 12.4816 9.51741 12.3443 9.65472C12.2069 9.79202 12.1298 9.97824 12.1298 10.1724C12.1298 10.3666 12.2069 10.5528 12.3443 10.6901C12.4816 10.8274 12.6678 10.9046 12.862 10.9046C13.0561 10.9046 13.2423 10.8274 13.3797 10.6901Z" fill="black"/>
<path d="M5.755 9.65472C5.8923 9.51741 6.07852 9.44028 6.2727 9.44028H10.6655C10.8597 9.44028 11.0459 9.51741 11.1832 9.65472C11.3205 9.79202 11.3977 9.97824 11.3977 10.1724C11.3977 10.3666 11.3205 10.5528 11.1832 10.6901C11.0459 10.8274 10.8597 10.9046 10.6655 10.9046H6.2727C6.07852 10.9046 5.8923 10.8274 5.755 10.6901C5.6177 10.5528 5.54056 10.3666 5.54056 10.1724C5.54056 9.97824 5.6177 9.79202 5.755 9.65472Z" fill="black"/>
<path fill-rule="evenodd" clip-rule="evenodd" d="M0.858521 4.48786C0.858521 3.43705 1.71037 2.58521 2.76118 2.58521H14.1771C15.2279 2.58521 16.0798 3.43705 16.0798 4.48786V11.4643C16.0798 12.5151 15.2279 13.3669 14.1771 13.3669H2.76118C1.71037 13.3669 0.858521 12.5151 0.858521 11.4643V4.48786ZM2.76118 3.85364H14.1771C14.5274 3.85364 14.8113 4.13759 14.8113 4.48786V11.4643C14.8113 11.8145 14.5274 12.0985 14.1771 12.0985H2.76118C2.41091 12.0985 2.12696 11.8145 2.12696 11.4643V4.48786C2.12696 4.13759 2.41091 3.85364 2.76118 3.85364Z" fill="black"/>
</g>
</svg>
