<svg width="25" height="25" viewBox="0 0 25 25" fill="none" xmlns="http://www.w3.org/2000/svg">
<mask id="mask0_331_1403" style="mask-type:alpha" maskUnits="userSpaceOnUse" x="0" y="0" width="25" height="25">
<rect x="0.081543" y="0.537476" width="24" height="24" fill="#DCDCDC"/>
</mask>
<g mask="url(#mask0_331_1403)">
<rect x="3.11865" y="18.5732" width="17.9259" height="3.96438" rx="1.98219" fill="#E5E5E5"/>
<path fill-rule="evenodd" clip-rule="evenodd" d="M11.721 4.2483C11.1477 3.51966 10.4612 2.99531 9.78648 2.73096C9.05379 2.44383 8.03541 2.38466 7.39456 3.20428C6.82349 3.93474 6.86951 5.01288 7.21905 6.15125C7.37695 6.66564 7.63317 7.17191 7.99787 7.66C8.01452 7.68227 8.03201 7.70351 8.05025 7.72371C8.06362 7.73845 8.0774 7.75263 8.09151 7.76623C8.1106 7.78466 8.13043 7.80205 8.15089 7.81841L5.69853 10.2707C5.35928 10.61 5.35928 11.16 5.69853 11.4993L10.9982 16.799C11.3375 17.1382 11.8876 17.1382 12.2269 16.799L18.9457 10.0801C19.2849 9.74085 19.2849 9.19078 18.9457 8.85153L13.646 3.55185C13.3067 3.2126 12.7567 3.2126 12.4174 3.55185L11.721 4.2483ZM11.3164 7.57508C11.3319 7.6736 11.3449 7.77413 11.355 7.87663C11.4027 8.35406 11.8282 8.70251 12.3057 8.65489C12.7831 8.6073 13.1316 8.18168 13.0839 7.70425C13.0155 7.01865 12.8517 6.38228 12.6193 5.80715L13.0318 5.39476L17.1027 9.46582L15.7891 10.7794H7.64706L11.2403 7.1862C11.2699 7.31216 11.2954 7.44181 11.3164 7.57508ZM10.4801 5.48919C10.0563 4.89583 9.55656 4.507 9.15252 4.34867C8.95962 4.27308 8.83597 4.26829 8.78071 4.2755C8.7752 4.27624 8.77064 4.27703 8.76682 4.2778L8.76014 4.27937C8.7314 4.3269 8.58124 4.66814 8.87998 5.64127C8.97393 5.94729 9.13046 6.26783 9.37257 6.59676L10.4801 5.48919Z" fill="black"/>
<path d="M18.037 17.5744C18.6794 17.5744 19.2001 17.0537 19.2001 16.4114C19.2001 16.0137 18.7542 15.2761 18.4146 14.772C18.2313 14.4999 17.8428 14.4999 17.6595 14.772C17.32 15.2761 16.8741 16.0137 16.8741 16.4114C16.8741 17.0537 17.3948 17.5744 18.037 17.5744Z" fill="black"/>
</g>
</svg>
