<svg width="25" height="25" viewBox="0 0 25 25" fill="none" xmlns="http://www.w3.org/2000/svg">
<mask id="mask0_553_192" style="mask-type:alpha" maskUnits="userSpaceOnUse" x="0" y="0" width="25" height="25">
<rect x="0.953613" y="0.772827" width="24" height="24" fill="#DCDCDC"/>
</mask>
<g mask="url(#mask0_553_192)">
<path d="M9.91418 13.3165L8.97645 15.6709C8.90022 15.862 8.82398 16.0463 8.74774 16.2237C8.6715 16.4011 8.58001 16.5649 8.47328 16.7151C8.38179 16.8652 8.26744 16.9812 8.13021 17.0631C8.00823 17.1587 7.86337 17.2064 7.69565 17.2064C7.3907 17.2064 7.15436 17.1177 6.98663 16.9403C6.81891 16.7765 6.81891 16.4626 6.98663 15.9985L11.7896 3.48939C11.8659 3.27101 11.9955 3.1004 12.1785 2.97756C12.3767 2.84107 12.6283 2.77283 12.9332 2.77283C13.2534 2.77283 13.5126 2.84107 13.7109 2.97756C13.9091 3.1004 14.0463 3.27101 14.1225 3.48939L18.9484 16.0395C19.0704 16.367 19.078 16.6468 18.9713 16.8789C18.8646 17.0972 18.613 17.2064 18.2165 17.2064C17.9573 17.2201 17.7439 17.1518 17.5761 17.0017C17.4237 16.8652 17.3093 16.6809 17.2331 16.4489L15.9751 13.3165H9.91418ZM15.5634 11.8834L12.9561 4.86109L10.3487 11.8834H15.5634Z" fill="#35322B"/>
<rect x="4.26904" y="18.9318" width="17.3687" height="3.84116" rx="1.92058" fill="black"/>
</g>
</svg>
